<svg width="1370" height="34" viewBox="0 0 1370 34" fill="none" xmlns="http://www.w3.org/2000/svg">
<rect x="1287.5" y="3.5" width="82" height="30" rx="15" fill="white" stroke="white"/>
<path d="M1318.18 16.76C1318.14 16.7133 1318.05 16.65 1317.92 16.57C1317.8 16.49 1317.65 16.4133 1317.47 16.34C1317.3 16.26 1317.11 16.1933 1316.9 16.14C1316.7 16.0867 1316.49 16.06 1316.27 16.06C1315.89 16.06 1315.61 16.13 1315.42 16.27C1315.24 16.41 1315.14 16.6067 1315.14 16.86C1315.14 17.0067 1315.18 17.13 1315.24 17.23C1315.32 17.3233 1315.42 17.4067 1315.55 17.48C1315.69 17.5533 1315.85 17.62 1316.05 17.68C1316.26 17.74 1316.5 17.8033 1316.76 17.87C1317.11 17.9633 1317.42 18.0633 1317.7 18.17C1317.99 18.2767 1318.23 18.41 1318.42 18.57C1318.62 18.73 1318.78 18.9233 1318.88 19.15C1318.99 19.37 1319.04 19.6433 1319.04 19.97C1319.04 20.35 1318.97 20.6767 1318.82 20.95C1318.68 21.2167 1318.49 21.4333 1318.24 21.6C1318 21.7667 1317.72 21.89 1317.4 21.97C1317.09 22.0433 1316.76 22.08 1316.41 22.08C1315.88 22.08 1315.35 22 1314.83 21.84C1314.31 21.68 1313.85 21.4533 1313.43 21.16L1314.04 19.97C1314.1 20.03 1314.21 20.11 1314.36 20.21C1314.52 20.3033 1314.71 20.4 1314.92 20.5C1315.14 20.5933 1315.37 20.6733 1315.63 20.74C1315.89 20.8067 1316.16 20.84 1316.43 20.84C1317.19 20.84 1317.57 20.5967 1317.57 20.11C1317.57 19.9567 1317.53 19.8267 1317.44 19.72C1317.36 19.6133 1317.23 19.52 1317.07 19.44C1316.91 19.36 1316.72 19.2867 1316.49 19.22C1316.27 19.1533 1316.01 19.08 1315.73 19C1315.39 18.9067 1315.1 18.8067 1314.84 18.7C1314.6 18.5867 1314.39 18.4567 1314.22 18.31C1314.06 18.1567 1313.93 17.9833 1313.84 17.79C1313.76 17.59 1313.72 17.3533 1313.72 17.08C1313.72 16.72 1313.79 16.4 1313.92 16.12C1314.06 15.84 1314.24 15.6067 1314.47 15.42C1314.71 15.2333 1314.99 15.0933 1315.3 15C1315.62 14.9 1315.95 14.85 1316.31 14.85C1316.81 14.85 1317.27 14.93 1317.69 15.09C1318.11 15.2433 1318.48 15.4267 1318.79 15.64L1318.18 16.76ZM1319.96 22V16.76H1321.3V22H1319.96ZM1319.96 16.03V14.7H1321.3V16.03H1319.96ZM1324.55 22.03C1324.2 22.03 1323.88 21.96 1323.59 21.82C1323.31 21.68 1323.06 21.49 1322.84 21.25C1322.64 21.0033 1322.48 20.72 1322.36 20.4C1322.25 20.08 1322.19 19.74 1322.19 19.38C1322.19 19 1322.25 18.6467 1322.37 18.32C1322.49 17.9933 1322.66 17.7067 1322.87 17.46C1323.09 17.2133 1323.34 17.02 1323.64 16.88C1323.94 16.74 1324.27 16.67 1324.63 16.67C1325.04 16.67 1325.4 16.7633 1325.7 16.95C1326.01 17.13 1326.26 17.3733 1326.46 17.68V16.76H1327.63V21.75C1327.63 22.1367 1327.56 22.4833 1327.41 22.79C1327.27 23.0967 1327.06 23.3567 1326.8 23.57C1326.55 23.7833 1326.24 23.9467 1325.88 24.06C1325.53 24.1733 1325.14 24.23 1324.72 24.23C1324.15 24.23 1323.67 24.1333 1323.27 23.94C1322.89 23.7533 1322.55 23.4867 1322.27 23.14L1323 22.43C1323.2 22.6767 1323.45 22.87 1323.75 23.01C1324.06 23.15 1324.38 23.22 1324.72 23.22C1324.93 23.22 1325.13 23.19 1325.31 23.13C1325.51 23.0767 1325.68 22.99 1325.82 22.87C1325.97 22.75 1326.08 22.5967 1326.16 22.41C1326.25 22.2233 1326.29 22.0033 1326.29 21.75V21.09C1326.12 21.39 1325.88 21.6233 1325.56 21.79C1325.25 21.95 1324.91 22.03 1324.55 22.03ZM1325 20.96C1325.15 20.96 1325.29 20.9367 1325.42 20.89C1325.56 20.8433 1325.68 20.78 1325.79 20.7C1325.91 20.62 1326.01 20.5267 1326.09 20.42C1326.18 20.3133 1326.25 20.2 1326.29 20.08V18.83C1326.17 18.5233 1325.98 18.2767 1325.72 18.09C1325.47 17.9033 1325.2 17.81 1324.92 17.81C1324.72 17.81 1324.53 17.8567 1324.36 17.95C1324.2 18.0367 1324.05 18.1567 1323.93 18.31C1323.81 18.4567 1323.72 18.6267 1323.65 18.82C1323.59 19.0133 1323.56 19.2133 1323.56 19.42C1323.56 19.6333 1323.6 19.8333 1323.67 20.02C1323.75 20.2067 1323.85 20.37 1323.97 20.51C1324.11 20.65 1324.26 20.76 1324.43 20.84C1324.61 20.92 1324.8 20.96 1325 20.96ZM1333.71 22H1332.37V19.06C1332.37 18.64 1332.3 18.3333 1332.15 18.14C1332.01 17.9467 1331.8 17.85 1331.54 17.85C1331.41 17.85 1331.27 17.8767 1331.13 17.93C1330.99 17.9833 1330.86 18.06 1330.73 18.16C1330.61 18.2533 1330.5 18.3667 1330.4 18.5C1330.3 18.6333 1330.23 18.78 1330.18 18.94V22H1328.84V16.76H1330.05V17.73C1330.25 17.3967 1330.53 17.1367 1330.89 16.95C1331.26 16.7633 1331.67 16.67 1332.13 16.67C1332.46 16.67 1332.73 16.73 1332.93 16.85C1333.14 16.97 1333.3 17.1267 1333.41 17.32C1333.53 17.5133 1333.6 17.7333 1333.64 17.98C1333.69 18.2267 1333.71 18.4767 1333.71 18.73V22ZM1336.48 22.1C1335.94 22.1 1335.53 21.9267 1335.25 21.58C1334.97 21.2333 1334.83 20.72 1334.83 20.04V16.76H1336.17V19.75C1336.17 20.5567 1336.46 20.96 1337.04 20.96C1337.3 20.96 1337.55 20.8833 1337.79 20.73C1338.03 20.57 1338.23 20.33 1338.39 20.01V16.76H1339.73V20.46C1339.73 20.6 1339.75 20.7 1339.8 20.76C1339.85 20.82 1339.93 20.8533 1340.05 20.86V22C1339.91 22.0267 1339.8 22.0433 1339.71 22.05C1339.62 22.0567 1339.54 22.06 1339.47 22.06C1339.23 22.06 1339.03 22.0067 1338.88 21.9C1338.73 21.7867 1338.64 21.6333 1338.62 21.44L1338.59 21.02C1338.35 21.38 1338.05 21.65 1337.69 21.83C1337.32 22.01 1336.92 22.1 1336.48 22.1ZM1344.2 22.1C1343.79 22.1 1343.43 22.01 1343.12 21.83C1342.81 21.6433 1342.57 21.3933 1342.4 21.08V24.13H1341.06V16.76H1342.23V17.66C1342.42 17.3533 1342.67 17.1133 1342.98 16.94C1343.29 16.76 1343.64 16.67 1344.04 16.67C1344.39 16.67 1344.72 16.7433 1345.02 16.89C1345.32 17.03 1345.58 17.2233 1345.79 17.47C1346.01 17.71 1346.18 17.9967 1346.3 18.33C1346.43 18.6567 1346.49 19.0033 1346.49 19.37C1346.49 19.75 1346.43 20.1067 1346.32 20.44C1346.21 20.7733 1346.05 21.0633 1345.84 21.31C1345.64 21.5567 1345.4 21.75 1345.12 21.89C1344.84 22.03 1344.53 22.1 1344.2 22.1ZM1343.75 20.96C1343.95 20.96 1344.13 20.9167 1344.3 20.83C1344.47 20.7433 1344.62 20.6267 1344.74 20.48C1344.86 20.3333 1344.95 20.1633 1345.02 19.97C1345.09 19.7767 1345.12 19.5767 1345.12 19.37C1345.12 19.15 1345.08 18.9467 1345.01 18.76C1344.94 18.5667 1344.83 18.4 1344.7 18.26C1344.57 18.12 1344.42 18.01 1344.24 17.93C1344.07 17.85 1343.88 17.81 1343.67 17.81C1343.54 17.81 1343.41 17.8333 1343.28 17.88C1343.15 17.92 1343.02 17.98 1342.91 18.06C1342.8 18.14 1342.69 18.2333 1342.6 18.34C1342.51 18.4467 1342.45 18.5633 1342.4 18.69V19.92C1342.52 20.22 1342.7 20.47 1342.95 20.67C1343.2 20.8633 1343.46 20.96 1343.75 20.96Z" fill="black"/>
<path d="M1220.93 22V14.9H1222.31V20.79H1225.93V22H1220.93ZM1228.85 22.1C1228.42 22.1 1228.04 22.0267 1227.7 21.88C1227.36 21.7333 1227.07 21.5367 1226.83 21.29C1226.6 21.0367 1226.42 20.7467 1226.29 20.42C1226.16 20.0933 1226.1 19.75 1226.1 19.39C1226.1 19.0233 1226.16 18.6767 1226.29 18.35C1226.42 18.0233 1226.6 17.7367 1226.83 17.49C1227.07 17.2367 1227.36 17.0367 1227.7 16.89C1228.04 16.7433 1228.42 16.67 1228.85 16.67C1229.28 16.67 1229.66 16.7433 1229.99 16.89C1230.33 17.0367 1230.62 17.2367 1230.85 17.49C1231.09 17.7367 1231.27 18.0233 1231.4 18.35C1231.53 18.6767 1231.59 19.0233 1231.59 19.39C1231.59 19.75 1231.53 20.0933 1231.4 20.42C1231.27 20.7467 1231.09 21.0367 1230.86 21.29C1230.63 21.5367 1230.34 21.7333 1230 21.88C1229.66 22.0267 1229.28 22.1 1228.85 22.1ZM1227.48 19.39C1227.48 19.6233 1227.51 19.8367 1227.58 20.03C1227.65 20.2167 1227.75 20.38 1227.87 20.52C1228 20.66 1228.14 20.77 1228.31 20.85C1228.48 20.9233 1228.66 20.96 1228.85 20.96C1229.04 20.96 1229.22 20.9233 1229.39 20.85C1229.56 20.77 1229.7 20.66 1229.82 20.52C1229.95 20.38 1230.04 20.2133 1230.11 20.02C1230.18 19.8267 1230.22 19.6133 1230.22 19.38C1230.22 19.1533 1230.18 18.9433 1230.11 18.75C1230.04 18.5567 1229.95 18.39 1229.82 18.25C1229.7 18.11 1229.56 18.0033 1229.39 17.93C1229.22 17.85 1229.04 17.81 1228.85 17.81C1228.66 17.81 1228.48 17.85 1228.31 17.93C1228.14 18.01 1228 18.12 1227.87 18.26C1227.75 18.4 1227.65 18.5667 1227.58 18.76C1227.51 18.9533 1227.48 19.1633 1227.48 19.39ZM1234.54 22.03C1234.19 22.03 1233.87 21.96 1233.58 21.82C1233.3 21.68 1233.05 21.49 1232.83 21.25C1232.63 21.0033 1232.47 20.72 1232.35 20.4C1232.24 20.08 1232.18 19.74 1232.18 19.38C1232.18 19 1232.24 18.6467 1232.36 18.32C1232.48 17.9933 1232.65 17.7067 1232.86 17.46C1233.08 17.2133 1233.33 17.02 1233.63 16.88C1233.93 16.74 1234.26 16.67 1234.62 16.67C1235.03 16.67 1235.39 16.7633 1235.69 16.95C1236 17.13 1236.25 17.3733 1236.45 17.68V16.76H1237.62V21.75C1237.62 22.1367 1237.55 22.4833 1237.4 22.79C1237.26 23.0967 1237.05 23.3567 1236.79 23.57C1236.54 23.7833 1236.23 23.9467 1235.87 24.06C1235.52 24.1733 1235.13 24.23 1234.71 24.23C1234.14 24.23 1233.66 24.1333 1233.26 23.94C1232.88 23.7533 1232.54 23.4867 1232.26 23.14L1232.99 22.43C1233.19 22.6767 1233.44 22.87 1233.74 23.01C1234.05 23.15 1234.37 23.22 1234.71 23.22C1234.92 23.22 1235.12 23.19 1235.3 23.13C1235.5 23.0767 1235.67 22.99 1235.81 22.87C1235.96 22.75 1236.07 22.5967 1236.15 22.41C1236.24 22.2233 1236.28 22.0033 1236.28 21.75V21.09C1236.11 21.39 1235.87 21.6233 1235.55 21.79C1235.24 21.95 1234.9 22.03 1234.54 22.03ZM1234.99 20.96C1235.14 20.96 1235.28 20.9367 1235.41 20.89C1235.55 20.8433 1235.67 20.78 1235.78 20.7C1235.9 20.62 1236 20.5267 1236.08 20.42C1236.17 20.3133 1236.24 20.2 1236.28 20.08V18.83C1236.16 18.5233 1235.97 18.2767 1235.71 18.09C1235.46 17.9033 1235.19 17.81 1234.91 17.81C1234.71 17.81 1234.52 17.8567 1234.35 17.95C1234.19 18.0367 1234.04 18.1567 1233.92 18.31C1233.8 18.4567 1233.71 18.6267 1233.64 18.82C1233.58 19.0133 1233.55 19.2133 1233.55 19.42C1233.55 19.6333 1233.59 19.8333 1233.66 20.02C1233.74 20.2067 1233.84 20.37 1233.96 20.51C1234.1 20.65 1234.25 20.76 1234.42 20.84C1234.6 20.92 1234.79 20.96 1234.99 20.96ZM1238.83 22V16.76H1240.17V22H1238.83ZM1238.83 16.03V14.7H1240.17V16.03H1238.83ZM1246.25 22H1244.91V19.06C1244.91 18.64 1244.84 18.3333 1244.69 18.14C1244.54 17.9467 1244.34 17.85 1244.08 17.85C1243.95 17.85 1243.81 17.8767 1243.67 17.93C1243.53 17.9833 1243.4 18.06 1243.27 18.16C1243.15 18.2533 1243.04 18.3667 1242.94 18.5C1242.84 18.6333 1242.77 18.78 1242.72 18.94V22H1241.38V16.76H1242.59V17.73C1242.78 17.3967 1243.06 17.1367 1243.43 16.95C1243.8 16.7633 1244.21 16.67 1244.67 16.67C1245 16.67 1245.26 16.73 1245.47 16.85C1245.68 16.97 1245.84 17.1267 1245.95 17.32C1246.06 17.5133 1246.14 17.7333 1246.18 17.98C1246.23 18.2267 1246.25 18.4767 1246.25 18.73V22Z" fill="white"/>
<rect x="1193.5" y="3.5" width="82" height="30" rx="15" stroke="white"/>
<path d="M259.445 24H260.836V19.6641H263.18C263.781 19.6641 264.32 19.5938 264.805 19.4531C265.289 19.3125 265.703 19.1016 266.062 18.8203C266.422 18.5391 266.695 18.1719 266.891 17.7188C267.078 17.2656 267.18 16.75 267.18 16.1562C267.18 15.6406 267.102 15.1797 266.961 14.7578C266.812 14.3359 266.594 13.9688 266.297 13.6484C266 13.3281 265.609 13.0781 265.125 12.8984C264.633 12.7266 264.062 12.6328 263.422 12.6328H259.445V24ZM260.836 18.3828V13.9141H263.273C264.039 13.9141 264.641 14.1094 265.078 14.4922C265.516 14.875 265.734 15.4219 265.734 16.125C265.734 16.4609 265.68 16.7656 265.578 17.0312C265.469 17.2969 265.312 17.5391 265.109 17.7422C264.898 17.9453 264.617 18.1094 264.273 18.2188C263.922 18.3281 263.516 18.3828 263.055 18.3828H260.836ZM275.852 19.9844C275.852 19.25 275.695 18.5859 275.398 18C275.102 17.4141 274.672 16.9531 274.125 16.6172C273.57 16.2891 272.938 16.1172 272.227 16.1172C271.703 16.1172 271.211 16.2188 270.758 16.4141C270.297 16.6172 269.898 16.8906 269.57 17.2344C269.242 17.5781 268.977 18 268.789 18.5C268.594 19 268.5 19.5312 268.5 20.1094C268.5 20.6953 268.594 21.2344 268.797 21.7344C268.992 22.2344 269.266 22.6562 269.609 23C269.953 23.3438 270.359 23.6172 270.836 23.8125C271.312 24.0078 271.828 24.1016 272.375 24.1016C273.055 24.1016 273.664 23.9766 274.195 23.7109C274.727 23.4453 275.172 23.0859 275.523 22.6328L274.617 21.8594C274.352 22.1797 274.039 22.4375 273.672 22.625C273.297 22.8125 272.883 22.9062 272.422 22.9062C271.719 22.9062 271.133 22.6953 270.664 22.2578C270.188 21.8203 269.906 21.2422 269.828 20.5156H275.812C275.836 20.3594 275.852 20.1875 275.852 19.9844ZM272.297 17.3125C272.906 17.3125 273.406 17.5078 273.805 17.8906C274.203 18.2812 274.453 18.7969 274.562 19.4375H269.859C269.977 18.7891 270.258 18.2734 270.703 17.8906C271.148 17.5078 271.68 17.3125 272.297 17.3125ZM281.672 16.1172C281.141 16.1172 280.664 16.25 280.227 16.5C279.789 16.75 279.43 17.1094 279.141 17.5703H279.109V16.2109H277.812V24H279.109V20.2422C279.109 19.7266 279.203 19.2578 279.391 18.8516C279.578 18.4453 279.852 18.125 280.211 17.8906C280.57 17.6562 280.992 17.5391 281.477 17.5391C281.633 17.5391 281.805 17.5469 281.992 17.5625V16.1328C281.93 16.125 281.82 16.1172 281.672 16.1172ZM285.906 24.1016C286.359 24.1016 286.766 24.0469 287.125 23.9297C287.484 23.8125 287.781 23.6484 288.008 23.4453C288.234 23.2422 288.406 23 288.523 22.7344C288.641 22.4688 288.703 22.1797 288.703 21.8672C288.703 21.5391 288.648 21.2578 288.547 21.0156C288.375 20.6328 288.023 20.3047 287.492 20.0391C287.32 19.9609 286.812 19.7578 285.984 19.4297C285.734 19.3359 285.539 19.2578 285.391 19.1875C285.234 19.1172 285.086 19.0312 284.938 18.9297C284.789 18.8359 284.68 18.7266 284.609 18.6016C284.539 18.4844 284.508 18.3516 284.508 18.2031C284.508 17.9375 284.625 17.7188 284.867 17.5469C285.109 17.375 285.391 17.2891 285.703 17.2891C286.453 17.2891 287.148 17.5625 287.773 18.1016L288.445 17.0781C287.664 16.4375 286.766 16.1172 285.766 16.1172C285.023 16.1172 284.406 16.3203 283.922 16.7188C283.43 17.1172 283.188 17.6094 283.188 18.2031C283.188 18.4844 283.227 18.7344 283.312 18.9609C283.398 19.1953 283.508 19.3828 283.641 19.5391C283.766 19.6953 283.945 19.8438 284.164 19.9844C284.383 20.125 284.586 20.2344 284.789 20.3203C284.992 20.4141 285.234 20.5078 285.531 20.6016C285.57 20.6172 285.633 20.6406 285.719 20.6641C285.883 20.7266 286.008 20.7734 286.086 20.8047C286.164 20.8359 286.273 20.875 286.406 20.9219C286.531 20.9688 286.633 21.0156 286.695 21.0469C286.758 21.0781 286.836 21.125 286.93 21.1719C287.023 21.2266 287.086 21.2734 287.133 21.3203C287.172 21.3672 287.219 21.4141 287.266 21.4766C287.312 21.5391 287.344 21.6016 287.359 21.6641C287.375 21.7344 287.383 21.8047 287.383 21.8828C287.383 22.1797 287.25 22.4297 286.984 22.625C286.719 22.8281 286.359 22.9219 285.906 22.9219C285.391 22.9219 284.945 22.8438 284.57 22.6875C284.195 22.5312 283.852 22.3047 283.523 21.9922L282.852 22.9766C283.695 23.7266 284.711 24.1016 285.906 24.1016ZM294.078 24.1016C294.836 24.1016 295.523 23.9375 296.133 23.6016C296.742 23.2734 297.219 22.7969 297.562 22.1875C297.906 21.5781 298.086 20.8906 298.086 20.1172C298.086 19.3438 297.906 18.6484 297.562 18.0391C297.219 17.4297 296.742 16.9531 296.133 16.6172C295.523 16.2891 294.836 16.1172 294.078 16.1172C293.484 16.1172 292.93 16.2266 292.43 16.4297C291.922 16.6328 291.492 16.9141 291.148 17.2734C290.805 17.6328 290.531 18.0547 290.336 18.5469C290.141 19.0391 290.047 19.5625 290.047 20.1172C290.047 20.6797 290.141 21.2031 290.336 21.6875C290.531 22.1719 290.805 22.5938 291.148 22.9531C291.492 23.3125 291.922 23.5938 292.43 23.7969C292.93 24 293.484 24.1016 294.078 24.1016ZM294.078 22.9062C293.547 22.9062 293.078 22.7812 292.664 22.5312C292.242 22.2812 291.922 21.9453 291.695 21.5234C291.469 21.1016 291.359 20.6328 291.359 20.1172C291.359 19.6016 291.469 19.1328 291.695 18.7031C291.914 18.2812 292.234 17.9375 292.656 17.6875C293.07 17.4375 293.547 17.3125 294.078 17.3125C294.578 17.3125 295.031 17.4297 295.438 17.6641C295.844 17.8984 296.172 18.2344 296.414 18.6641C296.648 19.0938 296.773 19.5781 296.773 20.1172C296.773 20.6562 296.648 21.1406 296.414 21.5625C296.172 21.9922 295.844 22.3203 295.438 22.5547C295.023 22.7891 294.57 22.9062 294.078 22.9062ZM304.227 16.1172C303.641 16.1172 303.102 16.2422 302.617 16.4922C302.125 16.7422 301.719 17.0938 301.398 17.5547H301.375V16.2109H300.078V24H301.375V20.1094C301.375 19.25 301.594 18.5625 302.039 18.0625C302.484 17.5625 303.078 17.3047 303.82 17.3047C304.117 17.3047 304.375 17.3516 304.602 17.4297C304.82 17.5156 305.023 17.6484 305.195 17.8359C305.367 18.0234 305.492 18.2812 305.586 18.5938C305.68 18.9141 305.727 19.2969 305.727 19.7422V24.0078H307.023V19.3828C307.023 18.3047 306.773 17.4844 306.273 16.9375C305.773 16.3906 305.094 16.1172 304.227 16.1172ZM315.406 16.2109V17.3672H315.375C315.047 16.9609 314.656 16.6562 314.195 16.4375C313.734 16.2266 313.234 16.1172 312.703 16.1172C311.977 16.1172 311.32 16.2969 310.742 16.6484C310.156 17 309.703 17.4844 309.375 18.0938C309.047 18.7109 308.891 19.3984 308.891 20.1562C308.891 20.7422 308.984 21.2812 309.188 21.7734C309.383 22.2734 309.648 22.6875 309.992 23.0234C310.336 23.3672 310.742 23.6328 311.211 23.8203C311.68 24.0078 312.18 24.1016 312.711 24.1016C313.273 24.1016 313.789 23.9844 314.258 23.75C314.727 23.5156 315.117 23.1875 315.438 22.7656H315.461V24H316.703V16.2109H315.406ZM312.836 22.9141C312.055 22.9141 311.422 22.6562 310.938 22.1406C310.453 21.625 310.211 20.9609 310.211 20.1641C310.211 19.3125 310.461 18.625 310.961 18.0938C311.461 17.5703 312.094 17.3047 312.852 17.3047C313.211 17.3047 313.555 17.3828 313.883 17.5312C314.203 17.6797 314.477 17.8828 314.711 18.1328C314.938 18.3906 315.117 18.6953 315.25 19.0469C315.383 19.3984 315.453 19.7734 315.453 20.1641C315.453 20.5703 315.383 20.9453 315.242 21.2891C315.102 21.6328 314.906 21.9297 314.672 22.1641C314.43 22.3984 314.148 22.5859 313.836 22.7188C313.516 22.8516 313.18 22.9141 312.836 22.9141ZM319.211 24H320.5V12.2188H319.211V24Z" fill="white"/>
<path d="M369.008 18.0234V18C369.602 17.7969 370.047 17.4609 370.359 16.9922C370.664 16.5234 370.82 16 370.82 15.4062C370.82 14.9375 370.734 14.5234 370.562 14.1641C370.391 13.8047 370.141 13.5156 369.82 13.2969C369.492 13.0781 369.109 12.9062 368.664 12.7969C368.219 12.6875 367.719 12.6328 367.156 12.6328H363.445V24H367.586C368.211 24 368.773 23.9297 369.258 23.7734C369.742 23.625 370.141 23.4141 370.453 23.1406C370.758 22.8672 370.992 22.5469 371.148 22.1719C371.305 21.7969 371.383 21.3828 371.383 20.9219C371.383 20.5156 371.32 20.1484 371.195 19.8125C371.07 19.4766 370.898 19.1875 370.68 18.9531C370.461 18.7188 370.211 18.5156 369.93 18.3594C369.648 18.2031 369.336 18.0938 369.008 18.0234ZM364.836 13.9141H366.867C367.305 13.9141 367.688 13.9609 368.016 14.0391C368.344 14.125 368.602 14.2422 368.805 14.3984C369 14.5547 369.148 14.7422 369.242 14.9531C369.336 15.1641 369.391 15.4062 369.391 15.6797C369.391 15.9453 369.344 16.1797 369.258 16.3906C369.172 16.6094 369.055 16.7812 368.914 16.9141C368.766 17.0547 368.594 17.1641 368.398 17.2578C368.203 17.3516 368 17.4219 367.789 17.4609C367.578 17.5 367.359 17.5156 367.141 17.5156H364.836V13.9141ZM367.195 22.7188H364.836V18.7656H367.258C367.828 18.7656 368.312 18.8516 368.719 19.0156C369.117 19.1797 369.414 19.4141 369.617 19.7109C369.82 20.0156 369.922 20.375 369.922 20.7969C369.922 21.4297 369.672 21.9062 369.188 22.2344C368.695 22.5625 368.031 22.7188 367.195 22.7188ZM378.734 16.2109V19.9844C378.734 20.4375 378.672 20.8438 378.547 21.2188C378.422 21.5938 378.25 21.9062 378.039 22.1484C377.828 22.3906 377.586 22.5781 377.305 22.7109C377.023 22.8438 376.734 22.9062 376.422 22.9062C375.781 22.9062 375.305 22.7188 374.992 22.3438C374.68 21.9688 374.523 21.3438 374.523 20.4766V16.2109H373.227V20.8516C373.227 21.9375 373.477 22.75 373.992 23.2891C374.508 23.8359 375.227 24.1016 376.148 24.1016C376.648 24.1016 377.125 23.9844 377.578 23.7422C378.023 23.5078 378.398 23.1641 378.711 22.7109H378.734V24H380.031V16.2109H378.734ZM384.797 24.1016C385.25 24.1016 385.656 24.0469 386.016 23.9297C386.375 23.8125 386.672 23.6484 386.898 23.4453C387.125 23.2422 387.297 23 387.414 22.7344C387.531 22.4688 387.594 22.1797 387.594 21.8672C387.594 21.5391 387.539 21.2578 387.438 21.0156C387.266 20.6328 386.914 20.3047 386.383 20.0391C386.211 19.9609 385.703 19.7578 384.875 19.4297C384.625 19.3359 384.43 19.2578 384.281 19.1875C384.125 19.1172 383.977 19.0312 383.828 18.9297C383.68 18.8359 383.57 18.7266 383.5 18.6016C383.43 18.4844 383.398 18.3516 383.398 18.2031C383.398 17.9375 383.516 17.7188 383.758 17.5469C384 17.375 384.281 17.2891 384.594 17.2891C385.344 17.2891 386.039 17.5625 386.664 18.1016L387.336 17.0781C386.555 16.4375 385.656 16.1172 384.656 16.1172C383.914 16.1172 383.297 16.3203 382.812 16.7188C382.32 17.1172 382.078 17.6094 382.078 18.2031C382.078 18.4844 382.117 18.7344 382.203 18.9609C382.289 19.1953 382.398 19.3828 382.531 19.5391C382.656 19.6953 382.836 19.8438 383.055 19.9844C383.273 20.125 383.477 20.2344 383.68 20.3203C383.883 20.4141 384.125 20.5078 384.422 20.6016C384.461 20.6172 384.523 20.6406 384.609 20.6641C384.773 20.7266 384.898 20.7734 384.977 20.8047C385.055 20.8359 385.164 20.875 385.297 20.9219C385.422 20.9688 385.523 21.0156 385.586 21.0469C385.648 21.0781 385.727 21.125 385.82 21.1719C385.914 21.2266 385.977 21.2734 386.023 21.3203C386.062 21.3672 386.109 21.4141 386.156 21.4766C386.203 21.5391 386.234 21.6016 386.25 21.6641C386.266 21.7344 386.273 21.8047 386.273 21.8828C386.273 22.1797 386.141 22.4297 385.875 22.625C385.609 22.8281 385.25 22.9219 384.797 22.9219C384.281 22.9219 383.836 22.8438 383.461 22.6875C383.086 22.5312 382.742 22.3047 382.414 21.9922L381.742 22.9766C382.586 23.7266 383.602 24.1016 384.797 24.1016ZM390.258 14.7656C390.508 14.7656 390.727 14.6797 390.906 14.5C391.086 14.3281 391.18 14.1094 391.18 13.8594C391.18 13.6953 391.133 13.5391 391.055 13.3984C390.969 13.2578 390.859 13.1484 390.719 13.0703C390.578 12.9922 390.422 12.9453 390.258 12.9453C389.992 12.9453 389.773 13.0391 389.602 13.2109C389.422 13.3906 389.336 13.6094 389.336 13.8594C389.336 14.1094 389.422 14.3281 389.602 14.5C389.773 14.6797 389.992 14.7656 390.258 14.7656ZM389.602 24H390.891V16.2109H389.602V24ZM397.633 16.1172C397.047 16.1172 396.508 16.2422 396.023 16.4922C395.531 16.7422 395.125 17.0938 394.805 17.5547H394.781V16.2109H393.484V24H394.781V20.1094C394.781 19.25 395 18.5625 395.445 18.0625C395.891 17.5625 396.484 17.3047 397.227 17.3047C397.523 17.3047 397.781 17.3516 398.008 17.4297C398.227 17.5156 398.43 17.6484 398.602 17.8359C398.773 18.0234 398.898 18.2812 398.992 18.5938C399.086 18.9141 399.133 19.2969 399.133 19.7422V24.0078H400.43V19.3828C400.43 18.3047 400.18 17.4844 399.68 16.9375C399.18 16.3906 398.5 16.1172 397.633 16.1172ZM409.633 19.9844C409.633 19.25 409.477 18.5859 409.18 18C408.883 17.4141 408.453 16.9531 407.906 16.6172C407.352 16.2891 406.719 16.1172 406.008 16.1172C405.484 16.1172 404.992 16.2188 404.539 16.4141C404.078 16.6172 403.68 16.8906 403.352 17.2344C403.023 17.5781 402.758 18 402.57 18.5C402.375 19 402.281 19.5312 402.281 20.1094C402.281 20.6953 402.375 21.2344 402.578 21.7344C402.773 22.2344 403.047 22.6562 403.391 23C403.734 23.3438 404.141 23.6172 404.617 23.8125C405.094 24.0078 405.609 24.1016 406.156 24.1016C406.836 24.1016 407.445 23.9766 407.977 23.7109C408.508 23.4453 408.953 23.0859 409.305 22.6328L408.398 21.8594C408.133 22.1797 407.82 22.4375 407.453 22.625C407.078 22.8125 406.664 22.9062 406.203 22.9062C405.5 22.9062 404.914 22.6953 404.445 22.2578C403.969 21.8203 403.688 21.2422 403.609 20.5156H409.594C409.617 20.3594 409.633 20.1875 409.633 19.9844ZM406.078 17.3125C406.688 17.3125 407.188 17.5078 407.586 17.8906C407.984 18.2812 408.234 18.7969 408.344 19.4375H403.641C403.758 18.7891 404.039 18.2734 404.484 17.8906C404.93 17.5078 405.461 17.3125 406.078 17.3125ZM413.969 24.1016C414.422 24.1016 414.828 24.0469 415.188 23.9297C415.547 23.8125 415.844 23.6484 416.07 23.4453C416.297 23.2422 416.469 23 416.586 22.7344C416.703 22.4688 416.766 22.1797 416.766 21.8672C416.766 21.5391 416.711 21.2578 416.609 21.0156C416.438 20.6328 416.086 20.3047 415.555 20.0391C415.383 19.9609 414.875 19.7578 414.047 19.4297C413.797 19.3359 413.602 19.2578 413.453 19.1875C413.297 19.1172 413.148 19.0312 413 18.9297C412.852 18.8359 412.742 18.7266 412.672 18.6016C412.602 18.4844 412.57 18.3516 412.57 18.2031C412.57 17.9375 412.688 17.7188 412.93 17.5469C413.172 17.375 413.453 17.2891 413.766 17.2891C414.516 17.2891 415.211 17.5625 415.836 18.1016L416.508 17.0781C415.727 16.4375 414.828 16.1172 413.828 16.1172C413.086 16.1172 412.469 16.3203 411.984 16.7188C411.492 17.1172 411.25 17.6094 411.25 18.2031C411.25 18.4844 411.289 18.7344 411.375 18.9609C411.461 19.1953 411.57 19.3828 411.703 19.5391C411.828 19.6953 412.008 19.8438 412.227 19.9844C412.445 20.125 412.648 20.2344 412.852 20.3203C413.055 20.4141 413.297 20.5078 413.594 20.6016C413.633 20.6172 413.695 20.6406 413.781 20.6641C413.945 20.7266 414.07 20.7734 414.148 20.8047C414.227 20.8359 414.336 20.875 414.469 20.9219C414.594 20.9688 414.695 21.0156 414.758 21.0469C414.82 21.0781 414.898 21.125 414.992 21.1719C415.086 21.2266 415.148 21.2734 415.195 21.3203C415.234 21.3672 415.281 21.4141 415.328 21.4766C415.375 21.5391 415.406 21.6016 415.422 21.6641C415.438 21.7344 415.445 21.8047 415.445 21.8828C415.445 22.1797 415.312 22.4297 415.047 22.625C414.781 22.8281 414.422 22.9219 413.969 22.9219C413.453 22.9219 413.008 22.8438 412.633 22.6875C412.258 22.5312 411.914 22.3047 411.586 21.9922L410.914 22.9766C411.758 23.7266 412.773 24.1016 413.969 24.1016ZM421.031 24.1016C421.484 24.1016 421.891 24.0469 422.25 23.9297C422.609 23.8125 422.906 23.6484 423.133 23.4453C423.359 23.2422 423.531 23 423.648 22.7344C423.766 22.4688 423.828 22.1797 423.828 21.8672C423.828 21.5391 423.773 21.2578 423.672 21.0156C423.5 20.6328 423.148 20.3047 422.617 20.0391C422.445 19.9609 421.938 19.7578 421.109 19.4297C420.859 19.3359 420.664 19.2578 420.516 19.1875C420.359 19.1172 420.211 19.0312 420.062 18.9297C419.914 18.8359 419.805 18.7266 419.734 18.6016C419.664 18.4844 419.633 18.3516 419.633 18.2031C419.633 17.9375 419.75 17.7188 419.992 17.5469C420.234 17.375 420.516 17.2891 420.828 17.2891C421.578 17.2891 422.273 17.5625 422.898 18.1016L423.57 17.0781C422.789 16.4375 421.891 16.1172 420.891 16.1172C420.148 16.1172 419.531 16.3203 419.047 16.7188C418.555 17.1172 418.312 17.6094 418.312 18.2031C418.312 18.4844 418.352 18.7344 418.438 18.9609C418.523 19.1953 418.633 19.3828 418.766 19.5391C418.891 19.6953 419.07 19.8438 419.289 19.9844C419.508 20.125 419.711 20.2344 419.914 20.3203C420.117 20.4141 420.359 20.5078 420.656 20.6016C420.695 20.6172 420.758 20.6406 420.844 20.6641C421.008 20.7266 421.133 20.7734 421.211 20.8047C421.289 20.8359 421.398 20.875 421.531 20.9219C421.656 20.9688 421.758 21.0156 421.82 21.0469C421.883 21.0781 421.961 21.125 422.055 21.1719C422.148 21.2266 422.211 21.2734 422.258 21.3203C422.297 21.3672 422.344 21.4141 422.391 21.4766C422.438 21.5391 422.469 21.6016 422.484 21.6641C422.5 21.7344 422.508 21.8047 422.508 21.8828C422.508 22.1797 422.375 22.4297 422.109 22.625C421.844 22.8281 421.484 22.9219 421.031 22.9219C420.516 22.9219 420.07 22.8438 419.695 22.6875C419.32 22.5312 418.977 22.3047 418.648 21.9922L417.977 22.9766C418.82 23.7266 419.836 24.1016 421.031 24.1016Z" fill="white"/>
<path d="M466.445 24H467.836V19.6641H470.18C470.781 19.6641 471.32 19.5938 471.805 19.4531C472.289 19.3125 472.703 19.1016 473.062 18.8203C473.422 18.5391 473.695 18.1719 473.891 17.7188C474.078 17.2656 474.18 16.75 474.18 16.1562C474.18 15.6406 474.102 15.1797 473.961 14.7578C473.812 14.3359 473.594 13.9688 473.297 13.6484C473 13.3281 472.609 13.0781 472.125 12.8984C471.633 12.7266 471.062 12.6328 470.422 12.6328H466.445V24ZM467.836 18.3828V13.9141H470.273C471.039 13.9141 471.641 14.1094 472.078 14.4922C472.516 14.875 472.734 15.4219 472.734 16.125C472.734 16.4609 472.68 16.7656 472.578 17.0312C472.469 17.2969 472.312 17.5391 472.109 17.7422C471.898 17.9453 471.617 18.1094 471.273 18.2188C470.922 18.3281 470.516 18.3828 470.055 18.3828H467.836ZM482.031 16.2109V17.3672H482C481.672 16.9609 481.281 16.6562 480.82 16.4375C480.359 16.2266 479.859 16.1172 479.328 16.1172C478.602 16.1172 477.945 16.2969 477.367 16.6484C476.781 17 476.328 17.4844 476 18.0938C475.672 18.7109 475.516 19.3984 475.516 20.1562C475.516 20.7422 475.609 21.2812 475.812 21.7734C476.008 22.2734 476.273 22.6875 476.617 23.0234C476.961 23.3672 477.367 23.6328 477.836 23.8203C478.305 24.0078 478.805 24.1016 479.336 24.1016C479.898 24.1016 480.414 23.9844 480.883 23.75C481.352 23.5156 481.742 23.1875 482.062 22.7656H482.086V24H483.328V16.2109H482.031ZM479.461 22.9141C478.68 22.9141 478.047 22.6562 477.562 22.1406C477.078 21.625 476.836 20.9609 476.836 20.1641C476.836 19.3125 477.086 18.625 477.586 18.0938C478.086 17.5703 478.719 17.3047 479.477 17.3047C479.836 17.3047 480.18 17.3828 480.508 17.5312C480.828 17.6797 481.102 17.8828 481.336 18.1328C481.562 18.3906 481.742 18.6953 481.875 19.0469C482.008 19.3984 482.078 19.7734 482.078 20.1641C482.078 20.5703 482.008 20.9453 481.867 21.2891C481.727 21.6328 481.531 21.9297 481.297 22.1641C481.055 22.3984 480.773 22.5859 480.461 22.7188C480.141 22.8516 479.805 22.9141 479.461 22.9141ZM489.578 16.1172C489.047 16.1172 488.57 16.25 488.133 16.5C487.695 16.75 487.336 17.1094 487.047 17.5703H487.016V16.2109H485.719V24H487.016V20.2422C487.016 19.7266 487.109 19.2578 487.297 18.8516C487.484 18.4453 487.758 18.125 488.117 17.8906C488.477 17.6562 488.898 17.5391 489.383 17.5391C489.539 17.5391 489.711 17.5469 489.898 17.5625V16.1328C489.836 16.125 489.727 16.1172 489.578 16.1172ZM493.641 24.1016C493.922 24.1016 494.195 24.0781 494.445 24.0312C494.695 23.9844 494.891 23.9219 495.047 23.8594C495.195 23.7969 495.352 23.7109 495.523 23.6172L495.18 22.4844C494.711 22.75 494.273 22.8828 493.867 22.8828C493.508 22.8828 493.266 22.7734 493.125 22.5547C492.984 22.3359 492.914 21.9766 492.914 21.4844V17.3359H495.492V16.2109H492.914V13.4062L491.617 13.5469V16.2109H490.625V17.3359H491.617V21.6797C491.617 23.2969 492.289 24.1016 493.641 24.1016ZM501.414 16.1172C500.828 16.1172 500.289 16.2422 499.805 16.4922C499.312 16.7422 498.906 17.0938 498.586 17.5547H498.562V16.2109H497.266V24H498.562V20.1094C498.562 19.25 498.781 18.5625 499.227 18.0625C499.672 17.5625 500.266 17.3047 501.008 17.3047C501.305 17.3047 501.562 17.3516 501.789 17.4297C502.008 17.5156 502.211 17.6484 502.383 17.8359C502.555 18.0234 502.68 18.2812 502.773 18.5938C502.867 18.9141 502.914 19.2969 502.914 19.7422V24.0078H504.211V19.3828C504.211 18.3047 503.961 17.4844 503.461 16.9375C502.961 16.3906 502.281 16.1172 501.414 16.1172ZM513.414 19.9844C513.414 19.25 513.258 18.5859 512.961 18C512.664 17.4141 512.234 16.9531 511.688 16.6172C511.133 16.2891 510.5 16.1172 509.789 16.1172C509.266 16.1172 508.773 16.2188 508.32 16.4141C507.859 16.6172 507.461 16.8906 507.133 17.2344C506.805 17.5781 506.539 18 506.352 18.5C506.156 19 506.062 19.5312 506.062 20.1094C506.062 20.6953 506.156 21.2344 506.359 21.7344C506.555 22.2344 506.828 22.6562 507.172 23C507.516 23.3438 507.922 23.6172 508.398 23.8125C508.875 24.0078 509.391 24.1016 509.938 24.1016C510.617 24.1016 511.227 23.9766 511.758 23.7109C512.289 23.4453 512.734 23.0859 513.086 22.6328L512.18 21.8594C511.914 22.1797 511.602 22.4375 511.234 22.625C510.859 22.8125 510.445 22.9062 509.984 22.9062C509.281 22.9062 508.695 22.6953 508.227 22.2578C507.75 21.8203 507.469 21.2422 507.391 20.5156H513.375C513.398 20.3594 513.414 20.1875 513.414 19.9844ZM509.859 17.3125C510.469 17.3125 510.969 17.5078 511.367 17.8906C511.766 18.2812 512.016 18.7969 512.125 19.4375H507.422C507.539 18.7891 507.82 18.2734 508.266 17.8906C508.711 17.5078 509.242 17.3125 509.859 17.3125ZM519.234 16.1172C518.703 16.1172 518.227 16.25 517.789 16.5C517.352 16.75 516.992 17.1094 516.703 17.5703H516.672V16.2109H515.375V24H516.672V20.2422C516.672 19.7266 516.766 19.2578 516.953 18.8516C517.141 18.4453 517.414 18.125 517.773 17.8906C518.133 17.6562 518.555 17.5391 519.039 17.5391C519.195 17.5391 519.367 17.5469 519.555 17.5625V16.1328C519.492 16.125 519.383 16.1172 519.234 16.1172ZM523.469 24.1016C523.922 24.1016 524.328 24.0469 524.688 23.9297C525.047 23.8125 525.344 23.6484 525.57 23.4453C525.797 23.2422 525.969 23 526.086 22.7344C526.203 22.4688 526.266 22.1797 526.266 21.8672C526.266 21.5391 526.211 21.2578 526.109 21.0156C525.938 20.6328 525.586 20.3047 525.055 20.0391C524.883 19.9609 524.375 19.7578 523.547 19.4297C523.297 19.3359 523.102 19.2578 522.953 19.1875C522.797 19.1172 522.648 19.0312 522.5 18.9297C522.352 18.8359 522.242 18.7266 522.172 18.6016C522.102 18.4844 522.07 18.3516 522.07 18.2031C522.07 17.9375 522.188 17.7188 522.43 17.5469C522.672 17.375 522.953 17.2891 523.266 17.2891C524.016 17.2891 524.711 17.5625 525.336 18.1016L526.008 17.0781C525.227 16.4375 524.328 16.1172 523.328 16.1172C522.586 16.1172 521.969 16.3203 521.484 16.7188C520.992 17.1172 520.75 17.6094 520.75 18.2031C520.75 18.4844 520.789 18.7344 520.875 18.9609C520.961 19.1953 521.07 19.3828 521.203 19.5391C521.328 19.6953 521.508 19.8438 521.727 19.9844C521.945 20.125 522.148 20.2344 522.352 20.3203C522.555 20.4141 522.797 20.5078 523.094 20.6016C523.133 20.6172 523.195 20.6406 523.281 20.6641C523.445 20.7266 523.57 20.7734 523.648 20.8047C523.727 20.8359 523.836 20.875 523.969 20.9219C524.094 20.9688 524.195 21.0156 524.258 21.0469C524.32 21.0781 524.398 21.125 524.492 21.1719C524.586 21.2266 524.648 21.2734 524.695 21.3203C524.734 21.3672 524.781 21.4141 524.828 21.4766C524.875 21.5391 524.906 21.6016 524.922 21.6641C524.938 21.7344 524.945 21.8047 524.945 21.8828C524.945 22.1797 524.812 22.4297 524.547 22.625C524.281 22.8281 523.922 22.9219 523.469 22.9219C522.953 22.9219 522.508 22.8438 522.133 22.6875C521.758 22.5312 521.414 22.3047 521.086 21.9922L520.414 22.9766C521.258 23.7266 522.273 24.1016 523.469 24.1016ZM538.609 16.2109V17.3672H538.578C538.25 16.9609 537.859 16.6562 537.398 16.4375C536.938 16.2266 536.438 16.1172 535.906 16.1172C535.18 16.1172 534.523 16.2969 533.945 16.6484C533.359 17 532.906 17.4844 532.578 18.0938C532.25 18.7109 532.094 19.3984 532.094 20.1562C532.094 20.7422 532.188 21.2812 532.391 21.7734C532.586 22.2734 532.852 22.6875 533.195 23.0234C533.539 23.3672 533.945 23.6328 534.414 23.8203C534.883 24.0078 535.383 24.1016 535.914 24.1016C536.477 24.1016 536.992 23.9844 537.461 23.75C537.93 23.5156 538.32 23.1875 538.641 22.7656H538.664V24H539.906V16.2109H538.609ZM536.039 22.9141C535.258 22.9141 534.625 22.6562 534.141 22.1406C533.656 21.625 533.414 20.9609 533.414 20.1641C533.414 19.3125 533.664 18.625 534.164 18.0938C534.664 17.5703 535.297 17.3047 536.055 17.3047C536.414 17.3047 536.758 17.3828 537.086 17.5312C537.406 17.6797 537.68 17.8828 537.914 18.1328C538.141 18.3906 538.32 18.6953 538.453 19.0469C538.586 19.3984 538.656 19.7734 538.656 20.1641C538.656 20.5703 538.586 20.9453 538.445 21.2891C538.305 21.6328 538.109 21.9297 537.875 22.1641C537.633 22.3984 537.352 22.5859 537.039 22.7188C536.719 22.8516 536.383 22.9141 536.039 22.9141ZM546.445 16.1172C545.859 16.1172 545.32 16.2422 544.836 16.4922C544.344 16.7422 543.938 17.0938 543.617 17.5547H543.594V16.2109H542.297V24H543.594V20.1094C543.594 19.25 543.812 18.5625 544.258 18.0625C544.703 17.5625 545.297 17.3047 546.039 17.3047C546.336 17.3047 546.594 17.3516 546.82 17.4297C547.039 17.5156 547.242 17.6484 547.414 17.8359C547.586 18.0234 547.711 18.2812 547.805 18.5938C547.898 18.9141 547.945 19.2969 547.945 19.7422V24.0078H549.242V19.3828C549.242 18.3047 548.992 17.4844 548.492 16.9375C547.992 16.3906 547.312 16.1172 546.445 16.1172ZM557.578 12.2188V17.3672H557.555C557.336 17.1016 557.094 16.8672 556.812 16.6797C556.531 16.4922 556.234 16.3516 555.914 16.2578C555.586 16.1641 555.25 16.1172 554.906 16.1172C554.359 16.1172 553.852 16.2266 553.383 16.4297C552.906 16.6328 552.5 16.9141 552.172 17.2734C551.836 17.6328 551.57 18.0547 551.383 18.5547C551.188 19.0547 551.094 19.5938 551.094 20.1562C551.094 20.7422 551.188 21.2812 551.391 21.7734C551.586 22.2734 551.852 22.6875 552.195 23.0234C552.539 23.3672 552.945 23.6328 553.414 23.8203C553.883 24.0078 554.383 24.1016 554.914 24.1016C555.289 24.1016 555.641 24.0547 555.977 23.9453C556.312 23.8359 556.617 23.6875 556.891 23.4844C557.156 23.2891 557.398 23.0469 557.609 22.7656H557.633V24H558.875V12.2188H557.578ZM555.039 22.9141C554.258 22.9141 553.625 22.6562 553.141 22.1406C552.656 21.625 552.414 20.9609 552.414 20.1641C552.414 19.3125 552.664 18.625 553.164 18.0938C553.664 17.5703 554.297 17.3047 555.055 17.3047C555.414 17.3047 555.75 17.3828 556.07 17.5312C556.383 17.6797 556.656 17.8828 556.883 18.1328C557.109 18.3906 557.289 18.6953 557.422 19.0469C557.555 19.3984 557.625 19.7734 557.625 20.1641C557.625 20.5703 557.555 20.9453 557.414 21.2891C557.273 21.6328 557.078 21.9297 556.844 22.1641C556.609 22.3984 556.328 22.5859 556.016 22.7188C555.703 22.8516 555.375 22.9141 555.039 22.9141ZM571.766 12.2188V17.3672H571.742C571.523 17.1016 571.281 16.8672 571 16.6797C570.719 16.4922 570.422 16.3516 570.102 16.2578C569.773 16.1641 569.438 16.1172 569.094 16.1172C568.547 16.1172 568.039 16.2266 567.57 16.4297C567.094 16.6328 566.688 16.9141 566.359 17.2734C566.023 17.6328 565.758 18.0547 565.57 18.5547C565.375 19.0547 565.281 19.5938 565.281 20.1562C565.281 20.7422 565.375 21.2812 565.578 21.7734C565.773 22.2734 566.039 22.6875 566.383 23.0234C566.727 23.3672 567.133 23.6328 567.602 23.8203C568.07 24.0078 568.57 24.1016 569.102 24.1016C569.477 24.1016 569.828 24.0547 570.164 23.9453C570.5 23.8359 570.805 23.6875 571.078 23.4844C571.344 23.2891 571.586 23.0469 571.797 22.7656H571.82V24H573.062V12.2188H571.766ZM569.227 22.9141C568.445 22.9141 567.812 22.6562 567.328 22.1406C566.844 21.625 566.602 20.9609 566.602 20.1641C566.602 19.3125 566.852 18.625 567.352 18.0938C567.852 17.5703 568.484 17.3047 569.242 17.3047C569.602 17.3047 569.938 17.3828 570.258 17.5312C570.57 17.6797 570.844 17.8828 571.07 18.1328C571.297 18.3906 571.477 18.6953 571.609 19.0469C571.742 19.3984 571.812 19.7734 571.812 20.1641C571.812 20.5703 571.742 20.9453 571.602 21.2891C571.461 21.6328 571.266 21.9297 571.031 22.1641C570.797 22.3984 570.516 22.5859 570.203 22.7188C569.891 22.8516 569.562 22.9141 569.227 22.9141ZM582.414 19.9844C582.414 19.25 582.258 18.5859 581.961 18C581.664 17.4141 581.234 16.9531 580.688 16.6172C580.133 16.2891 579.5 16.1172 578.789 16.1172C578.266 16.1172 577.773 16.2188 577.32 16.4141C576.859 16.6172 576.461 16.8906 576.133 17.2344C575.805 17.5781 575.539 18 575.352 18.5C575.156 19 575.062 19.5312 575.062 20.1094C575.062 20.6953 575.156 21.2344 575.359 21.7344C575.555 22.2344 575.828 22.6562 576.172 23C576.516 23.3438 576.922 23.6172 577.398 23.8125C577.875 24.0078 578.391 24.1016 578.938 24.1016C579.617 24.1016 580.227 23.9766 580.758 23.7109C581.289 23.4453 581.734 23.0859 582.086 22.6328L581.18 21.8594C580.914 22.1797 580.602 22.4375 580.234 22.625C579.859 22.8125 579.445 22.9062 578.984 22.9062C578.281 22.9062 577.695 22.6953 577.227 22.2578C576.75 21.8203 576.469 21.2422 576.391 20.5156H582.375C582.398 20.3594 582.414 20.1875 582.414 19.9844ZM578.859 17.3125C579.469 17.3125 579.969 17.5078 580.367 17.8906C580.766 18.2812 581.016 18.7969 581.125 19.4375H576.422C576.539 18.7891 576.82 18.2734 577.266 17.8906C577.711 17.5078 578.242 17.3125 578.859 17.3125ZM589.367 16.2109L587.016 22.3516H586.977L584.578 16.2109H583.188L586.367 24H587.609L590.773 16.2109H589.367ZM598.836 19.9844C598.836 19.25 598.68 18.5859 598.383 18C598.086 17.4141 597.656 16.9531 597.109 16.6172C596.555 16.2891 595.922 16.1172 595.211 16.1172C594.688 16.1172 594.195 16.2188 593.742 16.4141C593.281 16.6172 592.883 16.8906 592.555 17.2344C592.227 17.5781 591.961 18 591.773 18.5C591.578 19 591.484 19.5312 591.484 20.1094C591.484 20.6953 591.578 21.2344 591.781 21.7344C591.977 22.2344 592.25 22.6562 592.594 23C592.938 23.3438 593.344 23.6172 593.82 23.8125C594.297 24.0078 594.812 24.1016 595.359 24.1016C596.039 24.1016 596.648 23.9766 597.18 23.7109C597.711 23.4453 598.156 23.0859 598.508 22.6328L597.602 21.8594C597.336 22.1797 597.023 22.4375 596.656 22.625C596.281 22.8125 595.867 22.9062 595.406 22.9062C594.703 22.9062 594.117 22.6953 593.648 22.2578C593.172 21.8203 592.891 21.2422 592.812 20.5156H598.797C598.82 20.3594 598.836 20.1875 598.836 19.9844ZM595.281 17.3125C595.891 17.3125 596.391 17.5078 596.789 17.8906C597.188 18.2812 597.438 18.7969 597.547 19.4375H592.844C592.961 18.7891 593.242 18.2734 593.688 17.8906C594.133 17.5078 594.664 17.3125 595.281 17.3125ZM600.914 24H602.203V12.2188H600.914V24ZM608.344 24.1016C609.102 24.1016 609.789 23.9375 610.398 23.6016C611.008 23.2734 611.484 22.7969 611.828 22.1875C612.172 21.5781 612.352 20.8906 612.352 20.1172C612.352 19.3438 612.172 18.6484 611.828 18.0391C611.484 17.4297 611.008 16.9531 610.398 16.6172C609.789 16.2891 609.102 16.1172 608.344 16.1172C607.75 16.1172 607.195 16.2266 606.695 16.4297C606.188 16.6328 605.758 16.9141 605.414 17.2734C605.07 17.6328 604.797 18.0547 604.602 18.5469C604.406 19.0391 604.312 19.5625 604.312 20.1172C604.312 20.6797 604.406 21.2031 604.602 21.6875C604.797 22.1719 605.07 22.5938 605.414 22.9531C605.758 23.3125 606.188 23.5938 606.695 23.7969C607.195 24 607.75 24.1016 608.344 24.1016ZM608.344 22.9062C607.812 22.9062 607.344 22.7812 606.93 22.5312C606.508 22.2812 606.188 21.9453 605.961 21.5234C605.734 21.1016 605.625 20.6328 605.625 20.1172C605.625 19.6016 605.734 19.1328 605.961 18.7031C606.18 18.2812 606.5 17.9375 606.922 17.6875C607.336 17.4375 607.812 17.3125 608.344 17.3125C608.844 17.3125 609.297 17.4297 609.703 17.6641C610.109 17.8984 610.438 18.2344 610.68 18.6641C610.914 19.0938 611.039 19.5781 611.039 20.1172C611.039 20.6562 610.914 21.1406 610.68 21.5625C610.438 21.9922 610.109 22.3203 609.703 22.5547C609.289 22.7891 608.836 22.9062 608.344 22.9062ZM618.328 16.1172C617.797 16.1172 617.297 16.2266 616.844 16.4375C616.391 16.6562 616 16.9609 615.68 17.3594H615.648V16.2109H614.352V27.1641H615.641V22.8438H615.672C615.984 23.25 616.375 23.5547 616.828 23.7734C617.281 23.9922 617.773 24.1016 618.32 24.1016C618.852 24.1016 619.352 24.0078 619.82 23.8203C620.289 23.6328 620.688 23.3672 621.031 23.0234C621.375 22.6875 621.641 22.2734 621.844 21.7734C622.039 21.2812 622.141 20.7422 622.141 20.1562C622.141 19.3984 621.977 18.7109 621.648 18.0938C621.32 17.4844 620.867 17 620.289 16.6484C619.703 16.2969 619.047 16.1172 618.328 16.1172ZM618.195 22.9141C617.852 22.9141 617.523 22.8516 617.211 22.7188C616.898 22.5859 616.617 22.3984 616.383 22.1641C616.141 21.9297 615.953 21.6328 615.812 21.2891C615.672 20.9453 615.602 20.5703 615.602 20.1641C615.602 19.6406 615.711 19.1562 615.938 18.7188C616.156 18.2812 616.469 17.9375 616.867 17.6875C617.258 17.4375 617.695 17.3047 618.18 17.3047C618.93 17.3047 619.562 17.5703 620.062 18.0938C620.562 18.625 620.82 19.3125 620.82 20.1641C620.82 20.9609 620.578 21.625 620.094 22.1406C619.609 22.6562 618.977 22.9141 618.195 22.9141ZM630.992 19.9844C630.992 19.25 630.836 18.5859 630.539 18C630.242 17.4141 629.812 16.9531 629.266 16.6172C628.711 16.2891 628.078 16.1172 627.367 16.1172C626.844 16.1172 626.352 16.2188 625.898 16.4141C625.438 16.6172 625.039 16.8906 624.711 17.2344C624.383 17.5781 624.117 18 623.93 18.5C623.734 19 623.641 19.5312 623.641 20.1094C623.641 20.6953 623.734 21.2344 623.938 21.7344C624.133 22.2344 624.406 22.6562 624.75 23C625.094 23.3438 625.5 23.6172 625.977 23.8125C626.453 24.0078 626.969 24.1016 627.516 24.1016C628.195 24.1016 628.805 23.9766 629.336 23.7109C629.867 23.4453 630.312 23.0859 630.664 22.6328L629.758 21.8594C629.492 22.1797 629.18 22.4375 628.812 22.625C628.438 22.8125 628.023 22.9062 627.562 22.9062C626.859 22.9062 626.273 22.6953 625.805 22.2578C625.328 21.8203 625.047 21.2422 624.969 20.5156H630.953C630.977 20.3594 630.992 20.1875 630.992 19.9844ZM627.438 17.3125C628.047 17.3125 628.547 17.5078 628.945 17.8906C629.344 18.2812 629.594 18.7969 629.703 19.4375H625C625.117 18.7891 625.398 18.2734 625.844 17.8906C626.289 17.5078 626.82 17.3125 627.438 17.3125ZM636.812 16.1172C636.281 16.1172 635.805 16.25 635.367 16.5C634.93 16.75 634.57 17.1094 634.281 17.5703H634.25V16.2109H632.953V24H634.25V20.2422C634.25 19.7266 634.344 19.2578 634.531 18.8516C634.719 18.4453 634.992 18.125 635.352 17.8906C635.711 17.6562 636.133 17.5391 636.617 17.5391C636.773 17.5391 636.945 17.5469 637.133 17.5625V16.1328C637.07 16.125 636.961 16.1172 636.812 16.1172ZM641.047 24.1016C641.5 24.1016 641.906 24.0469 642.266 23.9297C642.625 23.8125 642.922 23.6484 643.148 23.4453C643.375 23.2422 643.547 23 643.664 22.7344C643.781 22.4688 643.844 22.1797 643.844 21.8672C643.844 21.5391 643.789 21.2578 643.688 21.0156C643.516 20.6328 643.164 20.3047 642.633 20.0391C642.461 19.9609 641.953 19.7578 641.125 19.4297C640.875 19.3359 640.68 19.2578 640.531 19.1875C640.375 19.1172 640.227 19.0312 640.078 18.9297C639.93 18.8359 639.82 18.7266 639.75 18.6016C639.68 18.4844 639.648 18.3516 639.648 18.2031C639.648 17.9375 639.766 17.7188 640.008 17.5469C640.25 17.375 640.531 17.2891 640.844 17.2891C641.594 17.2891 642.289 17.5625 642.914 18.1016L643.586 17.0781C642.805 16.4375 641.906 16.1172 640.906 16.1172C640.164 16.1172 639.547 16.3203 639.062 16.7188C638.57 17.1172 638.328 17.6094 638.328 18.2031C638.328 18.4844 638.367 18.7344 638.453 18.9609C638.539 19.1953 638.648 19.3828 638.781 19.5391C638.906 19.6953 639.086 19.8438 639.305 19.9844C639.523 20.125 639.727 20.2344 639.93 20.3203C640.133 20.4141 640.375 20.5078 640.672 20.6016C640.711 20.6172 640.773 20.6406 640.859 20.6641C641.023 20.7266 641.148 20.7734 641.227 20.8047C641.305 20.8359 641.414 20.875 641.547 20.9219C641.672 20.9688 641.773 21.0156 641.836 21.0469C641.898 21.0781 641.977 21.125 642.07 21.1719C642.164 21.2266 642.227 21.2734 642.273 21.3203C642.312 21.3672 642.359 21.4141 642.406 21.4766C642.453 21.5391 642.484 21.6016 642.5 21.6641C642.516 21.7344 642.523 21.8047 642.523 21.8828C642.523 22.1797 642.391 22.4297 642.125 22.625C641.859 22.8281 641.5 22.9219 641.047 22.9219C640.531 22.9219 640.086 22.8438 639.711 22.6875C639.336 22.5312 638.992 22.3047 638.664 21.9922L637.992 22.9766C638.836 23.7266 639.852 24.1016 641.047 24.1016Z" fill="white"/>
<path d="M4.9751 29.1465V3.39008H15.8412C17.0204 3.39008 18.1034 3.64401 19.0902 4.15189C20.101 4.63558 20.9674 5.28856 21.6894 6.11083C22.4114 6.90892 22.9769 7.82793 23.3861 8.86786C23.7952 9.88361 23.9998 10.9114 23.9998 11.9514C23.9998 13.0397 23.8072 14.1038 23.4222 15.1437C23.0371 16.1595 22.4956 17.0664 21.7977 17.8645C21.0997 18.6626 20.2574 19.3035 19.2707 19.7872C18.2839 20.2708 17.2009 20.5127 16.0217 20.5127H9.95689V29.1465H4.9751ZM9.95689 16.1232H15.7329C16.6474 16.1232 17.4055 15.7483 18.0072 14.9986C18.6329 14.2489 18.9458 13.2332 18.9458 11.9514C18.9458 11.2984 18.8495 10.718 18.657 10.2101C18.4644 9.67804 18.2117 9.23063 17.8989 8.86786C17.586 8.5051 17.213 8.23907 16.7798 8.06977C16.3706 7.8763 15.9495 7.77956 15.5163 7.77956H9.95689V16.1232Z" fill="#0D51FF"/>
<path d="M0 25.9269V0.170471H10.8661C12.0453 0.170471 13.1283 0.424409 14.1151 0.932283C15.1259 1.41597 15.9923 2.06895 16.7143 2.89123C17.4363 3.68931 18.0018 4.60832 18.411 5.64826C18.8201 6.66401 19.0247 7.69185 19.0247 8.73178C19.0247 9.82008 18.8321 10.8842 18.4471 11.9241C18.062 12.9399 17.5205 13.8468 16.8226 14.6449C16.1246 15.443 15.2823 16.0839 14.2956 16.5676C13.3088 17.0512 12.2258 17.2931 11.0466 17.2931H4.98179V25.9269H0ZM4.98179 12.9036H10.7578C11.6723 12.9036 12.4304 12.5287 13.0321 11.779C13.6578 11.0293 13.9707 10.0136 13.9707 8.73178C13.9707 8.0788 13.8744 7.49837 13.6819 6.9905C13.4893 6.45844 13.2366 6.01102 12.9238 5.64826C12.6109 5.28549 12.2379 5.01946 11.8047 4.85017C11.3955 4.65669 10.9744 4.55995 10.5412 4.55995H4.98179V12.9036Z" fill="white"/>
<rect x="4.9751" y="12.1706" width="4.97568" height="5.56106" fill="#0D51FF"/>
</svg>

