<svg width="155" height="20" viewBox="0 0 155 20" fill="none" xmlns="http://www.w3.org/2000/svg">
<path d="M1.08398 13H6.55078V12.0391H2.13281V9.25H5.55469V8.28906H2.13281V5.43555H6.29883V4.47461H1.08398V13ZM15.0469 7.08789C14.6016 7.08789 14.1973 7.1875 13.8281 7.38672C13.459 7.58594 13.1543 7.86133 12.9199 8.22461H12.8965C12.5918 7.46875 11.9766 7.08789 11.0508 7.08789C10.6641 7.08789 10.3008 7.18164 9.96094 7.36914C9.61523 7.55664 9.32227 7.81445 9.08789 8.1543H9.07031V7.1582H8.10352V13H9.07031V10.0996C9.07031 9.45508 9.22852 8.94531 9.55078 8.55859C9.86719 8.17188 10.2715 7.97852 10.7637 7.97852C11.0684 7.97852 11.3262 8.04297 11.5312 8.17188C11.7305 8.30078 11.8887 8.5 11.9941 8.77539C12.0996 9.05664 12.1523 9.4082 12.1523 9.83008V13H13.1191V10.0996C13.1191 9.46094 13.2715 8.94531 13.5879 8.55859C13.8984 8.17188 14.291 7.97852 14.7598 7.97852C15.2285 7.97852 15.5684 8.13086 15.791 8.42383C16.0137 8.72266 16.125 9.19727 16.125 9.8418V13H17.0918V9.57812C17.0918 8.73438 16.916 8.10742 16.5762 7.69727C16.2305 7.29297 15.7207 7.08789 15.0469 7.08789ZM21.8203 7.08789C21.4219 7.08789 21.0469 7.16992 20.707 7.32812C20.3672 7.49219 20.0742 7.7207 19.834 8.01953H19.8105V7.1582H18.8379V15.373H19.8047V12.1328H19.8281C20.0625 12.4375 20.3555 12.666 20.6953 12.8301C21.0352 12.9941 21.4043 13.0762 21.8145 13.0762C22.2129 13.0762 22.5879 13.0059 22.9395 12.8652C23.291 12.7246 23.5898 12.5254 23.8477 12.2676C24.1055 12.0156 24.3047 11.7051 24.457 11.3301C24.6035 10.9609 24.6797 10.5566 24.6797 10.1172C24.6797 9.54883 24.5566 9.0332 24.3105 8.57031C24.0645 8.11328 23.7246 7.75 23.291 7.48633C22.8516 7.22266 22.3594 7.08789 21.8203 7.08789ZM21.7207 12.1855C21.4629 12.1855 21.2168 12.1387 20.9824 12.0391C20.748 11.9395 20.5371 11.7988 20.3613 11.623C20.1797 11.4473 20.0391 11.2246 19.9336 10.9668C19.8281 10.709 19.7754 10.4277 19.7754 10.123C19.7754 9.73047 19.8574 9.36719 20.0273 9.03906C20.1914 8.71094 20.4258 8.45312 20.7246 8.26562C21.0176 8.07812 21.3457 7.97852 21.709 7.97852C22.2715 7.97852 22.7461 8.17773 23.1211 8.57031C23.4961 8.96875 23.6895 9.48438 23.6895 10.123C23.6895 10.7207 23.5078 11.2188 23.1445 11.6055C22.7812 11.9922 22.3066 12.1855 21.7207 12.1855ZM28.8281 13.0762C29.3965 13.0762 29.9121 12.9531 30.3691 12.7012C30.8262 12.4551 31.1836 12.0977 31.4414 11.6406C31.6992 11.1836 31.834 10.668 31.834 10.0879C31.834 9.50781 31.6992 8.98633 31.4414 8.5293C31.1836 8.07227 30.8262 7.71484 30.3691 7.46289C29.9121 7.2168 29.3965 7.08789 28.8281 7.08789C28.3828 7.08789 27.9668 7.16992 27.5918 7.32227C27.2109 7.47461 26.8887 7.68555 26.6309 7.95508C26.373 8.22461 26.168 8.54102 26.0215 8.91016C25.875 9.2793 25.8047 9.67188 25.8047 10.0879C25.8047 10.5098 25.875 10.9023 26.0215 11.2656C26.168 11.6289 26.373 11.9453 26.6309 12.2148C26.8887 12.4844 27.2109 12.6953 27.5918 12.8477C27.9668 13 28.3828 13.0762 28.8281 13.0762ZM28.8281 12.1797C28.4297 12.1797 28.0781 12.0859 27.7676 11.8984C27.4512 11.7109 27.2109 11.459 27.041 11.1426C26.8711 10.8262 26.7891 10.4746 26.7891 10.0879C26.7891 9.70117 26.8711 9.34961 27.041 9.02734C27.2051 8.71094 27.4453 8.45312 27.7617 8.26562C28.0723 8.07812 28.4297 7.98438 28.8281 7.98438C29.2031 7.98438 29.543 8.07227 29.8477 8.24805C30.1523 8.42383 30.3984 8.67578 30.5801 8.99805C30.7559 9.32031 30.8496 9.68359 30.8496 10.0879C30.8496 10.4922 30.7559 10.8555 30.5801 11.1719C30.3984 11.4941 30.1523 11.7402 29.8477 11.916C29.5371 12.0918 29.1973 12.1797 28.8281 12.1797ZM39.9551 7.1582L38.4668 11.5234H38.4434L37.0957 7.1582H36.252L34.9219 11.5176H34.8984L33.4102 7.1582H32.4199L34.4473 13H35.3438L36.6621 8.74609H36.6855L37.998 13H38.918L40.9453 7.1582H39.9551ZM47.0215 9.98828C47.0215 9.4375 46.9043 8.93945 46.6816 8.5C46.459 8.06055 46.1367 7.71484 45.7266 7.46289C45.3105 7.2168 44.8359 7.08789 44.3027 7.08789C43.9102 7.08789 43.541 7.16406 43.2012 7.31055C42.8555 7.46289 42.5566 7.66797 42.3105 7.92578C42.0645 8.18359 41.8652 8.5 41.7246 8.875C41.5781 9.25 41.5078 9.64844 41.5078 10.082C41.5078 10.5215 41.5781 10.9258 41.7305 11.3008C41.877 11.6758 42.082 11.9922 42.3398 12.25C42.5977 12.5078 42.9023 12.7129 43.2598 12.8594C43.6172 13.0059 44.0039 13.0762 44.4141 13.0762C44.9238 13.0762 45.3809 12.9824 45.7793 12.7832C46.1777 12.584 46.5117 12.3145 46.7754 11.9746L46.0957 11.3945C45.8965 11.6348 45.6621 11.8281 45.3867 11.9688C45.1055 12.1094 44.7949 12.1797 44.4492 12.1797C43.9219 12.1797 43.4824 12.0215 43.1309 11.6934C42.7734 11.3652 42.5625 10.9316 42.5039 10.3867H46.9922C47.0098 10.2695 47.0215 10.1406 47.0215 9.98828ZM44.3555 7.98438C44.8125 7.98438 45.1875 8.13086 45.4863 8.41797C45.7852 8.71094 45.9727 9.09766 46.0547 9.57812H42.5273C42.6152 9.0918 42.8262 8.70508 43.1602 8.41797C43.4941 8.13086 43.8926 7.98438 44.3555 7.98438ZM51.3867 7.08789C50.9883 7.08789 50.6309 7.1875 50.3027 7.375C49.9746 7.5625 49.7051 7.83203 49.4883 8.17773H49.4648V7.1582H48.4922V13H49.4648V10.1816C49.4648 9.79492 49.5352 9.44336 49.6758 9.13867C49.8164 8.83398 50.0215 8.59375 50.291 8.41797C50.5605 8.24219 50.877 8.1543 51.2402 8.1543C51.3574 8.1543 51.4863 8.16016 51.627 8.17188V7.09961C51.5801 7.09375 51.498 7.08789 51.3867 7.08789ZM57.7324 9.98828C57.7324 9.4375 57.6152 8.93945 57.3926 8.5C57.1699 8.06055 56.8477 7.71484 56.4375 7.46289C56.0215 7.2168 55.5469 7.08789 55.0137 7.08789C54.6211 7.08789 54.252 7.16406 53.9121 7.31055C53.5664 7.46289 53.2676 7.66797 53.0215 7.92578C52.7754 8.18359 52.5762 8.5 52.4355 8.875C52.2891 9.25 52.2188 9.64844 52.2188 10.082C52.2188 10.5215 52.2891 10.9258 52.4414 11.3008C52.5879 11.6758 52.793 11.9922 53.0508 12.25C53.3086 12.5078 53.6133 12.7129 53.9707 12.8594C54.3281 13.0059 54.7148 13.0762 55.125 13.0762C55.6348 13.0762 56.0918 12.9824 56.4902 12.7832C56.8887 12.584 57.2227 12.3145 57.4863 11.9746L56.8066 11.3945C56.6074 11.6348 56.373 11.8281 56.0977 11.9688C55.8164 12.1094 55.5059 12.1797 55.1602 12.1797C54.6328 12.1797 54.1934 12.0215 53.8418 11.6934C53.4844 11.3652 53.2734 10.9316 53.2148 10.3867H57.7031C57.7207 10.2695 57.7324 10.1406 57.7324 9.98828ZM55.0664 7.98438C55.5234 7.98438 55.8984 8.13086 56.1973 8.41797C56.4961 8.71094 56.6836 9.09766 56.7656 9.57812H53.2383C53.3262 9.0918 53.5371 8.70508 53.8711 8.41797C54.2051 8.13086 54.6035 7.98438 55.0664 7.98438ZM63.7031 4.16406V8.02539H63.6855C63.5215 7.82617 63.3398 7.65039 63.1289 7.50977C62.918 7.36914 62.6953 7.26367 62.4551 7.19336C62.209 7.12305 61.957 7.08789 61.6992 7.08789C61.2891 7.08789 60.9082 7.16992 60.5566 7.32227C60.1992 7.47461 59.8945 7.68555 59.6484 7.95508C59.3965 8.22461 59.1973 8.54102 59.0566 8.91602C58.9102 9.29102 58.8398 9.69531 58.8398 10.1172C58.8398 10.5566 58.9102 10.9609 59.0625 11.3301C59.209 11.7051 59.4082 12.0156 59.666 12.2676C59.9238 12.5254 60.2285 12.7246 60.5801 12.8652C60.9316 13.0059 61.3066 13.0762 61.7051 13.0762C61.9863 13.0762 62.25 13.041 62.502 12.959C62.7539 12.877 62.9824 12.7656 63.1875 12.6133C63.3867 12.4668 63.5684 12.2852 63.7266 12.0742H63.7441V13H64.6758V4.16406H63.7031ZM61.7988 12.1855C61.2129 12.1855 60.7383 11.9922 60.375 11.6055C60.0117 11.2188 59.8301 10.7207 59.8301 10.123C59.8301 9.48438 60.0176 8.96875 60.3926 8.57031C60.7676 8.17773 61.2422 7.97852 61.8105 7.97852C62.0801 7.97852 62.332 8.03711 62.5723 8.14844C62.8066 8.25977 63.0117 8.41211 63.1816 8.59961C63.3516 8.79297 63.4863 9.02148 63.5859 9.28516C63.6855 9.54883 63.7383 9.83008 63.7383 10.123C63.7383 10.4277 63.6855 10.709 63.5801 10.9668C63.4746 11.2246 63.3281 11.4473 63.1523 11.623C62.9766 11.7988 62.7656 11.9395 62.5312 12.0391C62.2969 12.1387 62.0508 12.1855 61.7988 12.1855ZM72.8496 7.08789C72.4453 7.08789 72.0703 7.16992 71.7246 7.32812C71.3789 7.49219 71.0859 7.7207 70.8457 8.02539H70.8223V4.16406H69.8496V13H70.7812V12.0742H70.7988C71.0332 12.3965 71.3262 12.6426 71.6777 12.8184C72.0293 12.9941 72.416 13.0762 72.8438 13.0762C73.2422 13.0762 73.6172 13.0059 73.9688 12.8652C74.3203 12.7246 74.6191 12.5254 74.877 12.2676C75.1348 12.0156 75.334 11.7051 75.4863 11.3301C75.6328 10.9609 75.709 10.5566 75.709 10.1172C75.709 9.54883 75.5859 9.0332 75.3398 8.57031C75.0938 8.11328 74.7539 7.75 74.3203 7.48633C73.8809 7.22266 73.3887 7.08789 72.8496 7.08789ZM72.75 12.1855C72.4863 12.1855 72.2344 12.1387 72 12.0391C71.7598 11.9395 71.5488 11.7988 71.373 11.623C71.1914 11.4473 71.0508 11.2246 70.9453 10.9668C70.8398 10.709 70.7871 10.4277 70.7871 10.123C70.7871 9.73047 70.8691 9.36719 71.0391 9.03906C71.2031 8.71094 71.4375 8.45312 71.7363 8.26562C72.0352 8.07812 72.3691 7.97852 72.7383 7.97852C73.3008 7.97852 73.7754 8.17773 74.1504 8.57031C74.5254 8.96875 74.7188 9.48438 74.7188 10.123C74.7188 10.7207 74.5371 11.2188 74.1738 11.6055C73.8105 11.9922 73.3359 12.1855 72.75 12.1855ZM80.9121 7.1582L79.1484 11.6055H79.1191L77.2207 7.1582H76.1836L78.6504 12.7715L77.6074 15.373H78.6387L81.9434 7.1582H80.9121Z" fill="white"/>
<path fill-rule="evenodd" clip-rule="evenodd" d="M145.553 0.0330807C144.08 -0.0866822 142.599 0.119644 141.215 0.637346L141.024 0.708915L141.644 2.3614C141.821 2.83196 142.336 3.05202 142.797 2.92617C143.622 2.70153 144.481 2.6213 145.336 2.69085C146.417 2.77877 147.466 3.10394 148.407 3.6431C149.348 4.18226 150.157 4.9221 150.779 5.80978C151.237 6.46457 151.584 7.18789 151.809 7.95069C151.97 8.49872 152.505 8.89867 153.096 8.79734L154.667 8.52811L154.632 8.32679C154.382 6.87256 153.813 5.49143 152.967 4.28199C152.12 3.07256 151.017 2.06465 149.735 1.3302C148.454 0.595746 147.026 0.152844 145.553 0.0330807ZM139.576 3.37557L138.563 2.15392L138.407 2.2834C137.268 3.22382 136.351 4.40366 135.722 5.73871C135.093 7.07375 134.767 8.53106 134.767 10.0066C134.767 11.4821 135.093 12.9394 135.722 14.2745C136.351 15.6095 137.268 16.7893 138.407 17.7298L138.563 17.8592L139.576 16.6376C139.96 16.1742 139.88 15.508 139.483 15.0948C138.933 14.5211 138.478 13.8608 138.138 13.1387C137.676 12.1589 137.436 11.0894 137.436 10.0066C137.436 8.92377 137.676 7.8543 138.138 6.8745C138.478 6.15238 138.933 5.49209 139.483 4.91838C139.88 4.5052 139.96 3.83897 139.576 3.37557ZM153.096 11.2027C152.505 11.1013 151.97 11.5013 151.809 12.0493C151.584 12.8121 151.237 13.5354 150.779 14.1902C150.158 15.0779 149.348 15.8177 148.407 16.3569C147.466 16.8961 146.418 17.2212 145.336 17.3092C144.538 17.3741 143.736 17.3084 142.962 17.1166C142.408 16.9793 141.794 17.2403 141.583 17.802L141.024 19.2911L141.215 19.3627C142.599 19.8804 144.08 20.0867 145.553 19.9669C147.026 19.8472 148.454 19.4043 149.735 18.6698C151.017 17.9353 152.12 16.9274 152.967 15.718C153.813 14.5086 154.382 13.1274 154.632 11.6732L154.667 11.4719L153.096 11.2027Z" fill="#0D51FF"/>
<path fill-rule="evenodd" clip-rule="evenodd" d="M92.0354 9.66408H95.8298V9.74293C95.8298 10.6553 95.4972 12.0408 94.6489 12.9081C93.8007 13.7754 92.8262 13.9333 91.9206 13.9333C91.0036 13.9333 90.0177 13.7867 89.1235 12.8855C88.6765 12.435 88 11.5227 88 10.0245C88 8.79685 88.4587 7.81673 89.1007 7.17479C90.0405 6.21733 91.1985 6.08215 92.104 6.08215C92.7345 6.08215 93.537 6.18353 94.2477 6.64537C94.7637 6.9833 95.2108 7.51272 95.4858 7.98582L93.8925 8.83052C93.7434 8.53765 93.5142 8.23364 93.216 8.01949C92.8722 7.7718 92.4825 7.65903 92.0468 7.65903C91.3475 7.65903 90.8316 7.88444 90.4646 8.2673C90.0405 8.70674 89.8113 9.34868 89.8113 10.0471C89.8113 10.9032 90.1324 11.4551 90.4532 11.7705C90.9004 12.2211 91.4163 12.3563 92.001 12.3563C92.7575 12.3563 93.1587 12.0972 93.3307 11.9507C93.388 11.9057 93.7319 11.6128 93.8809 11.0609H92.0354V9.66408Z" fill="white"/>
<path fill-rule="evenodd" clip-rule="evenodd" d="M99.1095 6.08215V12.4031H101.566V13.9333H97.2819V6.08215H99.1095Z" fill="white"/>
<path fill-rule="evenodd" clip-rule="evenodd" d="M104.977 8.34527C104.645 8.66067 104.301 9.21262 104.301 10.0462C104.301 10.7333 104.53 11.2851 105 11.7357C105.493 12.1975 106.043 12.3552 106.639 12.3552C107.419 12.3552 107.969 12.0736 108.336 11.7133C108.634 11.4316 109.001 10.9023 109.001 10.0349C109.001 9.25768 108.68 8.6832 108.336 8.34527C107.958 7.98481 107.35 7.7032 106.651 7.7032C105.986 7.7032 105.39 7.93975 104.977 8.34527ZM109.62 7.19632C110.342 7.88344 110.812 8.8747 110.812 10.0349C110.812 11.0374 110.446 12.0625 109.62 12.8509C108.909 13.5267 107.946 13.9548 106.663 13.9548C105.23 13.9548 104.255 13.3916 103.682 12.8509C102.948 12.175 102.49 11.1614 102.49 10.0575C102.49 8.97608 102.983 7.88344 103.67 7.20758C104.186 6.70069 105.138 6.1038 106.663 6.1038C107.855 6.1038 108.852 6.46426 109.62 7.19632Z" fill="white"/>
<path fill-rule="evenodd" clip-rule="evenodd" d="M114.097 12.5207H114.54C115.007 12.5207 115.57 12.509 115.906 12.2029C116.073 12.0499 116.169 11.8262 116.169 11.5437C116.169 11.2259 116.037 11.0141 115.918 10.9081C115.594 10.6138 114.971 10.6138 114.6 10.6138H114.097V12.5207ZM114.097 9.27196H114.396C114.648 9.27196 115.067 9.23678 115.33 9.04844C115.498 8.93073 115.654 8.69531 115.654 8.35395C115.654 8.0126 115.486 7.80072 115.342 7.69478C115.079 7.49467 114.72 7.49467 114.384 7.49467H114.097V9.27196ZM114.72 6.08215C115.151 6.08215 116.133 6.10583 116.756 6.68247C117.271 7.16508 117.331 7.82426 117.331 8.16561C117.331 8.47166 117.283 8.82479 117.068 9.16601C116.864 9.49573 116.589 9.66053 116.397 9.74279C116.78 9.80165 117.211 9.99011 117.499 10.2725C117.762 10.5314 118.014 10.9787 118.014 11.6732C118.014 12.4619 117.702 12.9563 117.391 13.2623C116.732 13.8862 115.774 13.9333 115.283 13.9333H112.276V6.08215H114.72Z" fill="white"/>
<path fill-rule="evenodd" clip-rule="evenodd" d="M123.878 11.0869L122.891 8.43672L121.891 11.0869H123.878ZM124.384 12.4829H121.35L120.735 13.9737H118.809L122.048 6.08222H123.746L126.913 13.9737H124.986L124.384 12.4829Z" fill="white"/>
<path fill-rule="evenodd" clip-rule="evenodd" d="M129.963 6.08215V12.4031H132.625V13.9333H127.984V6.08215H129.963Z" fill="white"/>
<path d="M140.089 8.64287C140.088 8.64842 140.11 8.64287 140.087 8.64287V13.8869H141.9V8.64287C141.855 8.64287 141.9 8.64287 141.895 8.64287C141.558 8.64287 141.319 8.64287 140.976 8.64287C140.646 8.64287 140.398 8.64287 140.089 8.64287Z" fill="white"/>
<path d="M141.965 6.991C141.965 7.53831 141.525 7.982 140.983 7.982C140.44 7.982 140 7.53831 140 6.991C140 6.44369 140.44 6 140.983 6C141.525 6 141.965 6.44369 141.965 6.991Z" fill="white"/>
<path fill-rule="evenodd" clip-rule="evenodd" d="M145.086 12.3031C145.086 12.3289 145.107 12.3498 145.132 12.3498C145.509 12.3498 146.331 12.3143 146.919 11.8176C147.342 11.4629 147.85 10.7889 147.85 9.91385C147.85 9.0626 147.342 8.51866 147.037 8.21122C146.449 7.61998 145.685 7.53721 145.132 7.53721C145.107 7.53721 145.086 7.55811 145.086 7.5839V12.3031ZM145.32 6C146.355 6 147.448 6.15372 148.412 7.08788C149.105 7.76189 149.54 8.68423 149.54 9.91387C149.54 11.1555 149.117 12.0542 148.471 12.7045C147.389 13.8041 146.037 13.8869 145.379 13.8869H143.276V6H145.32Z" fill="white"/>
</svg>

