<svg width="415" height="155" viewBox="0 0 415 155" fill="none" xmlns="http://www.w3.org/2000/svg">
<g filter="url(#filter0_d)">
<rect x="50" y="24" width="315" height="55" rx="27.5" fill="#0D51FF"/>
</g>
<path d="M145.732 57.2051C146.084 57.2051 146.426 57.1855 146.777 57.1367C147.119 57.0879 147.471 57.0098 147.832 56.8926C148.184 56.7852 148.525 56.6484 148.838 56.4727C149.15 56.3066 149.443 56.0918 149.727 55.8379C150 55.584 150.244 55.3008 150.439 54.9883C150.635 54.6758 150.791 54.3047 150.908 53.875C151.025 53.4551 151.084 52.9961 151.084 52.498C151.084 51.8926 150.986 51.3555 150.791 50.9062C150.498 50.2227 149.922 49.6562 149.062 49.1875C148.672 48.9824 147.871 48.6504 146.68 48.1816C145.996 47.9277 145.527 47.6934 145.293 47.4785C145.049 47.2637 144.932 47.0293 144.932 46.7656C144.932 46.5117 145.01 46.3066 145.186 46.1504C145.352 46.0039 145.596 45.9258 145.928 45.9258C146.289 45.9258 146.68 46.0234 147.1 46.2188C147.52 46.4141 148.027 46.7461 148.633 47.2051L150.742 44.4902C150.039 43.8848 149.268 43.4062 148.408 43.0742C147.549 42.7422 146.65 42.5762 145.713 42.5957C144.814 42.6152 144.004 42.8203 143.281 43.1914C142.559 43.5723 141.992 44.0898 141.582 44.7344C141.172 45.3789 140.977 46.1016 140.977 46.8926C140.977 47.3027 141.016 47.6738 141.104 48.0254C141.191 48.377 141.309 48.6895 141.445 48.9629C141.582 49.2363 141.768 49.4902 141.992 49.7246C142.217 49.9688 142.451 50.1738 142.686 50.3398C142.92 50.5156 143.184 50.6816 143.496 50.8379C143.809 50.9941 144.092 51.1309 144.365 51.2383C144.639 51.3457 144.941 51.4531 145.293 51.5703C146.025 51.8242 146.504 52.0391 146.738 52.2246C146.973 52.4102 147.09 52.6445 147.09 52.9375C147.09 53.1914 146.982 53.416 146.787 53.5918C146.582 53.7676 146.279 53.8555 145.869 53.8555C145.381 53.8555 144.854 53.7285 144.277 53.4746C143.701 53.2207 143.154 52.8203 142.627 52.2832L140.479 54.9297C141.221 55.6914 142.041 56.2578 142.949 56.6387C143.848 57.0195 144.775 57.2051 145.732 57.2051ZM154.98 46.0918C155.576 46.0918 156.064 45.916 156.455 45.5449C156.836 45.1836 157.031 44.7246 157.031 44.1582C157.031 43.6113 156.836 43.1621 156.455 42.8008C156.064 42.4395 155.576 42.2539 154.98 42.2539C154.59 42.2539 154.229 42.3418 153.916 42.5078C153.604 42.6836 153.359 42.9082 153.184 43.2012C153.008 43.4941 152.93 43.8066 152.93 44.1582C152.93 44.7148 153.115 45.1738 153.506 45.5449C153.887 45.916 154.375 46.0918 154.98 46.0918ZM153.193 57H156.758V47.2051H153.193V57ZM165.078 47.2051V48.1621H165.049C164.355 47.3906 163.457 47 162.363 47C161.777 47 161.221 47.127 160.703 47.3809C160.186 47.6348 159.746 47.9766 159.375 48.4062C159.004 48.8457 158.701 49.373 158.486 49.998C158.271 50.623 158.164 51.2969 158.164 52.0098C158.164 52.9082 158.34 53.7285 158.711 54.4512C159.082 55.1738 159.6 55.75 160.273 56.1699C160.938 56.5898 161.699 56.7949 162.549 56.7949C163.643 56.7949 164.512 56.4531 165.137 55.7695H165.166V56.6582C165.166 57.1172 164.951 57.498 164.541 57.791C164.121 58.0938 163.535 58.2402 162.783 58.2402C162.324 58.2402 161.826 58.1719 161.289 58.0156C160.752 57.8594 160.312 57.6738 159.961 57.4492L159.17 60.2617C159.785 60.5938 160.41 60.8184 161.035 60.9551C161.66 61.0918 162.393 61.1602 163.232 61.1602C164.033 61.1602 164.746 61.0723 165.371 60.8965C165.996 60.7207 166.514 60.4668 166.924 60.1445C167.334 59.832 167.666 59.4316 167.93 58.9629C168.184 58.4941 168.369 57.9766 168.486 57.4297C168.594 56.8828 168.652 56.2578 168.652 55.5742V47.2051H165.078ZM163.506 53.6504C163.008 53.6504 162.598 53.4941 162.266 53.1719C161.934 52.8496 161.768 52.4297 161.768 51.9121C161.768 51.4043 161.934 50.9941 162.266 50.6621C162.598 50.3301 163.018 50.1641 163.506 50.1641C163.994 50.1641 164.404 50.3301 164.736 50.6621C165.068 50.9941 165.234 51.4043 165.234 51.9121C165.234 52.4297 165.068 52.8496 164.736 53.1719C164.404 53.4941 163.994 53.6504 163.506 53.6504ZM176.748 47C176.211 47 175.703 47.1172 175.225 47.332C174.736 47.5469 174.316 47.8691 173.965 48.2793H173.945V47.2051H170.371V57H173.945V52.0781C173.945 51.4336 174.072 50.9551 174.326 50.6426C174.58 50.3301 174.922 50.1641 175.371 50.1641C175.674 50.1641 175.918 50.2227 176.094 50.3203C176.27 50.418 176.406 50.6035 176.504 50.8574C176.602 51.1211 176.65 51.4824 176.65 51.9316V57H180.225V51.0723C180.225 50.5547 180.186 50.0859 180.107 49.6758C180.029 49.2656 179.912 48.9043 179.766 48.6113C179.609 48.3184 179.434 48.0645 179.238 47.8496C179.033 47.6445 178.799 47.4785 178.535 47.3516C178.262 47.2344 177.988 47.1465 177.695 47.0879C177.402 47.0293 177.09 47 176.748 47ZM187.93 47.2051V52.127C187.93 52.7715 187.803 53.25 187.559 53.5723C187.314 53.8945 186.992 54.0508 186.602 54.0508C186.143 54.0508 185.811 53.9043 185.615 53.5918C185.42 53.2793 185.322 52.7812 185.322 52.0781V47.2051H181.758V52.9375C181.758 55.7891 182.91 57.2051 185.225 57.2051C185.752 57.2051 186.24 57.1074 186.699 56.8926C187.158 56.6777 187.559 56.3652 187.891 55.9551H187.93V57H191.514V47.2051H187.93ZM199.463 47C198.389 47 197.52 47.4004 196.836 48.1914H196.807V47.2051H193.223V60.9551H196.787V56.1504H196.816C197.432 56.8535 198.242 57.2051 199.248 57.2051C200.127 57.2051 200.918 57 201.611 56.5703C202.295 56.1406 202.832 55.5449 203.223 54.7637C203.604 53.9824 203.799 53.0938 203.799 52.0977C203.799 51.6094 203.74 51.1309 203.643 50.6816C203.545 50.2324 203.398 49.8125 203.213 49.4414C203.027 49.0703 202.803 48.7285 202.549 48.4258C202.285 48.123 201.992 47.8691 201.68 47.6543C201.357 47.4492 201.006 47.293 200.635 47.1758C200.254 47.0586 199.863 47 199.463 47ZM198.457 54.0801C197.93 54.0801 197.49 53.9043 197.158 53.543C196.816 53.1816 196.65 52.7031 196.65 52.1074C196.65 51.5312 196.816 51.0625 197.158 50.6914C197.49 50.3301 197.93 50.1445 198.457 50.1445C198.965 50.1445 199.375 50.3301 199.707 50.6914C200.029 51.0625 200.195 51.5312 200.195 52.1074C200.195 52.7031 200.029 53.1816 199.707 53.543C199.375 53.9043 198.965 54.0801 198.457 54.0801ZM210.068 57H213.652V50.0371H215.254V47.2051H213.652V45.8574C213.652 45.5449 213.721 45.3301 213.877 45.2129C214.023 45.0957 214.229 45.0273 214.502 45.0273C214.629 45.0273 214.795 45.0566 215.01 45.1055C215.215 45.1543 215.391 45.2129 215.537 45.291L216.152 42.8691C215.957 42.7129 215.605 42.5371 215.098 42.3516C214.59 42.166 214.033 42.0684 213.428 42.0684C212.393 42.0684 211.582 42.3906 210.977 43.0156C210.371 43.6504 210.068 44.5781 210.068 45.8086V47.2051H209.18V50.0371H210.068V57ZM221.025 57.2051C222.061 57.2051 222.988 57 223.809 56.5703C224.619 56.1406 225.254 55.5449 225.713 54.7637C226.162 53.9922 226.396 53.1035 226.396 52.1074C226.396 51.1113 226.162 50.2324 225.713 49.4512C225.254 48.6797 224.619 48.0742 223.809 47.6445C222.988 47.2148 222.061 47 221.025 47C219.98 47 219.053 47.2148 218.232 47.6445C217.412 48.0742 216.777 48.6797 216.328 49.4512C215.879 50.2324 215.654 51.1113 215.654 52.1074C215.654 53.1035 215.879 53.9922 216.328 54.7637C216.777 55.5449 217.412 56.1406 218.232 56.5703C219.053 57 219.98 57.2051 221.025 57.2051ZM221.025 54.0508C220.82 54.0508 220.625 54.0215 220.449 53.9629C220.273 53.9043 220.107 53.8066 219.961 53.6895C219.814 53.5723 219.688 53.4355 219.58 53.2793C219.473 53.123 219.395 52.9473 219.336 52.7422C219.277 52.5469 219.248 52.332 219.248 52.1074C219.248 51.834 219.287 51.5703 219.375 51.3262C219.463 51.0918 219.59 50.8867 219.746 50.7109C219.902 50.5449 220.088 50.4082 220.312 50.3105C220.527 50.2129 220.771 50.1641 221.025 50.1641C221.543 50.1641 221.973 50.3496 222.305 50.7109C222.637 51.0723 222.803 51.541 222.803 52.1074C222.803 52.6738 222.627 53.1328 222.295 53.5039C221.953 53.875 221.533 54.0508 221.025 54.0508ZM234.072 47C233.535 47 233.027 47.1367 232.559 47.4004C232.09 47.6641 231.68 48.0449 231.338 48.543H231.309V47.2051H227.734V57H231.309V52.7227C231.309 52.1367 231.475 51.6777 231.826 51.3262C232.168 50.9746 232.676 50.7988 233.34 50.7988C233.643 50.7988 233.896 50.8086 234.092 50.8184V47H234.072ZM240.127 57H243.711V50.0371H245.312V47.2051H243.711V45.8574C243.711 45.5449 243.779 45.3301 243.936 45.2129C244.082 45.0957 244.287 45.0273 244.561 45.0273C244.688 45.0273 244.854 45.0566 245.068 45.1055C245.273 45.1543 245.449 45.2129 245.596 45.291L246.211 42.8691C246.016 42.7129 245.664 42.5371 245.156 42.3516C244.648 42.166 244.092 42.0684 243.486 42.0684C242.451 42.0684 241.641 42.3906 241.035 43.0156C240.43 43.6504 240.127 44.5781 240.127 45.8086V47.2051H239.238V50.0371H240.127V57ZM252.842 47C252.305 47 251.797 47.1367 251.328 47.4004C250.859 47.6641 250.449 48.0449 250.107 48.543H250.078V47.2051H246.504V57H250.078V52.7227C250.078 52.1367 250.244 51.6777 250.596 51.3262C250.938 50.9746 251.445 50.7988 252.109 50.7988C252.412 50.7988 252.666 50.8086 252.861 50.8184V47H252.842ZM263.359 52.0293C263.359 51.3066 263.232 50.6328 262.979 50.0078C262.725 49.3828 262.383 48.8457 261.953 48.4062C261.523 47.9766 260.996 47.6348 260.391 47.3809C259.775 47.127 259.121 47 258.428 47C257.451 47 256.582 47.2246 255.811 47.6543C255.029 48.0938 254.424 48.6992 253.994 49.4707C253.564 50.252 253.35 51.1211 253.35 52.0977C253.35 53.0938 253.564 53.9727 254.014 54.7539C254.463 55.5352 255.078 56.1406 255.859 56.5703C256.641 57 257.51 57.2051 258.486 57.2051C259.473 57.2051 260.352 57.0391 261.133 56.6875C261.914 56.3359 262.52 55.8867 262.969 55.3301L261.123 53.2988C260.43 54.0215 259.678 54.3828 258.867 54.3828C258.32 54.3828 257.871 54.2656 257.5 54.0215C257.129 53.7871 256.914 53.4355 256.836 52.9766H263.262C263.32 52.7227 263.359 52.4004 263.359 52.0293ZM258.408 49.7246C258.594 49.7246 258.77 49.7539 258.936 49.8125C259.102 49.8711 259.248 49.959 259.375 50.0762C259.492 50.1934 259.6 50.3301 259.688 50.4863C259.775 50.6523 259.844 50.8379 259.893 51.0332H256.846C256.924 50.623 257.1 50.3105 257.383 50.0762C257.666 49.8418 258.008 49.7246 258.408 49.7246ZM274.258 52.0293C274.258 51.3066 274.131 50.6328 273.877 50.0078C273.623 49.3828 273.281 48.8457 272.852 48.4062C272.422 47.9766 271.895 47.6348 271.289 47.3809C270.674 47.127 270.02 47 269.326 47C268.35 47 267.48 47.2246 266.709 47.6543C265.928 48.0938 265.322 48.6992 264.893 49.4707C264.463 50.252 264.248 51.1211 264.248 52.0977C264.248 53.0938 264.463 53.9727 264.912 54.7539C265.361 55.5352 265.977 56.1406 266.758 56.5703C267.539 57 268.408 57.2051 269.385 57.2051C270.371 57.2051 271.25 57.0391 272.031 56.6875C272.812 56.3359 273.418 55.8867 273.867 55.3301L272.021 53.2988C271.328 54.0215 270.576 54.3828 269.766 54.3828C269.219 54.3828 268.77 54.2656 268.398 54.0215C268.027 53.7871 267.812 53.4355 267.734 52.9766H274.16C274.219 52.7227 274.258 52.4004 274.258 52.0293ZM269.307 49.7246C269.492 49.7246 269.668 49.7539 269.834 49.8125C270 49.8711 270.146 49.959 270.273 50.0762C270.391 50.1934 270.498 50.3301 270.586 50.4863C270.674 50.6523 270.742 50.8379 270.791 51.0332H267.744C267.822 50.623 267.998 50.3105 268.281 50.0762C268.564 49.8418 268.906 49.7246 269.307 49.7246Z" fill="white"/>
<defs>
<filter id="filter0_d" x="0" y="0" width="415" height="155" filterUnits="userSpaceOnUse" color-interpolation-filters="sRGB">
<feFlood flood-opacity="0" result="BackgroundImageFix"/>
<feColorMatrix in="SourceAlpha" type="matrix" values="0 0 0 0 0 0 0 0 0 0 0 0 0 0 0 0 0 0 127 0"/>
<feOffset dy="26"/>
<feGaussianBlur stdDeviation="25"/>
<feColorMatrix type="matrix" values="0 0 0 0 0 0 0 0 0 0 0 0 0 0 0 0 0 0 0.1 0"/>
<feBlend mode="normal" in2="BackgroundImageFix" result="effect1_dropShadow"/>
<feBlend mode="normal" in="SourceGraphic" in2="effect1_dropShadow" result="shape"/>
</filter>
</defs>
</svg>

