<svg width="1440" height="89" viewBox="0 0 1440 89" fill="none" xmlns="http://www.w3.org/2000/svg">
<rect width="1440" height="89" fill="white"/>
<path d="M260.898 49H262.289V38.9141H265.727V37.6328H257.5V38.9141H260.898V49ZM269.906 41.1172C269.375 41.1172 268.898 41.25 268.461 41.5C268.023 41.75 267.664 42.1094 267.375 42.5703H267.344V41.2109H266.047V49H267.344V45.2422C267.344 44.7266 267.438 44.2578 267.625 43.8516C267.812 43.4453 268.086 43.125 268.445 42.8906C268.805 42.6562 269.227 42.5391 269.711 42.5391C269.867 42.5391 270.039 42.5469 270.227 42.5625V41.1328C270.164 41.125 270.055 41.1172 269.906 41.1172ZM277.562 41.2109V42.3672H277.531C277.203 41.9609 276.812 41.6562 276.352 41.4375C275.891 41.2266 275.391 41.1172 274.859 41.1172C274.133 41.1172 273.477 41.2969 272.898 41.6484C272.312 42 271.859 42.4844 271.531 43.0938C271.203 43.7109 271.047 44.3984 271.047 45.1562C271.047 45.7422 271.141 46.2812 271.344 46.7734C271.539 47.2734 271.805 47.6875 272.148 48.0234C272.492 48.3672 272.898 48.6328 273.367 48.8203C273.836 49.0078 274.336 49.1016 274.867 49.1016C275.43 49.1016 275.945 48.9844 276.414 48.75C276.883 48.5156 277.273 48.1875 277.594 47.7656H277.617V49H278.859V41.2109H277.562ZM274.992 47.9141C274.211 47.9141 273.578 47.6562 273.094 47.1406C272.609 46.625 272.367 45.9609 272.367 45.1641C272.367 44.3125 272.617 43.625 273.117 43.0938C273.617 42.5703 274.25 42.3047 275.008 42.3047C275.367 42.3047 275.711 42.3828 276.039 42.5312C276.359 42.6797 276.633 42.8828 276.867 43.1328C277.094 43.3906 277.273 43.6953 277.406 44.0469C277.539 44.3984 277.609 44.7734 277.609 45.1641C277.609 45.5703 277.539 45.9453 277.398 46.2891C277.258 46.6328 277.062 46.9297 276.828 47.1641C276.586 47.3984 276.305 47.5859 275.992 47.7188C275.672 47.8516 275.336 47.9141 274.992 47.9141ZM285.398 41.1172C284.812 41.1172 284.273 41.2422 283.789 41.4922C283.297 41.7422 282.891 42.0938 282.57 42.5547H282.547V41.2109H281.25V49H282.547V45.1094C282.547 44.25 282.766 43.5625 283.211 43.0625C283.656 42.5625 284.25 42.3047 284.992 42.3047C285.289 42.3047 285.547 42.3516 285.773 42.4297C285.992 42.5156 286.195 42.6484 286.367 42.8359C286.539 43.0234 286.664 43.2812 286.758 43.5938C286.852 43.9141 286.898 44.2969 286.898 44.7422V49.0078H288.195V44.3828C288.195 43.3047 287.945 42.4844 287.445 41.9375C286.945 41.3906 286.266 41.1172 285.398 41.1172ZM292.906 49.1016C293.359 49.1016 293.766 49.0469 294.125 48.9297C294.484 48.8125 294.781 48.6484 295.008 48.4453C295.234 48.2422 295.406 48 295.523 47.7344C295.641 47.4688 295.703 47.1797 295.703 46.8672C295.703 46.5391 295.648 46.2578 295.547 46.0156C295.375 45.6328 295.023 45.3047 294.492 45.0391C294.32 44.9609 293.812 44.7578 292.984 44.4297C292.734 44.3359 292.539 44.2578 292.391 44.1875C292.234 44.1172 292.086 44.0312 291.938 43.9297C291.789 43.8359 291.68 43.7266 291.609 43.6016C291.539 43.4844 291.508 43.3516 291.508 43.2031C291.508 42.9375 291.625 42.7188 291.867 42.5469C292.109 42.375 292.391 42.2891 292.703 42.2891C293.453 42.2891 294.148 42.5625 294.773 43.1016L295.445 42.0781C294.664 41.4375 293.766 41.1172 292.766 41.1172C292.023 41.1172 291.406 41.3203 290.922 41.7188C290.43 42.1172 290.188 42.6094 290.188 43.2031C290.188 43.4844 290.227 43.7344 290.312 43.9609C290.398 44.1953 290.508 44.3828 290.641 44.5391C290.766 44.6953 290.945 44.8438 291.164 44.9844C291.383 45.125 291.586 45.2344 291.789 45.3203C291.992 45.4141 292.234 45.5078 292.531 45.6016C292.57 45.6172 292.633 45.6406 292.719 45.6641C292.883 45.7266 293.008 45.7734 293.086 45.8047C293.164 45.8359 293.273 45.875 293.406 45.9219C293.531 45.9688 293.633 46.0156 293.695 46.0469C293.758 46.0781 293.836 46.125 293.93 46.1719C294.023 46.2266 294.086 46.2734 294.133 46.3203C294.172 46.3672 294.219 46.4141 294.266 46.4766C294.312 46.5391 294.344 46.6016 294.359 46.6641C294.375 46.7344 294.383 46.8047 294.383 46.8828C294.383 47.1797 294.25 47.4297 293.984 47.625C293.719 47.8281 293.359 47.9219 292.906 47.9219C292.391 47.9219 291.945 47.8438 291.57 47.6875C291.195 47.5312 290.852 47.3047 290.523 46.9922L289.852 47.9766C290.695 48.7266 291.711 49.1016 292.906 49.1016ZM303.438 41.2109V42.3672H303.406C303.078 41.9609 302.688 41.6562 302.227 41.4375C301.766 41.2266 301.266 41.1172 300.734 41.1172C300.008 41.1172 299.352 41.2969 298.773 41.6484C298.188 42 297.734 42.4844 297.406 43.0938C297.078 43.7109 296.922 44.3984 296.922 45.1562C296.922 45.7422 297.016 46.2812 297.219 46.7734C297.414 47.2734 297.68 47.6875 298.023 48.0234C298.367 48.3672 298.773 48.6328 299.242 48.8203C299.711 49.0078 300.211 49.1016 300.742 49.1016C301.305 49.1016 301.82 48.9844 302.289 48.75C302.758 48.5156 303.148 48.1875 303.469 47.7656H303.492V49H304.734V41.2109H303.438ZM300.867 47.9141C300.086 47.9141 299.453 47.6562 298.969 47.1406C298.484 46.625 298.242 45.9609 298.242 45.1641C298.242 44.3125 298.492 43.625 298.992 43.0938C299.492 42.5703 300.125 42.3047 300.883 42.3047C301.242 42.3047 301.586 42.3828 301.914 42.5312C302.234 42.6797 302.508 42.8828 302.742 43.1328C302.969 43.3906 303.148 43.6953 303.281 44.0469C303.414 44.3984 303.484 44.7734 303.484 45.1641C303.484 45.5703 303.414 45.9453 303.273 46.2891C303.133 46.6328 302.938 46.9297 302.703 47.1641C302.461 47.3984 302.18 47.5859 301.867 47.7188C301.547 47.8516 301.211 47.9141 300.867 47.9141ZM310.5 49.1016C311.164 49.1016 311.781 48.9844 312.344 48.7344C312.906 48.4922 313.367 48.1719 313.719 47.7812L312.82 46.9766C312.57 47.2578 312.25 47.4844 311.859 47.6562C311.469 47.8281 311.047 47.9062 310.609 47.9062C309.828 47.9062 309.188 47.6484 308.695 47.1328C308.203 46.6172 307.961 45.9375 307.961 45.1094C307.961 44.2812 308.203 43.6094 308.695 43.0859C309.188 42.5703 309.828 42.3047 310.609 42.3047C311.055 42.3047 311.469 42.3984 311.844 42.5703C312.219 42.7422 312.539 42.9844 312.789 43.2812L313.688 42.5C313.312 42.0547 312.844 41.7109 312.281 41.4688C311.719 41.2344 311.141 41.1094 310.547 41.1094C309.789 41.1094 309.117 41.2812 308.523 41.6172C307.93 41.9609 307.469 42.4297 307.141 43.0391C306.812 43.6484 306.648 44.3438 306.648 45.1172C306.648 45.8984 306.812 46.5859 307.141 47.1953C307.469 47.8047 307.922 48.2734 308.508 48.6016C309.094 48.9375 309.758 49.1016 310.5 49.1016ZM317.688 49.1016C317.969 49.1016 318.242 49.0781 318.492 49.0312C318.742 48.9844 318.938 48.9219 319.094 48.8594C319.242 48.7969 319.398 48.7109 319.57 48.6172L319.227 47.4844C318.758 47.75 318.32 47.8828 317.914 47.8828C317.555 47.8828 317.312 47.7734 317.172 47.5547C317.031 47.3359 316.961 46.9766 316.961 46.4844V42.3359H319.539V41.2109H316.961V38.4062L315.664 38.5469V41.2109H314.672V42.3359H315.664V46.6797C315.664 48.2969 316.336 49.1016 317.688 49.1016ZM321.992 39.7656C322.242 39.7656 322.461 39.6797 322.641 39.5C322.82 39.3281 322.914 39.1094 322.914 38.8594C322.914 38.6953 322.867 38.5391 322.789 38.3984C322.703 38.2578 322.594 38.1484 322.453 38.0703C322.312 37.9922 322.156 37.9453 321.992 37.9453C321.727 37.9453 321.508 38.0391 321.336 38.2109C321.156 38.3906 321.07 38.6094 321.07 38.8594C321.07 39.1094 321.156 39.3281 321.336 39.5C321.508 39.6797 321.727 39.7656 321.992 39.7656ZM321.336 49H322.625V41.2109H321.336V49ZM328.766 49.1016C329.523 49.1016 330.211 48.9375 330.82 48.6016C331.43 48.2734 331.906 47.7969 332.25 47.1875C332.594 46.5781 332.773 45.8906 332.773 45.1172C332.773 44.3438 332.594 43.6484 332.25 43.0391C331.906 42.4297 331.43 41.9531 330.82 41.6172C330.211 41.2891 329.523 41.1172 328.766 41.1172C328.172 41.1172 327.617 41.2266 327.117 41.4297C326.609 41.6328 326.18 41.9141 325.836 42.2734C325.492 42.6328 325.219 43.0547 325.023 43.5469C324.828 44.0391 324.734 44.5625 324.734 45.1172C324.734 45.6797 324.828 46.2031 325.023 46.6875C325.219 47.1719 325.492 47.5938 325.836 47.9531C326.18 48.3125 326.609 48.5938 327.117 48.7969C327.617 49 328.172 49.1016 328.766 49.1016ZM328.766 47.9062C328.234 47.9062 327.766 47.7812 327.352 47.5312C326.93 47.2812 326.609 46.9453 326.383 46.5234C326.156 46.1016 326.047 45.6328 326.047 45.1172C326.047 44.6016 326.156 44.1328 326.383 43.7031C326.602 43.2812 326.922 42.9375 327.344 42.6875C327.758 42.4375 328.234 42.3125 328.766 42.3125C329.266 42.3125 329.719 42.4297 330.125 42.6641C330.531 42.8984 330.859 43.2344 331.102 43.6641C331.336 44.0938 331.461 44.5781 331.461 45.1172C331.461 45.6562 331.336 46.1406 331.102 46.5625C330.859 46.9922 330.531 47.3203 330.125 47.5547C329.711 47.7891 329.258 47.9062 328.766 47.9062ZM338.914 41.1172C338.328 41.1172 337.789 41.2422 337.305 41.4922C336.812 41.7422 336.406 42.0938 336.086 42.5547H336.062V41.2109H334.766V49H336.062V45.1094C336.062 44.25 336.281 43.5625 336.727 43.0625C337.172 42.5625 337.766 42.3047 338.508 42.3047C338.805 42.3047 339.062 42.3516 339.289 42.4297C339.508 42.5156 339.711 42.6484 339.883 42.8359C340.055 43.0234 340.18 43.2812 340.273 43.5938C340.367 43.9141 340.414 44.2969 340.414 44.7422V49.0078H341.711V44.3828C341.711 43.3047 341.461 42.4844 340.961 41.9375C340.461 41.3906 339.781 41.1172 338.914 41.1172Z" fill="#1342BA"/>
<path d="M410.445 49H413.891C415.68 49 417.102 48.4844 418.156 47.4375C419.211 46.3984 419.742 45.0312 419.742 43.3359C419.742 42.5078 419.602 41.7344 419.32 41.0312C419.039 40.3281 418.648 39.7266 418.148 39.2266C417.641 38.7266 417.016 38.3359 416.281 38.0547C415.539 37.7734 414.727 37.6328 413.844 37.6328H410.445V49ZM411.836 47.7344V38.8984H413.867C414.734 38.8984 415.508 39.0938 416.18 39.4688C416.852 39.8438 417.375 40.3672 417.75 41.0391C418.117 41.7109 418.305 42.4766 418.305 43.3359C418.305 43.7578 418.25 44.1641 418.156 44.5469C418.062 44.9375 417.922 45.2891 417.742 45.6094C417.562 45.9375 417.344 46.2266 417.078 46.4922C416.812 46.7578 416.508 46.9844 416.18 47.1641C415.852 47.3516 415.484 47.4922 415.078 47.5859C414.672 47.6875 414.25 47.7344 413.805 47.7344H411.836ZM428.789 44.9844C428.789 44.25 428.633 43.5859 428.336 43C428.039 42.4141 427.609 41.9531 427.062 41.6172C426.508 41.2891 425.875 41.1172 425.164 41.1172C424.641 41.1172 424.148 41.2188 423.695 41.4141C423.234 41.6172 422.836 41.8906 422.508 42.2344C422.18 42.5781 421.914 43 421.727 43.5C421.531 44 421.438 44.5312 421.438 45.1094C421.438 45.6953 421.531 46.2344 421.734 46.7344C421.93 47.2344 422.203 47.6562 422.547 48C422.891 48.3438 423.297 48.6172 423.773 48.8125C424.25 49.0078 424.766 49.1016 425.312 49.1016C425.992 49.1016 426.602 48.9766 427.133 48.7109C427.664 48.4453 428.109 48.0859 428.461 47.6328L427.555 46.8594C427.289 47.1797 426.977 47.4375 426.609 47.625C426.234 47.8125 425.82 47.9062 425.359 47.9062C424.656 47.9062 424.07 47.6953 423.602 47.2578C423.125 46.8203 422.844 46.2422 422.766 45.5156H428.75C428.773 45.3594 428.789 45.1875 428.789 44.9844ZM425.234 42.3125C425.844 42.3125 426.344 42.5078 426.742 42.8906C427.141 43.2812 427.391 43.7969 427.5 44.4375H422.797C422.914 43.7891 423.195 43.2734 423.641 42.8906C424.086 42.5078 424.617 42.3125 425.234 42.3125ZM434.734 41.1172C434.203 41.1172 433.703 41.2266 433.25 41.4375C432.797 41.6562 432.406 41.9609 432.086 42.3594H432.055V41.2109H430.758V52.1641H432.047V47.8438H432.078C432.391 48.25 432.781 48.5547 433.234 48.7734C433.688 48.9922 434.18 49.1016 434.727 49.1016C435.258 49.1016 435.758 49.0078 436.227 48.8203C436.695 48.6328 437.094 48.3672 437.438 48.0234C437.781 47.6875 438.047 47.2734 438.25 46.7734C438.445 46.2812 438.547 45.7422 438.547 45.1562C438.547 44.3984 438.383 43.7109 438.055 43.0938C437.727 42.4844 437.273 42 436.695 41.6484C436.109 41.2969 435.453 41.1172 434.734 41.1172ZM434.602 47.9141C434.258 47.9141 433.93 47.8516 433.617 47.7188C433.305 47.5859 433.023 47.3984 432.789 47.1641C432.547 46.9297 432.359 46.6328 432.219 46.2891C432.078 45.9453 432.008 45.5703 432.008 45.1641C432.008 44.6406 432.117 44.1562 432.344 43.7188C432.562 43.2812 432.875 42.9375 433.273 42.6875C433.664 42.4375 434.102 42.3047 434.586 42.3047C435.336 42.3047 435.969 42.5703 436.469 43.0938C436.969 43.625 437.227 44.3125 437.227 45.1641C437.227 45.9609 436.984 46.625 436.5 47.1406C436.016 47.6562 435.383 47.9141 434.602 47.9141ZM444.078 49.1016C444.836 49.1016 445.523 48.9375 446.133 48.6016C446.742 48.2734 447.219 47.7969 447.562 47.1875C447.906 46.5781 448.086 45.8906 448.086 45.1172C448.086 44.3438 447.906 43.6484 447.562 43.0391C447.219 42.4297 446.742 41.9531 446.133 41.6172C445.523 41.2891 444.836 41.1172 444.078 41.1172C443.484 41.1172 442.93 41.2266 442.43 41.4297C441.922 41.6328 441.492 41.9141 441.148 42.2734C440.805 42.6328 440.531 43.0547 440.336 43.5469C440.141 44.0391 440.047 44.5625 440.047 45.1172C440.047 45.6797 440.141 46.2031 440.336 46.6875C440.531 47.1719 440.805 47.5938 441.148 47.9531C441.492 48.3125 441.922 48.5938 442.43 48.7969C442.93 49 443.484 49.1016 444.078 49.1016ZM444.078 47.9062C443.547 47.9062 443.078 47.7812 442.664 47.5312C442.242 47.2812 441.922 46.9453 441.695 46.5234C441.469 46.1016 441.359 45.6328 441.359 45.1172C441.359 44.6016 441.469 44.1328 441.695 43.7031C441.914 43.2812 442.234 42.9375 442.656 42.6875C443.07 42.4375 443.547 42.3125 444.078 42.3125C444.578 42.3125 445.031 42.4297 445.438 42.6641C445.844 42.8984 446.172 43.2344 446.414 43.6641C446.648 44.0938 446.773 44.5781 446.773 45.1172C446.773 45.6562 446.648 46.1406 446.414 46.5625C446.172 46.9922 445.844 47.3203 445.438 47.5547C445.023 47.7891 444.57 47.9062 444.078 47.9062ZM452.453 49.1016C452.906 49.1016 453.312 49.0469 453.672 48.9297C454.031 48.8125 454.328 48.6484 454.555 48.4453C454.781 48.2422 454.953 48 455.07 47.7344C455.188 47.4688 455.25 47.1797 455.25 46.8672C455.25 46.5391 455.195 46.2578 455.094 46.0156C454.922 45.6328 454.57 45.3047 454.039 45.0391C453.867 44.9609 453.359 44.7578 452.531 44.4297C452.281 44.3359 452.086 44.2578 451.938 44.1875C451.781 44.1172 451.633 44.0312 451.484 43.9297C451.336 43.8359 451.227 43.7266 451.156 43.6016C451.086 43.4844 451.055 43.3516 451.055 43.2031C451.055 42.9375 451.172 42.7188 451.414 42.5469C451.656 42.375 451.938 42.2891 452.25 42.2891C453 42.2891 453.695 42.5625 454.32 43.1016L454.992 42.0781C454.211 41.4375 453.312 41.1172 452.312 41.1172C451.57 41.1172 450.953 41.3203 450.469 41.7188C449.977 42.1172 449.734 42.6094 449.734 43.2031C449.734 43.4844 449.773 43.7344 449.859 43.9609C449.945 44.1953 450.055 44.3828 450.188 44.5391C450.312 44.6953 450.492 44.8438 450.711 44.9844C450.93 45.125 451.133 45.2344 451.336 45.3203C451.539 45.4141 451.781 45.5078 452.078 45.6016C452.117 45.6172 452.18 45.6406 452.266 45.6641C452.43 45.7266 452.555 45.7734 452.633 45.8047C452.711 45.8359 452.82 45.875 452.953 45.9219C453.078 45.9688 453.18 46.0156 453.242 46.0469C453.305 46.0781 453.383 46.125 453.477 46.1719C453.57 46.2266 453.633 46.2734 453.68 46.3203C453.719 46.3672 453.766 46.4141 453.812 46.4766C453.859 46.5391 453.891 46.6016 453.906 46.6641C453.922 46.7344 453.93 46.8047 453.93 46.8828C453.93 47.1797 453.797 47.4297 453.531 47.625C453.266 47.8281 452.906 47.9219 452.453 47.9219C451.938 47.9219 451.492 47.8438 451.117 47.6875C450.742 47.5312 450.398 47.3047 450.07 46.9922L449.398 47.9766C450.242 48.7266 451.258 49.1016 452.453 49.1016ZM457.914 39.7656C458.164 39.7656 458.383 39.6797 458.562 39.5C458.742 39.3281 458.836 39.1094 458.836 38.8594C458.836 38.6953 458.789 38.5391 458.711 38.3984C458.625 38.2578 458.516 38.1484 458.375 38.0703C458.234 37.9922 458.078 37.9453 457.914 37.9453C457.648 37.9453 457.43 38.0391 457.258 38.2109C457.078 38.3906 456.992 38.6094 456.992 38.8594C456.992 39.1094 457.078 39.3281 457.258 39.5C457.43 39.6797 457.648 39.7656 457.914 39.7656ZM457.258 49H458.547V41.2109H457.258V49ZM463.266 49.1016C463.547 49.1016 463.82 49.0781 464.07 49.0312C464.32 48.9844 464.516 48.9219 464.672 48.8594C464.82 48.7969 464.977 48.7109 465.148 48.6172L464.805 47.4844C464.336 47.75 463.898 47.8828 463.492 47.8828C463.133 47.8828 462.891 47.7734 462.75 47.5547C462.609 47.3359 462.539 46.9766 462.539 46.4844V42.3359H465.117V41.2109H462.539V38.4062L461.242 38.5469V41.2109H460.25V42.3359H461.242V46.6797C461.242 48.2969 461.914 49.1016 463.266 49.1016ZM469.266 49.1016C469.719 49.1016 470.125 49.0469 470.484 48.9297C470.844 48.8125 471.141 48.6484 471.367 48.4453C471.594 48.2422 471.766 48 471.883 47.7344C472 47.4688 472.062 47.1797 472.062 46.8672C472.062 46.5391 472.008 46.2578 471.906 46.0156C471.734 45.6328 471.383 45.3047 470.852 45.0391C470.68 44.9609 470.172 44.7578 469.344 44.4297C469.094 44.3359 468.898 44.2578 468.75 44.1875C468.594 44.1172 468.445 44.0312 468.297 43.9297C468.148 43.8359 468.039 43.7266 467.969 43.6016C467.898 43.4844 467.867 43.3516 467.867 43.2031C467.867 42.9375 467.984 42.7188 468.227 42.5469C468.469 42.375 468.75 42.2891 469.062 42.2891C469.812 42.2891 470.508 42.5625 471.133 43.1016L471.805 42.0781C471.023 41.4375 470.125 41.1172 469.125 41.1172C468.383 41.1172 467.766 41.3203 467.281 41.7188C466.789 42.1172 466.547 42.6094 466.547 43.2031C466.547 43.4844 466.586 43.7344 466.672 43.9609C466.758 44.1953 466.867 44.3828 467 44.5391C467.125 44.6953 467.305 44.8438 467.523 44.9844C467.742 45.125 467.945 45.2344 468.148 45.3203C468.352 45.4141 468.594 45.5078 468.891 45.6016C468.93 45.6172 468.992 45.6406 469.078 45.6641C469.242 45.7266 469.367 45.7734 469.445 45.8047C469.523 45.8359 469.633 45.875 469.766 45.9219C469.891 45.9688 469.992 46.0156 470.055 46.0469C470.117 46.0781 470.195 46.125 470.289 46.1719C470.383 46.2266 470.445 46.2734 470.492 46.3203C470.531 46.3672 470.578 46.4141 470.625 46.4766C470.672 46.5391 470.703 46.6016 470.719 46.6641C470.734 46.7344 470.742 46.8047 470.742 46.8828C470.742 47.1797 470.609 47.4297 470.344 47.625C470.078 47.8281 469.719 47.9219 469.266 47.9219C468.75 47.9219 468.305 47.8438 467.93 47.6875C467.555 47.5312 467.211 47.3047 466.883 46.9922L466.211 47.9766C467.055 48.7266 468.07 49.1016 469.266 49.1016Z" fill="black"/>
<path d="M543.734 49.1016C544.125 49.1016 544.508 49.0625 544.883 48.9766C545.25 48.8906 545.594 48.7578 545.914 48.5781C546.234 48.3984 546.516 48.1797 546.758 47.9297C546.992 47.6797 547.18 47.3828 547.32 47.0312C547.461 46.6797 547.531 46.2969 547.531 45.8906C547.531 45.4531 547.461 45.0625 547.32 44.7188C547.078 44.1562 546.594 43.6797 545.875 43.2891C545.57 43.1328 544.953 42.8672 544.016 42.5L544.008 42.4922H544H543.992L543.984 42.4844H543.977L543.969 42.4766C543.148 42.1641 542.602 41.9141 542.328 41.7266C541.828 41.3984 541.578 40.9844 541.586 40.4688C541.586 40.125 541.68 39.8281 541.875 39.5781C542.062 39.3281 542.312 39.1406 542.609 39.0156C542.906 38.8906 543.242 38.8281 543.602 38.8281C544.039 38.8281 544.492 38.9219 544.977 39.1094C545.461 39.2969 545.922 39.5781 546.367 39.9375L547.203 38.8594C546.656 38.4297 546.078 38.1016 545.469 37.8672C544.852 37.6406 544.234 37.5312 543.609 37.5312C542.969 37.5312 542.383 37.6641 541.852 37.9297C541.32 38.1953 540.898 38.5547 540.594 39.0156C540.289 39.4766 540.141 39.9844 540.141 40.5391C540.141 40.8125 540.172 41.0703 540.242 41.3125C540.312 41.5547 540.398 41.7656 540.508 41.9453C540.617 42.1328 540.758 42.3047 540.945 42.4766C541.133 42.6484 541.312 42.7891 541.484 42.9062C541.656 43.0234 541.867 43.1406 542.125 43.2656C542.383 43.3906 542.609 43.4922 542.805 43.5703C543 43.6484 543.242 43.7422 543.531 43.8516L543.547 43.8594H543.555H543.562L543.57 43.8672H543.578L543.586 43.875H543.594H543.602L543.609 43.8828H543.617H543.625L543.633 43.8906H543.641L543.648 43.8984H543.656H543.664L543.672 43.9062H543.68L543.688 43.9141H543.695H543.703L543.711 43.9219H543.719H543.727L543.734 43.9297H543.742L543.75 43.9375H543.758H543.766L543.773 43.9453C544.555 44.2422 545.086 44.4844 545.367 44.6797C545.836 45.0156 546.078 45.4688 546.078 46.0469C546.078 46.5859 545.859 47.0078 545.438 47.3203C545.016 47.6328 544.453 47.7812 543.75 47.7812C543.172 47.7812 542.602 47.6562 542.039 47.3984C541.477 47.1406 540.992 46.7656 540.594 46.2734L539.711 47.3438C540.258 47.9375 540.875 48.375 541.578 48.6641C542.273 48.9609 542.992 49.1016 543.734 49.1016ZM556.461 44.9844C556.461 44.25 556.305 43.5859 556.008 43C555.711 42.4141 555.281 41.9531 554.734 41.6172C554.18 41.2891 553.547 41.1172 552.836 41.1172C552.312 41.1172 551.82 41.2188 551.367 41.4141C550.906 41.6172 550.508 41.8906 550.18 42.2344C549.852 42.5781 549.586 43 549.398 43.5C549.203 44 549.109 44.5312 549.109 45.1094C549.109 45.6953 549.203 46.2344 549.406 46.7344C549.602 47.2344 549.875 47.6562 550.219 48C550.562 48.3438 550.969 48.6172 551.445 48.8125C551.922 49.0078 552.438 49.1016 552.984 49.1016C553.664 49.1016 554.273 48.9766 554.805 48.7109C555.336 48.4453 555.781 48.0859 556.133 47.6328L555.227 46.8594C554.961 47.1797 554.648 47.4375 554.281 47.625C553.906 47.8125 553.492 47.9062 553.031 47.9062C552.328 47.9062 551.742 47.6953 551.273 47.2578C550.797 46.8203 550.516 46.2422 550.438 45.5156H556.422C556.445 45.3594 556.461 45.1875 556.461 44.9844ZM552.906 42.3125C553.516 42.3125 554.016 42.5078 554.414 42.8906C554.812 43.2812 555.062 43.7969 555.172 44.4375H550.469C550.586 43.7891 550.867 43.2734 551.312 42.8906C551.758 42.5078 552.289 42.3125 552.906 42.3125ZM562.281 41.1172C561.75 41.1172 561.273 41.25 560.836 41.5C560.398 41.75 560.039 42.1094 559.75 42.5703H559.719V41.2109H558.422V49H559.719V45.2422C559.719 44.7266 559.812 44.2578 560 43.8516C560.188 43.4453 560.461 43.125 560.82 42.8906C561.18 42.6562 561.602 42.5391 562.086 42.5391C562.242 42.5391 562.414 42.5469 562.602 42.5625V41.1328C562.539 41.125 562.43 41.1172 562.281 41.1172ZM569.523 41.2109L567.172 47.3516H567.133L564.734 41.2109H563.344L566.523 49H567.766L570.93 41.2109H569.523ZM573.336 39.7656C573.586 39.7656 573.805 39.6797 573.984 39.5C574.164 39.3281 574.258 39.1094 574.258 38.8594C574.258 38.6953 574.211 38.5391 574.133 38.3984C574.047 38.2578 573.938 38.1484 573.797 38.0703C573.656 37.9922 573.5 37.9453 573.336 37.9453C573.07 37.9453 572.852 38.0391 572.68 38.2109C572.5 38.3906 572.414 38.6094 572.414 38.8594C572.414 39.1094 572.5 39.3281 572.68 39.5C572.852 39.6797 573.07 39.7656 573.336 39.7656ZM572.68 49H573.969V41.2109H572.68V49ZM579.938 49.1016C580.602 49.1016 581.219 48.9844 581.781 48.7344C582.344 48.4922 582.805 48.1719 583.156 47.7812L582.258 46.9766C582.008 47.2578 581.688 47.4844 581.297 47.6562C580.906 47.8281 580.484 47.9062 580.047 47.9062C579.266 47.9062 578.625 47.6484 578.133 47.1328C577.641 46.6172 577.398 45.9375 577.398 45.1094C577.398 44.2812 577.641 43.6094 578.133 43.0859C578.625 42.5703 579.266 42.3047 580.047 42.3047C580.492 42.3047 580.906 42.3984 581.281 42.5703C581.656 42.7422 581.977 42.9844 582.227 43.2812L583.125 42.5C582.75 42.0547 582.281 41.7109 581.719 41.4688C581.156 41.2344 580.578 41.1094 579.984 41.1094C579.227 41.1094 578.555 41.2812 577.961 41.6172C577.367 41.9609 576.906 42.4297 576.578 43.0391C576.25 43.6484 576.086 44.3438 576.086 45.1172C576.086 45.8984 576.25 46.5859 576.578 47.1953C576.906 47.8047 577.359 48.2734 577.945 48.6016C578.531 48.9375 579.195 49.1016 579.938 49.1016ZM591.789 44.9844C591.789 44.25 591.633 43.5859 591.336 43C591.039 42.4141 590.609 41.9531 590.062 41.6172C589.508 41.2891 588.875 41.1172 588.164 41.1172C587.641 41.1172 587.148 41.2188 586.695 41.4141C586.234 41.6172 585.836 41.8906 585.508 42.2344C585.18 42.5781 584.914 43 584.727 43.5C584.531 44 584.438 44.5312 584.438 45.1094C584.438 45.6953 584.531 46.2344 584.734 46.7344C584.93 47.2344 585.203 47.6562 585.547 48C585.891 48.3438 586.297 48.6172 586.773 48.8125C587.25 49.0078 587.766 49.1016 588.312 49.1016C588.992 49.1016 589.602 48.9766 590.133 48.7109C590.664 48.4453 591.109 48.0859 591.461 47.6328L590.555 46.8594C590.289 47.1797 589.977 47.4375 589.609 47.625C589.234 47.8125 588.82 47.9062 588.359 47.9062C587.656 47.9062 587.07 47.6953 586.602 47.2578C586.125 46.8203 585.844 46.2422 585.766 45.5156H591.75C591.773 45.3594 591.789 45.1875 591.789 44.9844ZM588.234 42.3125C588.844 42.3125 589.344 42.5078 589.742 42.8906C590.141 43.2812 590.391 43.7969 590.5 44.4375H585.797C585.914 43.7891 586.195 43.2734 586.641 42.8906C587.086 42.5078 587.617 42.3125 588.234 42.3125ZM596.125 49.1016C596.578 49.1016 596.984 49.0469 597.344 48.9297C597.703 48.8125 598 48.6484 598.227 48.4453C598.453 48.2422 598.625 48 598.742 47.7344C598.859 47.4688 598.922 47.1797 598.922 46.8672C598.922 46.5391 598.867 46.2578 598.766 46.0156C598.594 45.6328 598.242 45.3047 597.711 45.0391C597.539 44.9609 597.031 44.7578 596.203 44.4297C595.953 44.3359 595.758 44.2578 595.609 44.1875C595.453 44.1172 595.305 44.0312 595.156 43.9297C595.008 43.8359 594.898 43.7266 594.828 43.6016C594.758 43.4844 594.727 43.3516 594.727 43.2031C594.727 42.9375 594.844 42.7188 595.086 42.5469C595.328 42.375 595.609 42.2891 595.922 42.2891C596.672 42.2891 597.367 42.5625 597.992 43.1016L598.664 42.0781C597.883 41.4375 596.984 41.1172 595.984 41.1172C595.242 41.1172 594.625 41.3203 594.141 41.7188C593.648 42.1172 593.406 42.6094 593.406 43.2031C593.406 43.4844 593.445 43.7344 593.531 43.9609C593.617 44.1953 593.727 44.3828 593.859 44.5391C593.984 44.6953 594.164 44.8438 594.383 44.9844C594.602 45.125 594.805 45.2344 595.008 45.3203C595.211 45.4141 595.453 45.5078 595.75 45.6016C595.789 45.6172 595.852 45.6406 595.938 45.6641C596.102 45.7266 596.227 45.7734 596.305 45.8047C596.383 45.8359 596.492 45.875 596.625 45.9219C596.75 45.9688 596.852 46.0156 596.914 46.0469C596.977 46.0781 597.055 46.125 597.148 46.1719C597.242 46.2266 597.305 46.2734 597.352 46.3203C597.391 46.3672 597.438 46.4141 597.484 46.4766C597.531 46.5391 597.562 46.6016 597.578 46.6641C597.594 46.7344 597.602 46.8047 597.602 46.8828C597.602 47.1797 597.469 47.4297 597.203 47.625C596.938 47.8281 596.578 47.9219 596.125 47.9219C595.609 47.9219 595.164 47.8438 594.789 47.6875C594.414 47.5312 594.07 47.3047 593.742 46.9922L593.07 47.9766C593.914 48.7266 594.93 49.1016 596.125 49.1016Z" fill="black"/>
<path fill-rule="evenodd" clip-rule="evenodd" d="M1258 36.3334C1256.62 36.3334 1255.5 37.4526 1255.5 38.8334C1255.5 40.2141 1256.62 41.3334 1258 41.3334C1259.38 41.3334 1260.5 40.2141 1260.5 38.8334C1260.5 37.4526 1259.38 36.3334 1258 36.3334ZM1253.83 38.8334C1253.83 36.5322 1255.7 34.6667 1258 34.6667C1260.3 34.6667 1262.17 36.5322 1262.17 38.8334C1262.17 41.1345 1260.3 43 1258 43C1255.7 43 1253.83 41.1345 1253.83 38.8334ZM1251.72 45.8871C1252.5 45.1057 1253.56 44.6667 1254.67 44.6667H1261.33C1262.44 44.6667 1263.5 45.1057 1264.28 45.8871C1265.06 46.6685 1265.5 47.7283 1265.5 48.8334V50.5C1265.5 50.9603 1265.13 51.3334 1264.67 51.3334C1264.21 51.3334 1263.83 50.9603 1263.83 50.5V48.8334C1263.83 48.1703 1263.57 47.5344 1263.1 47.0656C1262.63 46.5967 1262 46.3334 1261.33 46.3334H1254.67C1254 46.3334 1253.37 46.5967 1252.9 47.0656C1252.43 47.5344 1252.17 48.1703 1252.17 48.8334V50.5C1252.17 50.9603 1251.79 51.3334 1251.33 51.3334C1250.87 51.3334 1250.5 50.9603 1250.5 50.5V48.8334C1250.5 47.7283 1250.94 46.6685 1251.72 45.8871Z" fill="#1C1C1C"/>
<path d="M1130.17 47.1666C1130.17 47.6666 1129.83 48 1129.33 48H1112.67C1112.17 48 1111.83 47.6666 1111.83 47.1666C1111.83 46.6666 1112.17 46.3333 1112.67 46.3333C1113.58 46.3333 1114.33 45.5833 1114.33 44.6666V40.5C1114.33 36.8333 1117.33 33.8333 1121 33.8333C1124.67 33.8333 1127.67 36.8333 1127.67 40.5V44.6666C1127.67 45.5833 1128.42 46.3333 1129.33 46.3333C1129.83 46.3333 1130.17 46.6666 1130.17 47.1666ZM1123.17 50.9166C1122.67 51.75 1121.83 52.1666 1121 52.1666C1120.58 52.1666 1120.17 52.0833 1119.75 51.8333C1119.33 51.5833 1119.08 51.3333 1118.83 50.9166C1118.58 50.5 1118.75 50 1119.17 49.75C1119.58 49.5 1120.08 49.6666 1120.33 50.0833C1120.36 50.1085 1120.38 50.1414 1120.41 50.1773C1120.47 50.2599 1120.55 50.3585 1120.67 50.4166C1121.08 50.6666 1121.58 50.5 1121.83 50.0833C1122.08 49.6666 1122.58 49.5833 1123 49.75C1123.42 49.9166 1123.42 50.5 1123.17 50.9166ZM1126 44.6666V40.5C1126 37.75 1123.75 35.5 1121 35.5C1118.25 35.5 1116 37.75 1116 40.5V44.6666C1116 45.25 1115.83 45.8333 1115.58 46.3333H1126.42C1126.17 45.8333 1126 45.25 1126 44.6666Z" fill="#1C1C1C"/>
<path d="M1159.59 37.6283L1167 42.8161L1174.41 37.6283C1174.27 37.3558 1173.99 37.1667 1173.67 37.1667H1160.33C1160.01 37.1667 1159.73 37.3558 1159.59 37.6283ZM1174.5 39.6005L1167.48 44.516C1167.19 44.7169 1166.81 44.7169 1166.52 44.516L1159.5 39.6005V48C1159.5 48.4564 1159.88 48.8333 1160.33 48.8333H1173.67C1174.12 48.8333 1174.5 48.4564 1174.5 48V39.6005ZM1157.83 38C1157.83 36.6231 1158.96 35.5 1160.33 35.5H1173.67C1175.04 35.5 1176.17 36.6231 1176.17 38V48C1176.17 49.3769 1175.04 50.5 1173.67 50.5H1160.33C1158.96 50.5 1157.83 49.3769 1157.83 48V38Z" fill="black"/>
<path d="M123 68C136.255 68 147 57.2548 147 44C147 30.7452 136.255 20 123 20C109.745 20 99 30.7452 99 44C99 57.2548 109.745 68 123 68Z" fill="url(#paint0_linear)"/>
<path d="M123 68C136.255 68 147 57.2548 147 44C147 30.7452 136.255 20 123 20C109.745 20 99 30.7452 99 44C99 57.2548 109.745 68 123 68Z" fill="url(#paint1_radial)"/>
<path d="M115.474 60.0218C117.159 61.7372 119.805 61.7805 121.448 60.0985C123.861 57.6353 126.323 55.1424 128.803 52.654C126.774 51.7117 124.736 50.7542 122.692 49.791C120.24 53.2272 117.813 56.6532 115.474 60.0218Z" fill="url(#paint2_linear)"/>
<path d="M115.474 60.0218C117.159 61.7372 119.805 61.7805 121.448 60.0985C123.861 57.6353 126.323 55.1424 128.803 52.654C126.774 51.7117 124.736 50.7542 122.692 49.791C120.24 53.2272 117.813 56.6532 115.474 60.0218Z" fill="url(#paint3_radial)"/>
<path d="M134.394 26.8336C133.778 26.8121 133.161 26.7923 132.545 26.7742C128.677 26.6543 125.551 29.868 125.555 33.8468C125.557 34.3977 125.56 34.9487 125.562 35.4997C123.019 40.7939 120.401 46.1202 117.869 51.3984C115.195 54.0775 112.556 56.7238 109.997 59.2926C109.698 59.5919 109.761 60.1138 110.131 60.3716C111.812 61.5429 114.027 61.4422 115.448 59.9962C117.545 57.8666 119.688 55.6988 121.855 53.5169C122.391 52.9776 123.12 52.6744 123.88 52.6732C125.585 52.671 127.29 52.6623 128.995 52.6472C135.003 52.5681 140.04 47.6265 140.008 41.7474C139.999 40.4819 139.754 39.2252 139.287 38.0281C137.908 34.4926 136.491 30.9204 135.075 27.3259C134.962 27.0407 134.691 26.8439 134.394 26.8336Z" fill="url(#paint4_linear)"/>
<path d="M132.661 31.0752C132.678 31.8711 132.047 32.5033 131.252 32.4907C130.458 32.4777 129.806 31.8217 129.795 31.022C129.784 30.2225 130.413 29.585 131.201 29.6018C131.989 29.6185 132.644 30.2796 132.661 31.0752Z" fill="url(#paint5_linear)"/>
<path d="M131.665 31.6388C130.872 31.6244 130.22 30.967 130.208 30.1679C130.207 30.1072 130.211 30.0475 130.217 29.9888C129.952 30.247 129.789 30.6133 129.795 31.0221C129.806 31.8218 130.458 32.4781 131.252 32.4908C131.986 32.5025 132.58 31.9631 132.653 31.2536C132.4 31.4985 132.052 31.6459 131.665 31.6388Z" fill="url(#paint6_linear)"/>
<path d="M114.863 46.4284C113.83 48.0733 112.805 49.7104 111.794 51.3358C113.497 53.0288 116.203 53.0719 117.87 51.3984C119.51 49.755 121.163 48.0995 122.82 46.442C120.167 46.4418 117.515 46.4373 114.863 46.4284Z" fill="url(#paint7_linear)"/>
<path d="M114.863 46.4284C113.83 48.0733 112.805 49.7104 111.794 51.3358C113.497 53.0288 116.203 53.0719 117.87 51.3984C119.51 49.755 121.163 48.0995 122.82 46.442C120.167 46.4418 117.515 46.4373 114.863 46.4284Z" fill="url(#paint8_radial)"/>
<path d="M124.584 35.3609C122.724 35.2965 121.034 36.0363 119.816 37.2573C117.009 40.0729 114.182 42.8893 111.384 45.6558C116.677 45.6732 121.97 45.6787 127.264 45.6723C127.263 45.6703 130.194 42.379 130.472 39.6997C129.589 37.2641 127.281 35.4544 124.584 35.3609Z" fill="url(#paint9_linear)"/>
<path d="M130.472 39.6998C129.595 42.1907 127.196 43.9853 124.381 43.9863C121.407 43.9863 118.432 43.9863 115.458 43.9863C113.929 43.9865 112.461 44.5906 111.384 45.6559C109.661 47.3591 107.949 49.0436 106.259 50.6977C105.951 50.9987 106.006 51.5152 106.38 51.7654C108.074 52.9014 110.339 52.7827 111.794 51.3359C112.537 50.5981 113.284 49.856 114.034 49.1104C114.569 48.5779 115.3 48.2803 116.063 48.2841C118.835 48.298 121.607 48.3036 124.379 48.301C127.978 48.2933 130.914 45.3374 130.85 41.7421C130.838 41.0291 130.704 40.3428 130.472 39.6998Z" fill="url(#paint10_linear)"/>
<rect x="258" y="56" width="84" height="2" fill="#1342BA"/>
<circle cx="1127" cy="35" r="4" fill="#2764FF" stroke="white" stroke-width="2"/>
<defs>
<linearGradient id="paint0_linear" x1="106.029" y1="60.9705" x2="139.971" y2="27.0294" gradientUnits="userSpaceOnUse">
<stop stop-color="#560DFF"/>
<stop offset="1" stop-color="#73ECFF"/>
</linearGradient>
<radialGradient id="paint1_radial" cx="0" cy="0" r="1" gradientUnits="userSpaceOnUse" gradientTransform="translate(127.753 42.7165) scale(29.0692)">
<stop stop-color="#6B23EA"/>
<stop offset="0.0449" stop-color="#6538E6" stop-opacity="0.955"/>
<stop offset="0.141" stop-color="#5B5FE0" stop-opacity="0.859"/>
<stop offset="0.244" stop-color="#5180DA" stop-opacity="0.756"/>
<stop offset="0.3536" stop-color="#4A9CD5" stop-opacity="0.646"/>
<stop offset="0.4722" stop-color="#44B1D2" stop-opacity="0.528"/>
<stop offset="0.6041" stop-color="#40C0CF" stop-opacity="0.396"/>
<stop offset="0.7599" stop-color="#3EC8CD" stop-opacity="0.24"/>
<stop offset="1" stop-color="#3DCBCD" stop-opacity="0"/>
</radialGradient>
<linearGradient id="paint2_linear" x1="116.233" y1="60.782" x2="151.227" y2="25.7879" gradientUnits="userSpaceOnUse">
<stop stop-color="#389FFF"/>
<stop offset="0.1209" stop-color="#45AFFA"/>
<stop offset="0.5726" stop-color="#73E9E7"/>
<stop offset="0.79" stop-color="#85FFE0"/>
<stop offset="0.8218" stop-color="#90FFE3"/>
<stop offset="0.938" stop-color="#B4FFEC"/>
<stop offset="1" stop-color="#C2FFF0"/>
</linearGradient>
<radialGradient id="paint3_radial" cx="0" cy="0" r="1" gradientUnits="userSpaceOnUse" gradientTransform="translate(125.883 68.7798) scale(20.7424)">
<stop stop-color="#3DCBCD" stop-opacity="0"/>
<stop offset="0.4052" stop-color="#3EC9CD" stop-opacity="0.405"/>
<stop offset="0.5512" stop-color="#3FC2CE" stop-opacity="0.551"/>
<stop offset="0.6552" stop-color="#43B7D1" stop-opacity="0.655"/>
<stop offset="0.7394" stop-color="#47A6D3" stop-opacity="0.739"/>
<stop offset="0.8115" stop-color="#4D90D7" stop-opacity="0.812"/>
<stop offset="0.8753" stop-color="#5574DC" stop-opacity="0.875"/>
<stop offset="0.933" stop-color="#5E54E2" stop-opacity="0.933"/>
<stop offset="0.9844" stop-color="#6830E8" stop-opacity="0.984"/>
<stop offset="1" stop-color="#6B23EA"/>
</radialGradient>
<linearGradient id="paint4_linear" x1="100.456" y1="70.7996" x2="146.76" y2="24.495" gradientUnits="userSpaceOnUse">
<stop stop-color="#389FFF"/>
<stop offset="0.1209" stop-color="#45AFFA"/>
<stop offset="0.5726" stop-color="#73E9E7"/>
<stop offset="0.79" stop-color="#85FFE0"/>
<stop offset="0.8799" stop-color="#9DFFE6"/>
<stop offset="0.9973" stop-color="#C2FFF0"/>
</linearGradient>
<linearGradient id="paint5_linear" x1="123.643" y1="38.6326" x2="134.453" y2="27.8219" gradientUnits="userSpaceOnUse">
<stop stop-color="#560DFF"/>
<stop offset="1" stop-color="#73ECFF"/>
</linearGradient>
<linearGradient id="paint6_linear" x1="126.292" y1="35.9838" x2="133.7" y2="28.5755" gradientUnits="userSpaceOnUse">
<stop stop-color="#560DFF"/>
<stop offset="1" stop-color="#73ECFF"/>
</linearGradient>
<linearGradient id="paint7_linear" x1="110.742" y1="54.5374" x2="137.421" y2="27.8581" gradientUnits="userSpaceOnUse">
<stop stop-color="#389FFF"/>
<stop offset="0.1209" stop-color="#45AFFA"/>
<stop offset="0.5726" stop-color="#73E9E7"/>
<stop offset="0.79" stop-color="#85FFE0"/>
<stop offset="0.8218" stop-color="#90FFE3"/>
<stop offset="0.938" stop-color="#B4FFEC"/>
<stop offset="1" stop-color="#C2FFF0"/>
</linearGradient>
<radialGradient id="paint8_radial" cx="0" cy="0" r="1" gradientUnits="userSpaceOnUse" gradientTransform="translate(116.919 62.9973) scale(19.2827)">
<stop stop-color="#3DCBCD" stop-opacity="0"/>
<stop offset="0.4052" stop-color="#3EC9CD" stop-opacity="0.405"/>
<stop offset="0.5512" stop-color="#3FC2CE" stop-opacity="0.551"/>
<stop offset="0.6552" stop-color="#43B7D1" stop-opacity="0.655"/>
<stop offset="0.7394" stop-color="#47A6D3" stop-opacity="0.739"/>
<stop offset="0.8115" stop-color="#4D90D7" stop-opacity="0.812"/>
<stop offset="0.8753" stop-color="#5574DC" stop-opacity="0.875"/>
<stop offset="0.933" stop-color="#5E54E2" stop-opacity="0.933"/>
<stop offset="0.9844" stop-color="#6830E8" stop-opacity="0.984"/>
<stop offset="1" stop-color="#6B23EA"/>
</radialGradient>
<linearGradient id="paint9_linear" x1="110.886" y1="54.1016" x2="148.902" y2="16.0855" gradientUnits="userSpaceOnUse">
<stop stop-color="#389FFF"/>
<stop offset="0.1209" stop-color="#45AFFA"/>
<stop offset="0.5726" stop-color="#73E9E7"/>
<stop offset="0.79" stop-color="#85FFE0"/>
<stop offset="0.881" stop-color="#9DFFE6"/>
<stop offset="1" stop-color="#C2FFF0"/>
</linearGradient>
<linearGradient id="paint10_linear" x1="89.8878" y1="76.268" x2="130.515" y2="35.641" gradientUnits="userSpaceOnUse">
<stop stop-color="#389FFF"/>
<stop offset="0.1209" stop-color="#45AFFA"/>
<stop offset="0.5726" stop-color="#73E9E7"/>
<stop offset="0.79" stop-color="#85FFE0"/>
<stop offset="0.881" stop-color="#9DFFE6"/>
<stop offset="1" stop-color="#C2FFF0"/>
</linearGradient>
</defs>
</svg>

