<svg width="21" height="20" viewBox="0 0 21 20" fill="none" xmlns="http://www.w3.org/2000/svg">
<path fill-rule="evenodd" clip-rule="evenodd" d="M11.5528 0.0330807C10.0801 -0.0866822 8.59895 0.119644 7.21524 0.637346L7.02395 0.708915L7.64423 2.3614C7.82086 2.83196 8.33561 3.05202 8.79749 2.92617C9.62193 2.70153 10.481 2.6213 11.3362 2.69085C12.4175 2.77877 13.4659 3.10394 14.4067 3.6431C15.3475 4.18226 16.1575 4.9221 16.7787 5.80978C17.237 6.46457 17.5843 7.18789 17.8086 7.95069C17.9698 8.49872 18.5051 8.89867 19.0961 8.79734L20.6666 8.52811L20.632 8.32679C20.3818 6.87256 19.8132 5.49143 18.9668 4.28199C18.1203 3.07256 17.0169 2.06465 15.7353 1.3302C14.4537 0.595746 13.0256 0.152844 11.5528 0.0330807ZM5.57575 3.37557L4.56346 2.15392L4.40669 2.2834C3.26806 3.22382 2.35138 4.40366 1.72213 5.73871C1.09289 7.07375 0.766602 8.53106 0.766602 10.0066C0.766601 11.4821 1.09289 12.9394 1.72213 14.2745C2.35138 15.6095 3.26806 16.7893 4.40669 17.7298L4.56346 17.8592L5.57575 16.6376C5.95972 16.1742 5.87956 15.508 5.4832 15.0948C4.93285 14.5211 4.47789 13.8608 4.13754 13.1387C3.67573 12.1589 3.43629 11.0894 3.43629 10.0066C3.43629 8.92377 3.67573 7.8543 4.13754 6.8745C4.47789 6.15238 4.93285 5.49209 5.4832 4.91838C5.87956 4.5052 5.95972 3.83897 5.57575 3.37557ZM19.0962 11.2027C18.5051 11.1013 17.9699 11.5013 17.8087 12.0493C17.5843 12.8121 17.237 13.5354 16.7788 14.1902C16.1575 15.0779 15.3476 15.8177 14.4068 16.3569C13.466 16.8961 12.4175 17.2212 11.3362 17.3092C10.5376 17.3741 9.73572 17.3084 8.96175 17.1166C8.40813 16.9793 7.79377 17.2403 7.58294 17.802L7.024 19.2911L7.21529 19.3627C8.599 19.8804 10.0801 20.0867 11.5529 19.9669C13.0256 19.8472 14.4538 19.4043 15.7354 18.6698C17.017 17.9353 18.1204 16.9274 18.9668 15.718C19.8133 14.5086 20.3819 13.1274 20.632 11.6732L20.6666 11.4719L19.0962 11.2027Z" fill="#0D51FF"/>
<path d="M6.0888 8.64287C6.08784 8.64842 6.11025 8.64287 6.08734 8.64287V13.8869H7.8997V8.64287C7.85544 8.64287 7.8997 8.64287 7.8945 8.64287C7.55818 8.64287 7.31911 8.64287 6.9758 8.64287C6.64643 8.64287 6.39774 8.64287 6.0888 8.64287Z" fill="white"/>
<path d="M7.96521 6.991C7.96521 7.53831 7.52528 7.982 6.98261 7.982C6.43993 7.982 6 7.53831 6 6.991C6 6.44369 6.43993 6 6.98261 6C7.52528 6 7.96521 6.44369 7.96521 6.991Z" fill="white"/>
<path fill-rule="evenodd" clip-rule="evenodd" d="M11.0861 12.3031C11.0861 12.3289 11.1068 12.3498 11.1324 12.3498C11.5085 12.3498 12.3312 12.3143 12.919 11.8176C13.3421 11.4629 13.8501 10.7889 13.8501 9.91385C13.8501 9.0626 13.3421 8.51866 13.0365 8.21122C12.4489 7.61998 11.6847 7.53721 11.1324 7.53721C11.1068 7.53721 11.0861 7.55811 11.0861 7.5839V12.3031ZM11.3205 6C12.3547 6 13.4479 6.15372 14.4118 7.08788C15.1053 7.76189 15.5401 8.68423 15.5401 9.91387C15.5401 11.1555 15.1169 12.0542 14.4706 12.7045C13.3891 13.8041 12.0375 13.8869 11.3792 13.8869H9.27586V6H11.3205Z" fill="white"/>
</svg>

