<svg width="342" height="532" viewBox="0 0 342 532" fill="none" xmlns="http://www.w3.org/2000/svg">
<rect width="342" height="532" fill="white"/>
<path d="M34.6699 29H36.4404L32.708 19.0537H31.0605L27.3486 29H29.1123L29.8574 26.8604H33.918L34.6699 29ZM30.3701 25.3975L31.8809 21.0908H31.8945L33.4053 25.3975H30.3701ZM42.791 18.6914V22.9912H42.7568C42.2373 22.376 41.5127 22.0684 40.5967 22.0684C40.1318 22.0684 39.6943 22.1572 39.291 22.335C38.8809 22.5127 38.5322 22.7588 38.2451 23.0664C37.9512 23.3809 37.7188 23.7568 37.5547 24.1943C37.3838 24.6387 37.3018 25.1104 37.3018 25.6162C37.3018 26.0332 37.3496 26.4229 37.459 26.792C37.5684 27.1611 37.7188 27.4824 37.917 27.7627C38.1152 28.043 38.3477 28.2822 38.6211 28.4873C38.8945 28.6924 39.1953 28.8496 39.5371 28.9521C39.8789 29.0615 40.2344 29.1094 40.6104 29.1094C41.5674 29.1094 42.3125 28.7676 42.832 28.084H42.8594V29H44.3564V18.6914H42.791ZM40.8564 27.6875C40.2754 27.6875 39.8037 27.4961 39.4414 27.1133C39.0723 26.7305 38.8945 26.2314 38.8945 25.623C38.8945 25.3086 38.9424 25.0146 39.0449 24.7412C39.1475 24.4678 39.291 24.2422 39.4688 24.0645C39.6465 23.8867 39.8516 23.7432 40.0908 23.6406C40.3301 23.5449 40.5898 23.4902 40.8633 23.4902C41.4443 23.4902 41.9229 23.6953 42.292 24.0986C42.6611 24.5088 42.8525 25.0146 42.8525 25.623C42.8525 26.2383 42.6611 26.7305 42.2783 27.1133C41.8955 27.4961 41.417 27.6875 40.8564 27.6875ZM51.4727 18.6914V22.9912H51.4385C50.9189 22.376 50.1943 22.0684 49.2783 22.0684C48.8135 22.0684 48.376 22.1572 47.9727 22.335C47.5625 22.5127 47.2139 22.7588 46.9268 23.0664C46.6328 23.3809 46.4004 23.7568 46.2363 24.1943C46.0654 24.6387 45.9834 25.1104 45.9834 25.6162C45.9834 26.0332 46.0312 26.4229 46.1406 26.792C46.25 27.1611 46.4004 27.4824 46.5986 27.7627C46.7969 28.043 47.0293 28.2822 47.3027 28.4873C47.5762 28.6924 47.877 28.8496 48.2188 28.9521C48.5605 29.0615 48.916 29.1094 49.292 29.1094C50.249 29.1094 50.9941 28.7676 51.5137 28.084H51.541V29H53.0381V18.6914H51.4727ZM49.5381 27.6875C48.957 27.6875 48.4854 27.4961 48.123 27.1133C47.7539 26.7305 47.5762 26.2314 47.5762 25.623C47.5762 25.3086 47.624 25.0146 47.7266 24.7412C47.8291 24.4678 47.9727 24.2422 48.1504 24.0645C48.3281 23.8867 48.5332 23.7432 48.7725 23.6406C49.0117 23.5449 49.2715 23.4902 49.5449 23.4902C50.126 23.4902 50.6045 23.6953 50.9736 24.0986C51.3428 24.5088 51.5342 25.0146 51.5342 25.623C51.5342 26.2383 51.3428 26.7305 50.96 27.1133C50.5771 27.4961 50.0986 27.6875 49.5381 27.6875ZM61.9043 29.1094C62.5332 29.1094 63.1006 29 63.6133 28.7744C64.126 28.5557 64.543 28.2617 64.8574 27.9062L63.7773 26.9492C63.7021 27.0312 63.6201 27.1133 63.5312 27.1816C63.4355 27.2568 63.3398 27.3252 63.2305 27.3867C63.1211 27.4482 63.0049 27.5029 62.8818 27.5439C62.7588 27.5918 62.6221 27.626 62.4785 27.6533C62.335 27.6807 62.1914 27.6875 62.0479 27.6875C61.6514 27.6875 61.2959 27.6055 60.9883 27.4277C60.6807 27.25 60.4414 27.0039 60.2705 26.6826C60.0996 26.3682 60.0176 25.999 60.0176 25.582C60.0176 25.1719 60.0996 24.8096 60.2705 24.4951C60.4346 24.1807 60.6738 23.9346 60.9814 23.7568C61.2822 23.5791 61.6377 23.4902 62.041 23.4902C62.3965 23.4902 62.7246 23.5586 63.0186 23.6953C63.3057 23.832 63.5586 24.0234 63.7637 24.2627L64.8301 23.3398C64.4951 22.9297 64.0713 22.6152 63.5586 22.3965C63.0391 22.1777 62.5059 22.0684 61.959 22.0684C61.2754 22.0684 60.6602 22.2188 60.127 22.5127C59.5938 22.8135 59.1768 23.2305 58.876 23.7637C58.5752 24.2969 58.4248 24.9121 58.4248 25.5957C58.4248 26.2861 58.5684 26.9014 58.8691 27.4346C59.1699 27.9678 59.5801 28.3848 60.1133 28.6719C60.6396 28.9658 61.2344 29.1094 61.9043 29.1094ZM71.29 22.1709V22.9912H71.2627C70.7432 22.376 70.0391 22.0684 69.1504 22.0684C68.6855 22.0684 68.248 22.1572 67.8447 22.335C67.4346 22.5127 67.0859 22.7588 66.7988 23.0664C66.5049 23.3809 66.2725 23.7568 66.1084 24.1943C65.9375 24.6387 65.8555 25.1104 65.8555 25.6162C65.8555 26.0332 65.9033 26.4229 66.0127 26.792C66.1221 27.1611 66.2725 27.4824 66.4707 27.7627C66.6689 28.043 66.9014 28.2822 67.1748 28.4873C67.4482 28.6924 67.749 28.8496 68.0908 28.9521C68.4326 29.0615 68.7881 29.1094 69.1641 29.1094C70.0938 29.1094 70.8184 28.7676 71.3379 28.084H71.3584V29H72.8555V22.1709H71.29ZM69.4102 27.6875C68.8291 27.6875 68.3574 27.4961 67.9951 27.1133C67.626 26.7305 67.4482 26.2314 67.4482 25.623C67.4482 25.3086 67.4961 25.0146 67.5986 24.7412C67.7012 24.4678 67.8447 24.2422 68.0225 24.0645C68.2002 23.8867 68.4053 23.7432 68.6445 23.6406C68.8838 23.5449 69.1436 23.4902 69.417 23.4902C69.9707 23.4902 70.4287 23.6953 70.7979 24.1055C71.167 24.5156 71.3516 25.0215 71.3516 25.623C71.3516 26.2314 71.1602 26.7305 70.7842 27.1133C70.4082 27.4961 69.9502 27.6875 69.4102 27.6875ZM78.543 22.0684C78.126 22.0684 77.7363 22.1709 77.3672 22.3623C76.998 22.5537 76.6836 22.834 76.417 23.1963H76.3965V22.1709H74.8311V29H76.3965V25.7598C76.3965 25.3906 76.4648 25.0557 76.6084 24.7617C76.752 24.4678 76.9639 24.2354 77.251 24.0576C77.5381 23.8867 77.873 23.7979 78.2627 23.7979C78.3994 23.7979 78.5566 23.8047 78.7344 23.8184V22.0752C78.6934 22.0752 78.6318 22.0684 78.543 22.0684ZM84.9277 18.6914V22.9912H84.8936C84.374 22.376 83.6494 22.0684 82.7334 22.0684C82.2686 22.0684 81.8311 22.1572 81.4277 22.335C81.0176 22.5127 80.6689 22.7588 80.3818 23.0664C80.0879 23.3809 79.8555 23.7568 79.6914 24.1943C79.5205 24.6387 79.4385 25.1104 79.4385 25.6162C79.4385 26.0332 79.4863 26.4229 79.5957 26.792C79.7051 27.1611 79.8555 27.4824 80.0537 27.7627C80.252 28.043 80.4844 28.2822 80.7578 28.4873C81.0312 28.6924 81.332 28.8496 81.6738 28.9521C82.0156 29.0615 82.3711 29.1094 82.7471 29.1094C83.7041 29.1094 84.4492 28.7676 84.9688 28.084H84.9961V29H86.4932V18.6914H84.9277ZM82.9932 27.6875C82.4121 27.6875 81.9404 27.4961 81.5781 27.1133C81.209 26.7305 81.0312 26.2314 81.0312 25.623C81.0312 25.3086 81.0791 25.0146 81.1816 24.7412C81.2842 24.4678 81.4277 24.2422 81.6055 24.0645C81.7832 23.8867 81.9883 23.7432 82.2275 23.6406C82.4668 23.5449 82.7266 23.4902 83 23.4902C83.5811 23.4902 84.0596 23.6953 84.4287 24.0986C84.7979 24.5088 84.9893 25.0146 84.9893 25.623C84.9893 26.2383 84.7979 26.7305 84.415 27.1133C84.0322 27.4961 83.5537 27.6875 82.9932 27.6875ZM94.5732 28.4189H96.0225V25.8418H98.6064V24.4062H96.0225V21.8154H94.5732V24.4062H91.9893V25.8418H94.5732V28.4189Z" fill="#1342BA"/>
<path d="M32.7832 304.075C33.6104 304.075 34.3486 303.911 34.9912 303.569C35.6338 303.234 36.1943 302.776 36.6592 302.195L35.75 301.43C34.9434 302.421 33.959 302.913 32.7832 302.913C32.3594 302.913 31.9629 302.858 31.5938 302.742C31.2178 302.633 30.876 302.462 30.5752 302.243C30.2744 302.024 30.0078 301.758 29.7891 301.45C29.5703 301.143 29.3994 300.787 29.2764 300.377C29.1533 299.974 29.0986 299.536 29.0986 299.071C29.0986 298.306 29.2422 297.629 29.543 297.034C29.8369 296.439 30.2676 295.975 30.8281 295.633C31.3887 295.298 32.0381 295.127 32.7832 295.127C33.3506 295.127 33.8906 295.257 34.4033 295.517C34.916 295.776 35.3672 296.146 35.75 296.624L36.6592 295.865C36.3037 295.435 35.9141 295.072 35.4766 294.785C35.0391 294.498 34.5947 294.286 34.1504 294.156C33.7061 294.033 33.248 293.965 32.7832 293.965C32.1543 293.965 31.5801 294.054 31.0469 294.225C30.5137 294.402 30.0488 294.642 29.6592 294.949C29.2627 295.264 28.9277 295.626 28.6543 296.05C28.374 296.474 28.1689 296.945 28.0322 297.458C27.8955 297.971 27.8271 298.511 27.8271 299.071C27.8271 299.707 27.9092 300.295 28.0801 300.835C28.251 301.382 28.4902 301.847 28.7979 302.243C29.0986 302.64 29.4609 302.975 29.8779 303.248C30.2881 303.528 30.7461 303.733 31.2383 303.87C31.7305 304.007 32.2432 304.075 32.7832 304.075ZM43.502 297.185V298.196H43.4746C43.1875 297.841 42.8457 297.574 42.4424 297.383C42.0391 297.198 41.6016 297.103 41.1367 297.103C40.501 297.103 39.9268 297.26 39.4209 297.567C38.9082 297.875 38.5117 298.299 38.2246 298.832C37.9375 299.372 37.8008 299.974 37.8008 300.637C37.8008 301.149 37.8828 301.621 38.0605 302.052C38.2314 302.489 38.4639 302.852 38.7646 303.146C39.0654 303.446 39.4209 303.679 39.8311 303.843C40.2412 304.007 40.6787 304.089 41.1436 304.089C41.6357 304.089 42.0869 303.986 42.4971 303.781C42.9072 303.576 43.249 303.289 43.5293 302.92H43.5498V304H44.6367V297.185H43.502ZM41.2529 303.05C40.5693 303.05 40.0156 302.824 39.5918 302.373C39.168 301.922 38.9561 301.341 38.9561 300.644C38.9561 299.898 39.1748 299.297 39.6123 298.832C40.0498 298.374 40.6035 298.142 41.2666 298.142C41.5811 298.142 41.8818 298.21 42.1689 298.34C42.4492 298.47 42.6885 298.647 42.8936 298.866C43.0918 299.092 43.249 299.358 43.3652 299.666C43.4814 299.974 43.543 300.302 43.543 300.644C43.543 300.999 43.4814 301.327 43.3584 301.628C43.2354 301.929 43.0645 302.188 42.8594 302.394C42.6475 302.599 42.4014 302.763 42.1279 302.879C41.8477 302.995 41.5537 303.05 41.2529 303.05ZM50.1055 297.103C49.6406 297.103 49.2236 297.219 48.8408 297.438C48.458 297.656 48.1436 297.971 47.8906 298.374H47.8633V297.185H46.7285V304H47.8633V300.712C47.8633 300.261 47.9453 299.851 48.1094 299.495C48.2734 299.14 48.5127 298.859 48.8271 298.654C49.1416 298.449 49.5107 298.347 49.9346 298.347C50.0713 298.347 50.2217 298.354 50.3857 298.367V297.116C50.3311 297.109 50.2354 297.103 50.1055 297.103ZM56.7637 293.691V298.196H56.7432C56.5518 297.964 56.3398 297.759 56.0938 297.595C55.8477 297.431 55.5879 297.308 55.3076 297.226C55.0205 297.144 54.7266 297.103 54.4258 297.103C53.9473 297.103 53.5029 297.198 53.0928 297.376C52.6758 297.554 52.3203 297.8 52.0332 298.114C51.7393 298.429 51.5068 298.798 51.3428 299.235C51.1719 299.673 51.0898 300.145 51.0898 300.637C51.0898 301.149 51.1719 301.621 51.3496 302.052C51.5205 302.489 51.7529 302.852 52.0537 303.146C52.3545 303.446 52.71 303.679 53.1201 303.843C53.5303 304.007 53.9678 304.089 54.4326 304.089C54.7607 304.089 55.0684 304.048 55.3623 303.952C55.6562 303.856 55.9229 303.727 56.1621 303.549C56.3945 303.378 56.6064 303.166 56.791 302.92H56.8115V304H57.8984V293.691H56.7637ZM54.542 303.05C53.8584 303.05 53.3047 302.824 52.8809 302.373C52.457 301.922 52.2451 301.341 52.2451 300.644C52.2451 299.898 52.4639 299.297 52.9014 298.832C53.3389 298.374 53.8926 298.142 54.5557 298.142C54.8701 298.142 55.1641 298.21 55.4443 298.34C55.7178 298.47 55.957 298.647 56.1553 298.866C56.3535 299.092 56.5107 299.358 56.627 299.666C56.7432 299.974 56.8047 300.302 56.8047 300.644C56.8047 300.999 56.7432 301.327 56.6201 301.628C56.4971 301.929 56.3262 302.188 56.1211 302.394C55.916 302.599 55.6699 302.763 55.3965 302.879C55.123 302.995 54.8359 303.05 54.542 303.05ZM69.1777 293.691V298.196H69.1572C68.9658 297.964 68.7539 297.759 68.5078 297.595C68.2617 297.431 68.002 297.308 67.7217 297.226C67.4346 297.144 67.1406 297.103 66.8398 297.103C66.3613 297.103 65.917 297.198 65.5068 297.376C65.0898 297.554 64.7344 297.8 64.4473 298.114C64.1533 298.429 63.9209 298.798 63.7568 299.235C63.5859 299.673 63.5039 300.145 63.5039 300.637C63.5039 301.149 63.5859 301.621 63.7637 302.052C63.9346 302.489 64.167 302.852 64.4678 303.146C64.7686 303.446 65.124 303.679 65.5342 303.843C65.9443 304.007 66.3818 304.089 66.8467 304.089C67.1748 304.089 67.4824 304.048 67.7764 303.952C68.0703 303.856 68.3369 303.727 68.5762 303.549C68.8086 303.378 69.0205 303.166 69.2051 302.92H69.2256V304H70.3125V293.691H69.1777ZM66.9561 303.05C66.2725 303.05 65.7188 302.824 65.2949 302.373C64.8711 301.922 64.6592 301.341 64.6592 300.644C64.6592 299.898 64.8779 299.297 65.3154 298.832C65.7529 298.374 66.3066 298.142 66.9697 298.142C67.2842 298.142 67.5781 298.21 67.8584 298.34C68.1318 298.47 68.3711 298.647 68.5693 298.866C68.7676 299.092 68.9248 299.358 69.041 299.666C69.1572 299.974 69.2188 300.302 69.2188 300.644C69.2188 300.999 69.1572 301.327 69.0342 301.628C68.9111 301.929 68.7402 302.188 68.5352 302.394C68.3301 302.599 68.084 302.763 67.8105 302.879C67.5371 302.995 67.25 303.05 66.9561 303.05ZM78.4951 300.486C78.4951 299.844 78.3584 299.263 78.0986 298.75C77.8389 298.237 77.4629 297.834 76.9844 297.54C76.499 297.253 75.9453 297.103 75.3232 297.103C74.8652 297.103 74.4346 297.191 74.0381 297.362C73.6348 297.54 73.2861 297.779 72.999 298.08C72.7119 298.381 72.4795 298.75 72.3154 299.188C72.1445 299.625 72.0625 300.09 72.0625 300.596C72.0625 301.108 72.1445 301.58 72.3223 302.018C72.4932 302.455 72.7324 302.824 73.0332 303.125C73.334 303.426 73.6895 303.665 74.1064 303.836C74.5234 304.007 74.9746 304.089 75.4531 304.089C76.0479 304.089 76.5811 303.979 77.0459 303.747C77.5107 303.515 77.9004 303.2 78.208 302.804L77.415 302.127C77.1826 302.407 76.9092 302.633 76.5879 302.797C76.2598 302.961 75.8975 303.043 75.4941 303.043C74.8789 303.043 74.3662 302.858 73.9561 302.476C73.5391 302.093 73.293 301.587 73.2246 300.951H78.4609C78.4814 300.814 78.4951 300.664 78.4951 300.486ZM75.3848 298.148C75.918 298.148 76.3555 298.319 76.7041 298.654C77.0527 298.996 77.2715 299.447 77.3672 300.008H73.252C73.3545 299.44 73.6006 298.989 73.9902 298.654C74.3799 298.319 74.8447 298.148 75.3848 298.148ZM82.1387 304.089C82.3848 304.089 82.624 304.068 82.8428 304.027C83.0615 303.986 83.2324 303.932 83.3691 303.877C83.499 303.822 83.6357 303.747 83.7861 303.665L83.4854 302.674C83.0752 302.906 82.6924 303.022 82.3369 303.022C82.0225 303.022 81.8105 302.927 81.6875 302.735C81.5645 302.544 81.5029 302.229 81.5029 301.799V298.169H83.7588V297.185H81.5029V294.73L80.3682 294.854V297.185H79.5V298.169H80.3682V301.97C80.3682 303.385 80.9561 304.089 82.1387 304.089ZM90.3008 297.185V298.196H90.2734C89.9863 297.841 89.6445 297.574 89.2412 297.383C88.8379 297.198 88.4004 297.103 87.9355 297.103C87.2998 297.103 86.7256 297.26 86.2197 297.567C85.707 297.875 85.3105 298.299 85.0234 298.832C84.7363 299.372 84.5996 299.974 84.5996 300.637C84.5996 301.149 84.6816 301.621 84.8594 302.052C85.0303 302.489 85.2627 302.852 85.5635 303.146C85.8643 303.446 86.2197 303.679 86.6299 303.843C87.04 304.007 87.4775 304.089 87.9424 304.089C88.4346 304.089 88.8857 303.986 89.2959 303.781C89.7061 303.576 90.0479 303.289 90.3281 302.92H90.3486V304H91.4355V297.185H90.3008ZM88.0518 303.05C87.3682 303.05 86.8145 302.824 86.3906 302.373C85.9668 301.922 85.7549 301.341 85.7549 300.644C85.7549 299.898 85.9736 299.297 86.4111 298.832C86.8486 298.374 87.4023 298.142 88.0654 298.142C88.3799 298.142 88.6807 298.21 88.9678 298.34C89.248 298.47 89.4873 298.647 89.6924 298.866C89.8906 299.092 90.0479 299.358 90.1641 299.666C90.2803 299.974 90.3418 300.302 90.3418 300.644C90.3418 300.999 90.2803 301.327 90.1572 301.628C90.0342 301.929 89.8633 302.188 89.6582 302.394C89.4463 302.599 89.2002 302.763 88.9268 302.879C88.6465 302.995 88.3525 303.05 88.0518 303.05ZM94.2041 295.92C94.4229 295.92 94.6143 295.845 94.7715 295.688C94.9287 295.537 95.0107 295.346 95.0107 295.127C95.0107 294.983 94.9697 294.847 94.9014 294.724C94.8262 294.601 94.7305 294.505 94.6074 294.437C94.4844 294.368 94.3477 294.327 94.2041 294.327C93.9717 294.327 93.7803 294.409 93.6299 294.56C93.4727 294.717 93.3975 294.908 93.3975 295.127C93.3975 295.346 93.4727 295.537 93.6299 295.688C93.7803 295.845 93.9717 295.92 94.2041 295.92ZM93.6299 304H94.7578V297.185H93.6299V304ZM97.1299 304H98.2578V293.691H97.1299V304ZM102.605 304.089C103.002 304.089 103.357 304.041 103.672 303.938C103.986 303.836 104.246 303.692 104.444 303.515C104.643 303.337 104.793 303.125 104.896 302.893C104.998 302.66 105.053 302.407 105.053 302.134C105.053 301.847 105.005 301.601 104.916 301.389C104.766 301.054 104.458 300.767 103.993 300.534C103.843 300.466 103.398 300.288 102.674 300.001C102.455 299.919 102.284 299.851 102.154 299.789C102.018 299.728 101.888 299.652 101.758 299.563C101.628 299.481 101.532 299.386 101.471 299.276C101.409 299.174 101.382 299.058 101.382 298.928C101.382 298.695 101.484 298.504 101.696 298.354C101.908 298.203 102.154 298.128 102.428 298.128C103.084 298.128 103.692 298.367 104.239 298.839L104.827 297.943C104.144 297.383 103.357 297.103 102.482 297.103C101.833 297.103 101.293 297.28 100.869 297.629C100.438 297.978 100.227 298.408 100.227 298.928C100.227 299.174 100.261 299.393 100.336 299.591C100.411 299.796 100.507 299.96 100.623 300.097C100.732 300.233 100.89 300.363 101.081 300.486C101.272 300.609 101.45 300.705 101.628 300.78C101.806 300.862 102.018 300.944 102.277 301.026C102.312 301.04 102.366 301.061 102.441 301.081C102.585 301.136 102.694 301.177 102.763 301.204C102.831 301.231 102.927 301.266 103.043 301.307C103.152 301.348 103.241 301.389 103.296 301.416C103.351 301.443 103.419 301.484 103.501 301.525C103.583 301.573 103.638 301.614 103.679 301.655C103.713 301.696 103.754 301.737 103.795 301.792C103.836 301.847 103.863 301.901 103.877 301.956C103.891 302.018 103.897 302.079 103.897 302.147C103.897 302.407 103.781 302.626 103.549 302.797C103.316 302.975 103.002 303.057 102.605 303.057C102.154 303.057 101.765 302.988 101.437 302.852C101.108 302.715 100.808 302.517 100.521 302.243L99.9326 303.104C100.671 303.761 101.56 304.089 102.605 304.089Z" fill="#AFB0B3"/>
<g filter="url(#filter0_d)">
<mask id="mask0" mask-type="alpha" maskUnits="userSpaceOnUse" x="27" y="84" width="285" height="179">
<path d="M293.297 84H45.7031C35.3737 84 27 92.3737 27 102.703V243.422C27 253.751 35.3737 262.125 45.7031 262.125H293.297C303.626 262.125 312 253.751 312 243.422V102.703C312 92.3737 303.626 84 293.297 84Z" fill="white"/>
</mask>
<g mask="url(#mask0)">
<path d="M293.297 84H45.7031C35.3737 84 27 92.3737 27 102.703V243.422C27 253.751 35.3737 262.125 45.7031 262.125H293.297C303.626 262.125 312 253.751 312 243.422V102.703C312 92.3737 303.626 84 293.297 84Z" fill="url(#paint0_linear)"/>
<path style="mix-blend-mode:soft-light" opacity="0.5" fill-rule="evenodd" clip-rule="evenodd" d="M17.0156 269.584C43.5528 191.4 78.2652 139.214 121.153 113.024C164.04 86.8343 227.451 76.1155 311.386 80.8677V269.584H17.0156Z" fill="url(#paint1_linear)"/>
<path style="mix-blend-mode:soft-light" opacity="0.5" fill-rule="evenodd" clip-rule="evenodd" d="M82.2188 269.358C108.756 191.174 143.468 138.988 186.356 112.798C229.244 86.6082 292.655 75.8894 376.589 80.6416V269.358H82.2188Z" fill="url(#paint2_linear)"/>
<path style="mix-blend-mode:multiply" opacity="0.5" fill-rule="evenodd" clip-rule="evenodd" d="M22.6992 269.358C24.777 218.323 67.0987 201.863 149.664 219.979C232.23 238.095 288.366 186.708 318.073 65.8186L325.561 269.358H22.6992Z" fill="url(#paint3_linear)"/>
</g>
<path d="M53.733 139.9H49.9995V149.875H51.054V146.726H53.733C56.2695 146.726 57.8085 145.443 57.8085 143.32C57.8085 141.182 56.2695 139.9 53.733 139.9ZM53.7045 145.799H51.054V140.812H53.7045C55.6995 140.812 56.754 141.724 56.754 143.32C56.754 144.887 55.6995 145.799 53.7045 145.799ZM60.2848 149.875H61.2965V139.301H60.2848V149.875ZM67.0044 142.322C65.8217 142.322 64.7102 142.693 63.9549 143.334L64.4109 144.089C65.0237 143.548 65.9357 143.206 66.9047 143.206C68.3012 143.206 69.0279 143.904 69.0279 145.187V145.643H66.6482C64.4964 145.643 63.7554 146.612 63.7554 147.766C63.7554 149.063 64.7957 149.946 66.4914 149.946C67.7312 149.946 68.6147 149.476 69.0707 148.706V149.875H70.0397V145.229C70.0397 143.291 68.9424 142.322 67.0044 142.322ZM66.6482 149.148C65.4512 149.148 64.7529 148.607 64.7529 147.737C64.7529 146.968 65.2232 146.398 66.6767 146.398H69.0279V147.623C68.6289 148.607 67.7882 149.148 66.6482 149.148ZM76.6494 148.692C76.3644 148.949 75.9512 149.077 75.5379 149.077C74.6972 149.077 74.2412 148.592 74.2412 147.709V143.234H76.5212V142.379H74.2412V140.741H73.2294V142.379H71.8899V143.234H73.2294V147.766C73.2294 149.148 74.0132 149.946 75.4239 149.946C76.0082 149.946 76.6067 149.775 77.0057 149.419L76.6494 148.692ZM79.6313 140.741C80.0588 140.741 80.3723 140.413 80.3723 140C80.3723 139.615 80.0445 139.301 79.6313 139.301C79.218 139.301 78.8903 139.629 78.8903 140.014C78.8903 140.413 79.218 140.741 79.6313 140.741ZM79.1183 149.875H80.13V142.379H79.1183V149.875ZM87.0349 142.322C85.7382 142.322 84.7264 142.85 84.1849 143.762V142.379H83.2159V149.875H84.2277V145.942C84.2277 144.232 85.2394 143.234 86.8497 143.234C88.2747 143.234 89.1012 144.047 89.1012 145.628V149.875H90.1129V145.529C90.1129 143.377 88.8589 142.322 87.0349 142.322ZM98.8732 142.379V146.312C98.8732 148.022 97.89 149.034 96.3225 149.034C94.8975 149.034 94.071 148.222 94.071 146.626V142.379H93.0592V146.726C93.0592 148.877 94.3132 149.946 96.2227 149.946C97.4197 149.946 98.3887 149.419 98.916 148.507V149.875H99.885V142.379H98.8732ZM112.337 142.322C110.984 142.322 109.915 142.935 109.373 143.904C108.917 142.85 107.948 142.322 106.709 142.322C105.455 142.322 104.486 142.85 103.958 143.747V142.379H102.989V149.875H104.001V145.942C104.001 144.232 104.984 143.234 106.509 143.234C107.877 143.234 108.675 144.047 108.675 145.628V149.875H109.687V145.942C109.687 144.232 110.656 143.234 112.195 143.234C113.549 143.234 114.347 144.047 114.347 145.628V149.875H115.358V145.529C115.358 143.377 114.161 142.322 112.337 142.322Z" fill="white"/>
<path d="M51.282 231.898C50.8545 231.898 50.4603 231.798 50.0993 231.599C49.7383 231.39 49.4533 231.105 49.2443 230.744C49.0448 230.383 48.945 229.979 48.945 229.532C48.945 229.086 49.0448 228.687 49.2443 228.335C49.4533 227.974 49.7335 227.694 50.085 227.495C50.446 227.295 50.845 227.195 51.282 227.195C51.719 227.195 52.118 227.295 52.479 227.495C52.84 227.694 53.125 227.974 53.334 228.335C53.543 228.687 53.6475 229.086 53.6475 229.532C53.6475 229.979 53.543 230.383 53.334 230.744C53.125 231.105 52.84 231.39 52.479 231.599C52.118 231.798 51.719 231.898 51.282 231.898ZM61.9404 231.898C61.5129 231.898 61.1187 231.798 60.7577 231.599C60.3967 231.39 60.1117 231.105 59.9027 230.744C59.7032 230.383 59.6034 229.979 59.6034 229.532C59.6034 229.086 59.7032 228.687 59.9027 228.335C60.1117 227.974 60.3919 227.694 60.7434 227.495C61.1044 227.295 61.5034 227.195 61.9404 227.195C62.3774 227.195 62.7764 227.295 63.1374 227.495C63.4984 227.694 63.7834 227.974 63.9924 228.335C64.2014 228.687 64.3059 229.086 64.3059 229.532C64.3059 229.979 64.2014 230.383 63.9924 230.744C63.7834 231.105 63.4984 231.39 63.1374 231.599C62.7764 231.798 62.3774 231.898 61.9404 231.898ZM72.5989 231.898C72.1714 231.898 71.7771 231.798 71.4161 231.599C71.0551 231.39 70.7701 231.105 70.5611 230.744C70.3616 230.383 70.2619 229.979 70.2619 229.532C70.2619 229.086 70.3616 228.687 70.5611 228.335C70.7701 227.974 71.0504 227.694 71.4019 227.495C71.7629 227.295 72.1619 227.195 72.5989 227.195C73.0359 227.195 73.4349 227.295 73.7959 227.495C74.1569 227.694 74.4419 227.974 74.6509 228.335C74.8599 228.687 74.9644 229.086 74.9644 229.532C74.9644 229.979 74.8599 230.383 74.6509 230.744C74.4419 231.105 74.1569 231.39 73.7959 231.599C73.4349 231.798 73.0359 231.898 72.5989 231.898ZM83.2573 231.898C82.8298 231.898 82.4356 231.798 82.0746 231.599C81.7136 231.39 81.4286 231.105 81.2196 230.744C81.0201 230.383 80.9203 229.979 80.9203 229.532C80.9203 229.086 81.0201 228.687 81.2196 228.335C81.4286 227.974 81.7088 227.694 82.0603 227.495C82.4213 227.295 82.8203 227.195 83.2573 227.195C83.6943 227.195 84.0933 227.295 84.4543 227.495C84.8153 227.694 85.1003 227.974 85.3093 228.335C85.5183 228.687 85.6228 229.086 85.6228 229.532C85.6228 229.979 85.5183 230.383 85.3093 230.744C85.1003 231.105 84.8153 231.39 84.4543 231.599C84.0933 231.798 83.6943 231.898 83.2573 231.898Z" fill="white"/>
<path d="M98.0719 234.503C96.9034 234.503 96.0104 234.061 95.3929 233.178C94.7849 232.285 94.4809 231.007 94.4809 229.345C94.4809 227.654 94.7849 226.376 95.3929 225.511C96.0104 224.637 96.9034 224.2 98.0719 224.2C99.2499 224.2 100.143 224.637 100.751 225.511C101.359 226.376 101.663 227.649 101.663 229.33C101.663 231.002 101.354 232.285 100.737 233.178C100.129 234.061 99.2404 234.503 98.0719 234.503ZM98.0719 233.278C98.7939 233.278 99.3306 232.959 99.6821 232.323C100.034 231.686 100.209 230.689 100.209 229.33C100.209 227.972 100.034 226.984 99.6821 226.366C99.3401 225.739 98.8034 225.426 98.0719 225.426C97.3499 225.426 96.8131 225.739 96.4616 226.366C96.1101 226.993 95.9344 227.981 95.9344 229.33C95.9344 230.689 96.1101 231.686 96.4616 232.323C96.8131 232.959 97.3499 233.278 98.0719 233.278ZM104.978 234.375V233.278L108.326 229.687C108.792 229.183 109.124 228.727 109.324 228.319C109.533 227.91 109.637 227.497 109.637 227.079C109.637 225.996 109.001 225.454 107.728 225.454C106.759 225.454 105.89 225.82 105.12 226.552L104.593 225.426C104.973 225.055 105.457 224.761 106.046 224.542C106.635 224.314 107.248 224.2 107.885 224.2C108.92 224.2 109.713 224.438 110.264 224.913C110.825 225.388 111.105 226.067 111.105 226.951C111.105 227.549 110.958 228.133 110.663 228.703C110.378 229.273 109.927 229.881 109.31 230.527L106.83 233.135H111.504V234.375H104.978ZM115.403 234.375V233.135H117.683V226.039L115.902 227.15L115.303 226.053L118.11 224.329H119.151V233.135H121.288V234.375H115.403ZM124.916 234.375V233.278L128.265 229.687C128.731 229.183 129.063 228.727 129.263 228.319C129.472 227.91 129.576 227.497 129.576 227.079C129.576 225.996 128.94 225.454 127.667 225.454C126.698 225.454 125.828 225.82 125.059 226.552L124.532 225.426C124.912 225.055 125.396 224.761 125.985 224.542C126.574 224.314 127.187 224.2 127.823 224.2C128.859 224.2 129.652 224.438 130.203 224.913C130.764 225.388 131.044 226.067 131.044 226.951C131.044 227.549 130.897 228.133 130.602 228.703C130.317 229.273 129.866 229.881 129.248 230.527L126.769 233.135H131.443V234.375H124.916Z" fill="white"/>
<path fill-rule="evenodd" clip-rule="evenodd" d="M95.0422 106.275L94.2955 110.71C92.0564 109.443 86.9605 109.143 86.9605 111.477C86.9605 112.405 88.1135 113.043 89.5032 113.811C91.6108 114.978 94.2627 116.445 94.2627 119.68C94.2627 124.85 88.8754 126.75 85.3052 126.75C81.735 126.75 79.3986 125.584 79.3986 125.584L80.177 120.947C82.3188 122.715 88.8104 123.216 88.8104 120.414C88.8104 119.237 87.5327 118.543 86.051 117.738C84.0064 116.627 81.5732 115.305 81.5732 112.211C81.5732 106.542 87.7395 105.375 90.3361 105.375C92.7381 105.375 95.0422 106.275 95.0422 106.275ZM107.696 126.394H112.5L108.311 105.744H104.105C102.162 105.744 101.689 107.283 101.689 107.283L93.8858 126.394H99.3398L100.431 123.327H107.082L107.696 126.394ZM101.938 119.09L104.687 111.362L106.234 119.09H101.938ZM61.5511 119.948L66.5394 105.745H72.1708L63.8461 126.395H58.3943L53.8483 108.455C50.8974 106.633 48.375 106.094 48.375 106.094L48.4718 105.745H56.7186C58.9878 105.745 59.2007 107.604 59.2007 107.604L60.9613 116.89L60.9608 116.889L61.5511 119.948ZM70.942 126.394H76.1745L79.4453 105.745H74.2123L70.942 126.394Z" fill="white"/>
</g>
<rect y="52" width="342" height="2" fill="#F5F5F5"/>
<rect y="324" width="342" height="2" fill="#F5F5F5"/>
<rect y="428" width="342" height="2" fill="#F5F5F5"/>
<rect x="27" y="362" width="55" height="24.7887" rx="4" fill="#E5E5E5"/>
<path fill-rule="evenodd" clip-rule="evenodd" d="M62.4654 369.447L62.0715 371.787C60.8902 371.118 58.2017 370.96 58.2017 372.191C58.2017 372.681 58.81 373.017 59.5432 373.423C60.6551 374.038 62.0542 374.812 62.0542 376.519C62.0542 379.246 59.212 380.249 57.3285 380.249C55.4449 380.249 54.2123 379.633 54.2123 379.633L54.623 377.188C55.7529 378.12 59.1777 378.384 59.1777 376.906C59.1777 376.285 58.5036 375.919 57.7219 375.494C56.6432 374.908 55.3596 374.211 55.3596 372.579C55.3596 369.588 58.6127 368.972 59.9826 368.972C61.2498 368.972 62.4654 369.447 62.4654 369.447ZM69.1414 380.061H71.6762L69.4662 369.167H67.2468C66.2221 369.167 65.9725 369.979 65.9725 369.979L61.8558 380.061H64.7331L65.3086 378.443H68.8178L69.1414 380.061ZM66.1038 376.208L67.5543 372.131L68.3703 376.208H66.1038ZM44.797 376.66L47.4287 369.167H50.3996L46.0078 380.061H43.1316L40.7333 370.597C39.1765 369.636 37.8457 369.351 37.8457 369.351L37.8968 369.167H42.2475C43.4447 369.167 43.557 370.148 43.557 370.148L44.4858 375.047L44.4856 375.047L44.797 376.66ZM49.7511 380.061H52.5116L54.2372 369.167H51.4764L49.7511 380.061Z" fill="white"/>
<path d="M99.5 371H100.994L98.9258 368.012L100.959 365.146H99.418L98.1641 366.986H98.1348L96.8926 365.146H95.3398L97.3848 368.018L95.3281 371H96.8105L98.1465 369.154H98.1699L99.5 371ZM105.708 371H107.202L105.134 368.012L107.167 365.146H105.626L104.372 366.986H104.343L103.101 365.146H101.548L103.593 368.018L101.536 371H103.019L104.355 369.154H104.378L105.708 371ZM111.916 371H113.41L111.342 368.012L113.375 365.146H111.834L110.58 366.986H110.551L109.309 365.146H107.756L109.801 368.018L107.744 371H109.227L110.563 369.154H110.586L111.916 371ZM118.124 371H119.619L117.55 368.012L119.583 365.146H118.042L116.788 366.986H116.759L115.517 365.146H113.964L116.009 368.018L113.952 371H115.435L116.771 369.154H116.794L118.124 371ZM127.423 371H128.918L126.849 368.012L128.882 365.146H127.341L126.087 366.986H126.058L124.816 365.146H123.263L125.308 368.018L123.252 371H124.734L126.07 369.154H126.093L127.423 371ZM133.632 371H135.126L133.057 368.012L135.091 365.146H133.55L132.296 366.986H132.266L131.024 365.146H129.471L131.516 368.018L129.46 371H130.942L132.278 369.154H132.301L133.632 371ZM139.84 371H141.334L139.265 368.012L141.299 365.146H139.758L138.504 366.986H138.474L137.232 365.146H135.68L137.724 368.018L135.668 371H137.15L138.486 369.154H138.51L139.84 371ZM146.048 371H147.542L145.474 368.012L147.507 365.146H145.966L144.712 366.986H144.683L143.44 365.146H141.888L143.933 368.018L141.876 371H143.358L144.694 369.154H144.718L146.048 371ZM155.347 371H156.841L154.773 368.012L156.806 365.146H155.265L154.011 366.986H153.982L152.739 365.146H151.187L153.232 368.018L151.175 371H152.657L153.993 369.154H154.017L155.347 371ZM161.555 371H163.049L160.981 368.012L163.014 365.146H161.473L160.219 366.986H160.19L158.948 365.146H157.395L159.44 368.018L157.383 371H158.866L160.201 369.154H160.225L161.555 371ZM167.763 371H169.257L167.189 368.012L169.222 365.146H167.681L166.427 366.986H166.398L165.156 365.146H163.603L165.648 368.018L163.591 371H165.074L166.41 369.154H166.433L167.763 371ZM173.971 371H175.465L173.397 368.012L175.43 365.146H173.889L172.635 366.986H172.606L171.364 365.146H169.811L171.856 368.018L169.799 371H171.282L172.618 369.154H172.641L173.971 371ZM182.702 365.744C182.075 365.744 181.518 365.891 181.038 366.184L181.02 366.178C181.477 364.936 182.503 364.086 184.108 363.641L183.669 362.475C183.059 362.592 182.497 362.803 181.97 363.113C181.442 363.43 180.991 363.811 180.61 364.268C180.229 364.725 179.93 365.258 179.714 365.861C179.491 366.471 179.386 367.109 179.386 367.777C179.386 368.27 179.462 368.727 179.614 369.143C179.766 369.559 179.971 369.91 180.235 370.191C180.499 370.479 180.809 370.701 181.173 370.859C181.53 371.018 181.917 371.094 182.327 371.094C182.872 371.094 183.37 370.982 183.815 370.748C184.261 370.52 184.618 370.197 184.876 369.787C185.134 369.377 185.262 368.908 185.262 368.393C185.262 367.982 185.192 367.613 185.063 367.273C184.934 366.939 184.753 366.658 184.524 366.436C184.29 366.213 184.02 366.043 183.71 365.926C183.393 365.809 183.059 365.744 182.702 365.744ZM182.415 369.805C182.186 369.805 181.97 369.764 181.77 369.67C181.565 369.576 181.389 369.453 181.237 369.289C181.085 369.131 180.962 368.932 180.874 368.697C180.78 368.463 180.739 368.211 180.739 367.941V367.83C180.927 367.596 181.167 367.396 181.448 367.238C181.729 367.086 182.034 367.004 182.362 367.004C182.813 367.004 183.177 367.133 183.458 367.391C183.733 367.648 183.874 367.977 183.874 368.375C183.874 368.527 183.85 368.68 183.804 368.82C183.757 368.961 183.692 369.096 183.61 369.213C183.522 369.33 183.423 369.436 183.305 369.523C183.188 369.611 183.048 369.682 182.895 369.729C182.743 369.781 182.579 369.805 182.415 369.805ZM189.291 365.709C188.986 365.709 188.629 365.768 188.225 365.885L188.33 364.033H191.488V362.762H187.029L186.783 367.08L187.539 367.344C187.891 367.057 188.342 366.91 188.881 366.91C189.08 366.91 189.273 366.945 189.461 367.01C189.648 367.074 189.824 367.162 189.976 367.279C190.129 367.396 190.246 367.543 190.34 367.73C190.434 367.918 190.48 368.117 190.48 368.34C190.48 368.768 190.334 369.119 190.041 369.395C189.748 369.676 189.355 369.811 188.863 369.811C188.5 369.811 188.178 369.734 187.891 369.582C187.598 369.43 187.363 369.225 187.182 368.955L186.174 369.764C186.49 370.197 186.894 370.525 187.387 370.754C187.879 370.988 188.406 371.1 188.98 371.1C189.555 371.1 190.059 370.988 190.504 370.754C190.949 370.525 191.289 370.203 191.529 369.787C191.769 369.377 191.893 368.902 191.893 368.363C191.893 367.965 191.822 367.596 191.687 367.256C191.547 366.916 191.359 366.635 191.125 366.412C190.891 366.189 190.615 366.02 190.299 365.896C189.982 365.773 189.643 365.709 189.291 365.709ZM194.925 369.729V369.705L196.677 367.883C196.935 367.613 197.151 367.361 197.327 367.121C197.503 366.887 197.644 366.652 197.749 366.424C197.855 366.201 197.925 365.979 197.972 365.768C198.019 365.557 198.042 365.334 198.042 365.1C198.042 364.736 197.972 364.396 197.831 364.086C197.69 363.775 197.497 363.518 197.263 363.312C197.022 363.113 196.747 362.955 196.442 362.844C196.132 362.732 195.81 362.674 195.47 362.674C194.831 362.674 194.292 362.814 193.847 363.096C193.401 363.377 193.05 363.758 192.798 364.232L193.8 364.941C194.175 364.291 194.696 363.963 195.37 363.963C195.61 363.963 195.827 364.021 196.021 364.133C196.214 364.25 196.366 364.402 196.472 364.596C196.577 364.795 196.636 365.012 196.636 365.246C196.636 365.574 196.536 365.891 196.343 366.201C196.144 366.518 195.851 366.875 195.464 367.285L192.815 370.074L192.833 371H198.136V369.729H194.925ZM198.883 362.762V364.033H202.445L199.574 370.906L200.975 371.164L203.998 363.682V362.762H198.883Z" fill="#1C1C1C"/>
<path d="M274.306 368.721C274.306 368.551 274.288 368.393 274.265 368.24C274.236 368.094 274.2 367.959 274.154 367.836C274.107 367.719 274.048 367.602 273.966 367.496C273.884 367.391 273.802 367.297 273.72 367.215C273.638 367.133 273.533 367.057 273.404 366.975C273.275 366.893 273.152 366.828 273.04 366.77C272.929 366.711 272.788 366.652 272.624 366.588C272.454 366.529 272.302 366.477 272.167 366.43C272.027 366.383 271.863 366.33 271.663 366.266C271.406 366.184 271.2 366.113 271.042 366.049C270.884 365.984 270.738 365.908 270.603 365.82C270.468 365.738 270.368 365.639 270.31 365.533C270.251 365.428 270.222 365.311 270.222 365.17C270.222 364.906 270.322 364.701 270.527 364.555C270.726 364.408 271.007 364.332 271.359 364.332C271.546 364.332 271.74 364.361 271.95 364.408C272.161 364.455 272.378 364.531 272.613 364.637C272.841 364.742 273.064 364.865 273.275 365.018L274.089 363.998C273.82 363.787 273.509 363.6 273.146 363.436C272.783 363.271 272.413 363.154 272.044 363.078V361.508H270.96V363.02C270.257 363.084 269.706 363.318 269.308 363.729C268.909 364.139 268.716 364.654 268.716 365.264C268.716 365.475 268.74 365.668 268.786 365.844C268.833 366.02 268.898 366.178 268.98 366.307C269.056 366.436 269.161 366.564 269.296 366.682C269.431 366.799 269.56 366.898 269.689 366.98C269.818 367.062 269.976 367.139 270.169 367.221C270.363 367.303 270.538 367.373 270.691 367.426C270.843 367.479 271.031 367.537 271.259 367.607C271.54 367.695 271.763 367.771 271.933 367.842C272.103 367.912 272.255 367.994 272.396 368.088C272.536 368.182 272.636 368.293 272.695 368.41C272.753 368.527 272.783 368.668 272.783 368.826C272.783 368.967 272.753 369.096 272.695 369.213C272.636 369.33 272.554 369.424 272.449 369.5C272.343 369.576 272.214 369.635 272.068 369.676C271.915 369.723 271.757 369.74 271.581 369.74C271.218 369.74 270.837 369.664 270.45 369.5C270.058 369.342 269.7 369.107 269.378 368.791L268.534 369.811C269.22 370.49 270.029 370.889 270.96 371.018V372.459H272.044V371.023C272.747 370.941 273.298 370.695 273.702 370.285C274.101 369.875 274.306 369.354 274.306 368.721ZM277.28 369.729V369.705L279.032 367.883C279.289 367.613 279.506 367.361 279.682 367.121C279.858 366.887 279.998 366.652 280.104 366.424C280.209 366.201 280.28 365.979 280.327 365.768C280.373 365.557 280.397 365.334 280.397 365.1C280.397 364.736 280.327 364.396 280.186 364.086C280.045 363.775 279.852 363.518 279.618 363.312C279.377 363.113 279.102 362.955 278.797 362.844C278.487 362.732 278.164 362.674 277.825 362.674C277.186 362.674 276.647 362.814 276.202 363.096C275.756 363.377 275.405 363.758 275.153 364.232L276.155 364.941C276.53 364.291 277.051 363.963 277.725 363.963C277.965 363.963 278.182 364.021 278.375 364.133C278.569 364.25 278.721 364.402 278.827 364.596C278.932 364.795 278.991 365.012 278.991 365.246C278.991 365.574 278.891 365.891 278.698 366.201C278.498 366.518 278.205 366.875 277.819 367.285L275.17 370.074L275.188 371H280.491V369.729H277.28ZM284.507 365.709C284.203 365.709 283.845 365.768 283.441 365.885L283.546 364.033H286.705V362.762H282.246L282 367.08L282.755 367.344C283.107 367.057 283.558 366.91 284.097 366.91C284.296 366.91 284.49 366.945 284.677 367.01C284.865 367.074 285.041 367.162 285.193 367.279C285.345 367.396 285.462 367.543 285.556 367.73C285.65 367.918 285.697 368.117 285.697 368.34C285.697 368.768 285.55 369.119 285.257 369.395C284.964 369.676 284.572 369.811 284.08 369.811C283.716 369.811 283.394 369.734 283.107 369.582C282.814 369.43 282.58 369.225 282.398 368.955L281.39 369.764C281.707 370.197 282.111 370.525 282.603 370.754C283.095 370.988 283.623 371.1 284.197 371.1C284.771 371.1 285.275 370.988 285.72 370.754C286.166 370.525 286.505 370.203 286.746 369.787C286.986 369.377 287.109 368.902 287.109 368.363C287.109 367.965 287.039 367.596 286.904 367.256C286.763 366.916 286.576 366.635 286.341 366.412C286.107 366.189 285.832 366.02 285.515 365.896C285.199 365.773 284.859 365.709 284.507 365.709ZM291.284 371.094C291.934 371.094 292.503 370.918 292.983 370.561C293.464 370.209 293.833 369.711 294.079 369.078C294.325 368.445 294.454 367.713 294.454 366.881C294.454 366.225 294.372 365.627 294.219 365.094C294.061 364.566 293.844 364.121 293.563 363.77C293.282 363.418 292.948 363.143 292.561 362.955C292.174 362.768 291.747 362.668 291.284 362.668C290.633 362.668 290.071 362.85 289.59 363.201C289.11 363.559 288.741 364.057 288.495 364.689C288.243 365.322 288.12 366.055 288.12 366.881C288.12 367.537 288.196 368.135 288.354 368.668C288.506 369.201 288.723 369.646 289.005 369.998C289.286 370.35 289.62 370.625 290.006 370.812C290.393 371 290.815 371.094 291.284 371.094ZM291.29 369.805C290.751 369.805 290.323 369.547 290.006 369.025C289.69 368.504 289.532 367.789 289.532 366.881C289.532 365.967 289.684 365.246 290.001 364.73C290.311 364.215 290.739 363.957 291.29 363.957C291.829 363.957 292.251 364.215 292.567 364.73C292.883 365.246 293.042 365.967 293.042 366.881C293.042 367.801 292.883 368.516 292.579 369.031C292.268 369.547 291.84 369.805 291.29 369.805ZM296.414 371.094C296.66 371.094 296.871 371.012 297.047 370.836C297.222 370.66 297.316 370.449 297.316 370.203C297.316 369.957 297.222 369.746 297.047 369.57C296.871 369.395 296.66 369.307 296.414 369.307C296.244 369.307 296.092 369.348 295.951 369.43C295.81 369.512 295.699 369.617 295.617 369.758C295.535 369.898 295.5 370.045 295.5 370.203C295.5 370.449 295.588 370.66 295.763 370.836C295.939 371.012 296.156 371.094 296.414 371.094ZM301.421 365.709C301.116 365.709 300.759 365.768 300.354 365.885L300.46 364.033H303.618V362.762H299.159L298.913 367.08L299.669 367.344C300.02 367.057 300.472 366.91 301.011 366.91C301.21 366.91 301.403 366.945 301.591 367.01C301.778 367.074 301.954 367.162 302.106 367.279C302.259 367.396 302.376 367.543 302.47 367.73C302.563 367.918 302.61 368.117 302.61 368.34C302.61 368.768 302.464 369.119 302.171 369.395C301.878 369.676 301.485 369.811 300.993 369.811C300.63 369.811 300.308 369.734 300.02 369.582C299.727 369.43 299.493 369.225 299.311 368.955L298.304 369.764C298.62 370.197 299.024 370.525 299.516 370.754C300.009 370.988 300.536 371.1 301.11 371.1C301.684 371.1 302.188 370.988 302.634 370.754C303.079 370.525 303.419 370.203 303.659 369.787C303.899 369.377 304.022 368.902 304.022 368.363C304.022 367.965 303.952 367.596 303.817 367.256C303.677 366.916 303.489 366.635 303.255 366.412C303.02 366.189 302.745 366.02 302.429 365.896C302.112 365.773 301.772 365.709 301.421 365.709ZM308.197 371.094C308.848 371.094 309.416 370.918 309.896 370.561C310.377 370.209 310.746 369.711 310.992 369.078C311.238 368.445 311.367 367.713 311.367 366.881C311.367 366.225 311.285 365.627 311.133 365.094C310.975 364.566 310.758 364.121 310.477 363.77C310.195 363.418 309.861 363.143 309.475 362.955C309.088 362.768 308.66 362.668 308.197 362.668C307.547 362.668 306.984 362.85 306.504 363.201C306.023 363.559 305.654 364.057 305.408 364.689C305.156 365.322 305.033 366.055 305.033 366.881C305.033 367.537 305.109 368.135 305.268 368.668C305.42 369.201 305.637 369.646 305.918 369.998C306.199 370.35 306.533 370.625 306.92 370.812C307.307 371 307.729 371.094 308.197 371.094ZM308.203 369.805C307.664 369.805 307.236 369.547 306.92 369.025C306.604 368.504 306.445 367.789 306.445 366.881C306.445 365.967 306.598 365.246 306.914 364.73C307.225 364.215 307.652 363.957 308.203 363.957C308.742 363.957 309.164 364.215 309.48 364.73C309.797 365.246 309.955 365.967 309.955 366.881C309.955 367.801 309.797 368.516 309.492 369.031C309.182 369.547 308.754 369.805 308.203 369.805Z" fill="#1C1C1C"/>
<path d="M99.957 387.064C100.666 387.064 101.299 386.924 101.85 386.631C102.4 386.344 102.881 385.951 103.279 385.453L102.5 384.797C101.809 385.646 100.965 386.068 99.957 386.068C99.5938 386.068 99.2539 386.021 98.9375 385.922C98.6152 385.828 98.3223 385.682 98.0645 385.494C97.8066 385.307 97.5781 385.078 97.3906 384.814C97.2031 384.551 97.0566 384.246 96.9512 383.895C96.8457 383.549 96.7988 383.174 96.7988 382.775C96.7988 382.119 96.9219 381.539 97.1797 381.029C97.4316 380.52 97.8008 380.121 98.2812 379.828C98.7617 379.541 99.3184 379.395 99.957 379.395C100.443 379.395 100.906 379.506 101.346 379.729C101.785 379.951 102.172 380.268 102.5 380.678L103.279 380.027C102.975 379.658 102.641 379.348 102.266 379.102C101.891 378.855 101.51 378.674 101.129 378.562C100.748 378.457 100.355 378.398 99.957 378.398C99.418 378.398 98.9258 378.475 98.4688 378.621C98.0117 378.773 97.6133 378.979 97.2793 379.242C96.9395 379.512 96.6523 379.822 96.418 380.186C96.1777 380.549 96.002 380.953 95.8848 381.393C95.7676 381.832 95.709 382.295 95.709 382.775C95.709 383.32 95.7793 383.824 95.9258 384.287C96.0723 384.756 96.2773 385.154 96.541 385.494C96.7988 385.834 97.1094 386.121 97.4668 386.355C97.8184 386.596 98.2109 386.771 98.6328 386.889C99.0547 387.006 99.4941 387.064 99.957 387.064ZM107.443 381.088C107.044 381.088 106.687 381.188 106.359 381.375C106.03 381.562 105.761 381.832 105.544 382.178H105.521V381.158H104.548V387H105.521V384.182C105.521 383.795 105.591 383.443 105.732 383.139C105.872 382.834 106.077 382.594 106.347 382.418C106.616 382.242 106.933 382.154 107.296 382.154C107.413 382.154 107.542 382.16 107.683 382.172V381.1C107.636 381.094 107.554 381.088 107.443 381.088ZM113.668 383.988C113.668 383.438 113.551 382.939 113.328 382.5C113.106 382.061 112.783 381.715 112.373 381.463C111.957 381.217 111.483 381.088 110.949 381.088C110.557 381.088 110.188 381.164 109.848 381.311C109.502 381.463 109.203 381.668 108.957 381.926C108.711 382.184 108.512 382.5 108.371 382.875C108.225 383.25 108.155 383.648 108.155 384.082C108.155 384.521 108.225 384.926 108.377 385.301C108.524 385.676 108.729 385.992 108.987 386.25C109.244 386.508 109.549 386.713 109.906 386.859C110.264 387.006 110.651 387.076 111.061 387.076C111.571 387.076 112.028 386.982 112.426 386.783C112.824 386.584 113.158 386.314 113.422 385.975L112.742 385.395C112.543 385.635 112.309 385.828 112.033 385.969C111.752 386.109 111.442 386.18 111.096 386.18C110.569 386.18 110.129 386.021 109.778 385.693C109.42 385.365 109.209 384.932 109.151 384.387H113.639C113.656 384.27 113.668 384.141 113.668 383.988ZM111.002 381.984C111.459 381.984 111.834 382.131 112.133 382.418C112.432 382.711 112.619 383.098 112.701 383.578H109.174C109.262 383.092 109.473 382.705 109.807 382.418C110.141 382.131 110.539 381.984 111.002 381.984ZM119.519 378.164V382.025H119.501C119.337 381.826 119.156 381.65 118.945 381.51C118.734 381.369 118.511 381.264 118.271 381.193C118.025 381.123 117.773 381.088 117.515 381.088C117.105 381.088 116.724 381.17 116.372 381.322C116.015 381.475 115.71 381.686 115.464 381.955C115.212 382.225 115.013 382.541 114.872 382.916C114.726 383.291 114.656 383.695 114.656 384.117C114.656 384.557 114.726 384.961 114.878 385.33C115.025 385.705 115.224 386.016 115.482 386.268C115.74 386.525 116.044 386.725 116.396 386.865C116.747 387.006 117.122 387.076 117.521 387.076C117.802 387.076 118.066 387.041 118.318 386.959C118.57 386.877 118.798 386.766 119.003 386.613C119.202 386.467 119.384 386.285 119.542 386.074H119.56V387H120.492V378.164H119.519ZM117.615 386.186C117.029 386.186 116.554 385.992 116.191 385.605C115.827 385.219 115.646 384.721 115.646 384.123C115.646 383.484 115.833 382.969 116.208 382.57C116.583 382.178 117.058 381.979 117.626 381.979C117.896 381.979 118.148 382.037 118.388 382.148C118.622 382.26 118.827 382.412 118.997 382.6C119.167 382.793 119.302 383.021 119.402 383.285C119.501 383.549 119.554 383.83 119.554 384.123C119.554 384.428 119.501 384.709 119.396 384.967C119.29 385.225 119.144 385.447 118.968 385.623C118.792 385.799 118.581 385.939 118.347 386.039C118.113 386.139 117.867 386.186 117.615 386.186ZM122.815 380.074C123.002 380.074 123.166 380.01 123.301 379.875C123.436 379.746 123.506 379.582 123.506 379.395C123.506 379.271 123.471 379.154 123.413 379.049C123.348 378.943 123.266 378.861 123.161 378.803C123.055 378.744 122.938 378.709 122.815 378.709C122.616 378.709 122.452 378.779 122.323 378.908C122.188 379.043 122.124 379.207 122.124 379.395C122.124 379.582 122.188 379.746 122.323 379.875C122.452 380.01 122.616 380.074 122.815 380.074ZM122.323 387H123.29V381.158H122.323V387ZM126.709 387.076C126.92 387.076 127.125 387.059 127.312 387.023C127.5 386.988 127.646 386.941 127.763 386.895C127.875 386.848 127.992 386.783 128.121 386.713L127.863 385.863C127.511 386.062 127.183 386.162 126.879 386.162C126.609 386.162 126.427 386.08 126.322 385.916C126.216 385.752 126.164 385.482 126.164 385.113V382.002H128.097V381.158H126.164V379.055L125.191 379.16V381.158H124.447V382.002H125.191V385.26C125.191 386.473 125.695 387.076 126.709 387.076ZM135.023 387.076C135.521 387.076 135.984 386.988 136.406 386.801C136.828 386.619 137.174 386.379 137.437 386.086L136.764 385.482C136.576 385.693 136.336 385.863 136.043 385.992C135.75 386.121 135.433 386.18 135.105 386.18C134.519 386.18 134.039 385.986 133.67 385.6C133.301 385.213 133.119 384.703 133.119 384.082C133.119 383.461 133.301 382.957 133.67 382.564C134.039 382.178 134.519 381.979 135.105 381.979C135.439 381.979 135.75 382.049 136.031 382.178C136.312 382.307 136.553 382.488 136.74 382.711L137.414 382.125C137.133 381.791 136.781 381.533 136.359 381.352C135.937 381.176 135.504 381.082 135.058 381.082C134.49 381.082 133.986 381.211 133.541 381.463C133.096 381.721 132.75 382.072 132.504 382.529C132.258 382.986 132.135 383.508 132.135 384.088C132.135 384.674 132.258 385.189 132.504 385.646C132.75 386.104 133.09 386.455 133.529 386.701C133.969 386.953 134.467 387.076 135.023 387.076ZM143.177 381.158V382.025H143.153C142.907 381.721 142.614 381.492 142.269 381.328C141.923 381.17 141.548 381.088 141.149 381.088C140.604 381.088 140.112 381.223 139.679 381.486C139.239 381.75 138.899 382.113 138.653 382.57C138.407 383.033 138.29 383.549 138.29 384.117C138.29 384.557 138.36 384.961 138.513 385.33C138.659 385.705 138.858 386.016 139.116 386.268C139.374 386.525 139.679 386.725 140.03 386.865C140.382 387.006 140.757 387.076 141.155 387.076C141.577 387.076 141.964 386.988 142.315 386.812C142.667 386.637 142.96 386.391 143.2 386.074H143.218V387H144.149V381.158H143.177ZM141.249 386.186C140.663 386.186 140.188 385.992 139.825 385.605C139.462 385.219 139.28 384.721 139.28 384.123C139.28 383.484 139.468 382.969 139.843 382.57C140.218 382.178 140.692 381.979 141.261 381.979C141.53 381.979 141.788 382.037 142.034 382.148C142.274 382.26 142.479 382.412 142.655 382.6C142.825 382.793 142.96 383.021 143.06 383.285C143.159 383.549 143.212 383.83 143.212 384.123C143.212 384.428 143.159 384.709 143.054 384.967C142.948 385.225 142.802 385.447 142.626 385.623C142.444 385.799 142.233 385.939 141.999 386.039C141.759 386.139 141.507 386.186 141.249 386.186ZM148.717 381.088C148.318 381.088 147.961 381.188 147.633 381.375C147.305 381.562 147.035 381.832 146.818 382.178H146.795V381.158H145.822V387H146.795V384.182C146.795 383.795 146.865 383.443 147.006 383.139C147.147 382.834 147.352 382.594 147.621 382.418C147.891 382.242 148.207 382.154 148.57 382.154C148.688 382.154 148.816 382.16 148.957 382.172V381.1C148.91 381.094 148.828 381.088 148.717 381.088ZM154.304 378.164V382.025H154.286C154.122 381.826 153.941 381.65 153.73 381.51C153.519 381.369 153.296 381.264 153.056 381.193C152.81 381.123 152.558 381.088 152.3 381.088C151.89 381.088 151.509 381.17 151.157 381.322C150.8 381.475 150.495 381.686 150.249 381.955C149.997 382.225 149.798 382.541 149.657 382.916C149.511 383.291 149.441 383.695 149.441 384.117C149.441 384.557 149.511 384.961 149.663 385.33C149.81 385.705 150.009 386.016 150.267 386.268C150.525 386.525 150.829 386.725 151.181 386.865C151.532 387.006 151.907 387.076 152.306 387.076C152.587 387.076 152.851 387.041 153.103 386.959C153.355 386.877 153.583 386.766 153.788 386.613C153.987 386.467 154.169 386.285 154.327 386.074H154.345V387H155.277V378.164H154.304ZM152.4 386.186C151.814 386.186 151.339 385.992 150.976 385.605C150.612 385.219 150.431 384.721 150.431 384.123C150.431 383.484 150.618 382.969 150.993 382.57C151.368 382.178 151.843 381.979 152.411 381.979C152.681 381.979 152.933 382.037 153.173 382.148C153.407 382.26 153.612 382.412 153.782 382.6C153.952 382.793 154.087 383.021 154.187 383.285C154.286 383.549 154.339 383.83 154.339 384.123C154.339 384.428 154.286 384.709 154.181 384.967C154.075 385.225 153.929 385.447 153.753 385.623C153.577 385.799 153.366 385.939 153.132 386.039C152.898 386.139 152.652 386.186 152.4 386.186Z" fill="#646466"/>
<path d="M272.847 382.518V382.5C273.292 382.348 273.626 382.096 273.861 381.744C274.089 381.393 274.206 381 274.206 380.555C274.206 380.203 274.142 379.893 274.013 379.623C273.884 379.354 273.697 379.137 273.456 378.973C273.21 378.809 272.923 378.68 272.589 378.598C272.255 378.516 271.88 378.475 271.458 378.475H268.675V387H271.781C272.249 387 272.671 386.947 273.034 386.83C273.398 386.719 273.697 386.561 273.931 386.355C274.159 386.15 274.335 385.91 274.452 385.629C274.57 385.348 274.628 385.037 274.628 384.691C274.628 384.387 274.581 384.111 274.488 383.859C274.394 383.607 274.265 383.391 274.101 383.215C273.937 383.039 273.749 382.887 273.538 382.77C273.327 382.652 273.093 382.57 272.847 382.518ZM269.718 379.436H271.241C271.57 379.436 271.857 379.471 272.103 379.529C272.349 379.594 272.542 379.682 272.695 379.799C272.841 379.916 272.952 380.057 273.023 380.215C273.093 380.373 273.134 380.555 273.134 380.76C273.134 380.959 273.099 381.135 273.034 381.293C272.97 381.457 272.882 381.586 272.777 381.686C272.665 381.791 272.536 381.873 272.39 381.943C272.243 382.014 272.091 382.066 271.933 382.096C271.775 382.125 271.611 382.137 271.447 382.137H269.718V379.436ZM271.488 386.039H269.718V383.074H271.534C271.962 383.074 272.325 383.139 272.63 383.262C272.929 383.385 273.152 383.561 273.304 383.783C273.456 384.012 273.533 384.281 273.533 384.598C273.533 385.072 273.345 385.43 272.982 385.676C272.613 385.922 272.115 386.039 271.488 386.039ZM280.608 381.158V382.025H280.584C280.338 381.721 280.045 381.492 279.7 381.328C279.354 381.17 278.979 381.088 278.58 381.088C278.036 381.088 277.543 381.223 277.11 381.486C276.67 381.75 276.33 382.113 276.084 382.57C275.838 383.033 275.721 383.549 275.721 384.117C275.721 384.557 275.791 384.961 275.944 385.33C276.09 385.705 276.289 386.016 276.547 386.268C276.805 386.525 277.11 386.725 277.461 386.865C277.813 387.006 278.188 387.076 278.586 387.076C279.008 387.076 279.395 386.988 279.746 386.812C280.098 386.637 280.391 386.391 280.631 386.074H280.649V387H281.58V381.158H280.608ZM278.68 386.186C278.094 386.186 277.62 385.992 277.256 385.605C276.893 385.219 276.711 384.721 276.711 384.123C276.711 383.484 276.899 382.969 277.274 382.57C277.649 382.178 278.123 381.979 278.692 381.979C278.961 381.979 279.219 382.037 279.465 382.148C279.705 382.26 279.911 382.412 280.086 382.6C280.256 382.793 280.391 383.021 280.491 383.285C280.59 383.549 280.643 383.83 280.643 384.123C280.643 384.428 280.59 384.709 280.485 384.967C280.379 385.225 280.233 385.447 280.057 385.623C279.875 385.799 279.664 385.939 279.43 386.039C279.19 386.139 278.938 386.186 278.68 386.186ZM283.341 387H284.308V378.164H283.341V387ZM290.669 381.158V382.025H290.645C290.399 381.721 290.106 381.492 289.76 381.328C289.415 381.17 289.04 381.088 288.641 381.088C288.096 381.088 287.604 381.223 287.171 381.486C286.731 381.75 286.391 382.113 286.145 382.57C285.899 383.033 285.782 383.549 285.782 384.117C285.782 384.557 285.852 384.961 286.005 385.33C286.151 385.705 286.35 386.016 286.608 386.268C286.866 386.525 287.171 386.725 287.522 386.865C287.874 387.006 288.249 387.076 288.647 387.076C289.069 387.076 289.456 386.988 289.807 386.812C290.159 386.637 290.452 386.391 290.692 386.074H290.71V387H291.641V381.158H290.669ZM288.741 386.186C288.155 386.186 287.68 385.992 287.317 385.605C286.954 385.219 286.772 384.721 286.772 384.123C286.772 383.484 286.96 382.969 287.335 382.57C287.71 382.178 288.184 381.979 288.753 381.979C289.022 381.979 289.28 382.037 289.526 382.148C289.766 382.26 289.971 382.412 290.147 382.6C290.317 382.793 290.452 383.021 290.551 383.285C290.651 383.549 290.704 383.83 290.704 384.123C290.704 384.428 290.651 384.709 290.546 384.967C290.44 385.225 290.294 385.447 290.118 385.623C289.936 385.799 289.725 385.939 289.491 386.039C289.251 386.139 288.999 386.186 288.741 386.186ZM296.426 381.088C295.986 381.088 295.582 381.182 295.219 381.369C294.849 381.557 294.545 381.82 294.304 382.166H294.287V381.158H293.314V387H294.287V384.082C294.287 383.438 294.451 382.922 294.785 382.547C295.119 382.172 295.564 381.979 296.121 381.979C296.344 381.979 296.537 382.014 296.707 382.072C296.871 382.137 297.023 382.236 297.152 382.377C297.281 382.518 297.375 382.711 297.445 382.945C297.515 383.186 297.551 383.473 297.551 383.807V387.006H298.523V383.537C298.523 382.729 298.336 382.113 297.961 381.703C297.586 381.293 297.076 381.088 296.426 381.088ZM302.686 387.076C303.184 387.076 303.647 386.988 304.069 386.801C304.491 386.619 304.837 386.379 305.1 386.086L304.427 385.482C304.239 385.693 303.999 385.863 303.706 385.992C303.413 386.121 303.097 386.18 302.768 386.18C302.183 386.18 301.702 385.986 301.333 385.6C300.964 385.213 300.782 384.703 300.782 384.082C300.782 383.461 300.964 382.957 301.333 382.564C301.702 382.178 302.183 381.979 302.768 381.979C303.102 381.979 303.413 382.049 303.694 382.178C303.975 382.307 304.216 382.488 304.403 382.711L305.077 382.125C304.796 381.791 304.444 381.533 304.022 381.352C303.6 381.176 303.167 381.082 302.722 381.082C302.153 381.082 301.649 381.211 301.204 381.463C300.759 381.721 300.413 382.072 300.167 382.529C299.921 382.986 299.798 383.508 299.798 384.088C299.798 384.674 299.921 385.189 300.167 385.646C300.413 386.104 300.753 386.455 301.192 386.701C301.632 386.953 302.13 387.076 302.686 387.076ZM311.455 383.988C311.455 383.438 311.338 382.939 311.115 382.5C310.893 382.061 310.57 381.715 310.16 381.463C309.744 381.217 309.27 381.088 308.736 381.088C308.344 381.088 307.975 381.164 307.635 381.311C307.289 381.463 306.99 381.668 306.744 381.926C306.498 382.184 306.299 382.5 306.158 382.875C306.012 383.25 305.941 383.648 305.941 384.082C305.941 384.521 306.012 384.926 306.164 385.301C306.311 385.676 306.516 385.992 306.773 386.25C307.031 386.508 307.336 386.713 307.693 386.859C308.051 387.006 308.438 387.076 308.848 387.076C309.357 387.076 309.814 386.982 310.213 386.783C310.611 386.584 310.945 386.314 311.209 385.975L310.529 385.395C310.33 385.635 310.096 385.828 309.82 385.969C309.539 386.109 309.229 386.18 308.883 386.18C308.355 386.18 307.916 386.021 307.564 385.693C307.207 385.365 306.996 384.932 306.938 384.387H311.426C311.443 384.27 311.455 384.141 311.455 383.988ZM308.789 381.984C309.246 381.984 309.621 382.131 309.92 382.418C310.219 382.711 310.406 383.098 310.488 383.578H306.961C307.049 383.092 307.26 382.705 307.594 382.418C307.928 382.131 308.326 381.984 308.789 381.984Z" fill="#646466"/>
<rect x="27" y="466" width="55" height="24.7887" rx="4" fill="#E5E5E5"/>
<path fill-rule="evenodd" clip-rule="evenodd" d="M62.4654 473.447L62.0715 475.787C60.8902 475.118 58.2017 474.96 58.2017 476.191C58.2017 476.681 58.81 477.017 59.5432 477.423C60.6551 478.038 62.0542 478.812 62.0542 480.519C62.0542 483.246 59.212 484.249 57.3285 484.249C55.4449 484.249 54.2123 483.633 54.2123 483.633L54.623 481.188C55.7529 482.12 59.1777 482.384 59.1777 480.906C59.1777 480.285 58.5036 479.919 57.7219 479.494C56.6432 478.908 55.3596 478.211 55.3596 476.579C55.3596 473.588 58.6127 472.972 59.9826 472.972C61.2498 472.972 62.4654 473.447 62.4654 473.447ZM69.1414 484.061H71.6762L69.4662 473.167H67.2468C66.2221 473.167 65.9725 473.979 65.9725 473.979L61.8558 484.061H64.7331L65.3086 482.443H68.8178L69.1414 484.061ZM66.1038 480.208L67.5543 476.131L68.3703 480.208H66.1038ZM44.797 480.66L47.4287 473.167H50.3996L46.0078 484.061H43.1316L40.7333 474.597C39.1765 473.636 37.8457 473.351 37.8457 473.351L37.8968 473.167H42.2475C43.4447 473.167 43.557 474.148 43.557 474.148L44.4858 479.047L44.4856 479.047L44.797 480.66ZM49.7511 484.061H52.5116L54.2372 473.167H51.4764L49.7511 484.061Z" fill="white"/>
<path d="M99.5 475H100.994L98.9258 472.012L100.959 469.146H99.418L98.1641 470.986H98.1348L96.8926 469.146H95.3398L97.3848 472.018L95.3281 475H96.8105L98.1465 473.154H98.1699L99.5 475ZM105.708 475H107.202L105.134 472.012L107.167 469.146H105.626L104.372 470.986H104.343L103.101 469.146H101.548L103.593 472.018L101.536 475H103.019L104.355 473.154H104.378L105.708 475ZM111.916 475H113.41L111.342 472.012L113.375 469.146H111.834L110.58 470.986H110.551L109.309 469.146H107.756L109.801 472.018L107.744 475H109.227L110.563 473.154H110.586L111.916 475ZM118.124 475H119.619L117.55 472.012L119.583 469.146H118.042L116.788 470.986H116.759L115.517 469.146H113.964L116.009 472.018L113.952 475H115.435L116.771 473.154H116.794L118.124 475ZM127.423 475H128.918L126.849 472.012L128.882 469.146H127.341L126.087 470.986H126.058L124.816 469.146H123.263L125.308 472.018L123.252 475H124.734L126.07 473.154H126.093L127.423 475ZM133.632 475H135.126L133.057 472.012L135.091 469.146H133.55L132.296 470.986H132.266L131.024 469.146H129.471L131.516 472.018L129.46 475H130.942L132.278 473.154H132.301L133.632 475ZM139.84 475H141.334L139.265 472.012L141.299 469.146H139.758L138.504 470.986H138.474L137.232 469.146H135.68L137.724 472.018L135.668 475H137.15L138.486 473.154H138.51L139.84 475ZM146.048 475H147.542L145.474 472.012L147.507 469.146H145.966L144.712 470.986H144.683L143.44 469.146H141.888L143.933 472.018L141.876 475H143.358L144.694 473.154H144.718L146.048 475ZM155.347 475H156.841L154.773 472.012L156.806 469.146H155.265L154.011 470.986H153.982L152.739 469.146H151.187L153.232 472.018L151.175 475H152.657L153.993 473.154H154.017L155.347 475ZM161.555 475H163.049L160.981 472.012L163.014 469.146H161.473L160.219 470.986H160.19L158.948 469.146H157.395L159.44 472.018L157.383 475H158.866L160.201 473.154H160.225L161.555 475ZM167.763 475H169.257L167.189 472.012L169.222 469.146H167.681L166.427 470.986H166.398L165.156 469.146H163.603L165.648 472.018L163.591 475H165.074L166.41 473.154H166.433L167.763 475ZM173.971 475H175.465L173.397 472.012L175.43 469.146H173.889L172.635 470.986H172.606L171.364 469.146H169.811L171.856 472.018L169.799 475H171.282L172.618 473.154H172.641L173.971 475ZM179.052 466.762V468.033H182.614L179.743 474.906L181.143 475.164L184.167 467.682V466.762H179.052ZM189.109 470.734V470.723C189.332 470.594 189.531 470.441 189.695 470.254C189.859 470.066 189.982 469.855 190.07 469.621C190.158 469.387 190.205 469.129 190.205 468.859C190.205 468.408 190.088 468.016 189.853 467.676C189.619 467.342 189.303 467.09 188.916 466.92C188.529 466.756 188.09 466.668 187.603 466.668C187.018 466.668 186.508 466.797 186.068 467.055C185.623 467.312 185.301 467.652 185.101 468.074L186.209 468.672C186.525 468.197 186.976 467.957 187.574 467.957C187.914 467.957 188.207 468.062 188.447 468.273C188.687 468.484 188.81 468.748 188.81 469.07C188.81 469.223 188.787 469.357 188.74 469.486C188.693 469.615 188.629 469.732 188.535 469.832C188.441 469.938 188.318 470.014 188.16 470.072C188.002 470.131 187.82 470.16 187.609 470.16H186.853V471.344H187.48C187.973 471.344 188.348 471.467 188.617 471.701C188.887 471.936 189.021 472.229 189.021 472.574C189.021 472.938 188.881 473.236 188.611 473.459C188.342 473.688 188.008 473.799 187.609 473.799C186.807 473.799 186.273 473.471 186.004 472.814L184.803 473.348C185.014 473.869 185.371 474.291 185.887 474.613C186.396 474.936 187 475.094 187.703 475.094C188.219 475.094 188.687 475 189.103 474.807C189.519 474.619 189.848 474.344 190.082 473.992C190.316 473.641 190.439 473.23 190.439 472.773C190.439 472.457 190.381 472.164 190.269 471.895C190.158 471.625 190.006 471.396 189.807 471.203C189.607 471.01 189.379 470.852 189.109 470.734ZM194.673 475.094C195.323 475.094 195.892 474.918 196.372 474.561C196.853 474.209 197.222 473.711 197.468 473.078C197.714 472.445 197.843 471.713 197.843 470.881C197.843 470.225 197.761 469.627 197.608 469.094C197.45 468.566 197.233 468.121 196.952 467.77C196.671 467.418 196.337 467.143 195.95 466.955C195.564 466.768 195.136 466.668 194.673 466.668C194.022 466.668 193.46 466.85 192.98 467.201C192.499 467.559 192.13 468.057 191.884 468.689C191.632 469.322 191.509 470.055 191.509 470.881C191.509 471.537 191.585 472.135 191.743 472.668C191.896 473.201 192.112 473.646 192.394 473.998C192.675 474.35 193.009 474.625 193.396 474.812C193.782 475 194.204 475.094 194.673 475.094ZM194.679 473.805C194.14 473.805 193.712 473.547 193.396 473.025C193.079 472.504 192.921 471.789 192.921 470.881C192.921 469.967 193.073 469.246 193.39 468.73C193.7 468.215 194.128 467.957 194.679 467.957C195.218 467.957 195.64 468.215 195.956 468.73C196.272 469.246 196.431 469.967 196.431 470.881C196.431 471.801 196.272 472.516 195.968 473.031C195.657 473.547 195.23 473.805 194.679 473.805ZM200.606 475H202V466.762H200.869L198.449 468.508L199.117 469.539L200.606 468.426V475Z" fill="#1C1C1C"/>
<path d="M273.79 472.721C273.79 472.551 273.773 472.393 273.749 472.24C273.72 472.094 273.685 471.959 273.638 471.836C273.591 471.719 273.533 471.602 273.45 471.496C273.368 471.391 273.286 471.297 273.204 471.215C273.122 471.133 273.017 471.057 272.888 470.975C272.759 470.893 272.636 470.828 272.525 470.77C272.413 470.711 272.273 470.652 272.109 470.588C271.939 470.529 271.786 470.477 271.652 470.43C271.511 470.383 271.347 470.33 271.148 470.266C270.89 470.184 270.685 470.113 270.527 470.049C270.368 469.984 270.222 469.908 270.087 469.82C269.952 469.738 269.853 469.639 269.794 469.533C269.736 469.428 269.706 469.311 269.706 469.17C269.706 468.906 269.806 468.701 270.011 468.555C270.21 468.408 270.491 468.332 270.843 468.332C271.031 468.332 271.224 468.361 271.435 468.408C271.646 468.455 271.863 468.531 272.097 468.637C272.325 468.742 272.548 468.865 272.759 469.018L273.574 467.998C273.304 467.787 272.993 467.6 272.63 467.436C272.267 467.271 271.898 467.154 271.529 467.078V465.508H270.445V467.02C269.741 467.084 269.191 467.318 268.792 467.729C268.394 468.139 268.2 468.654 268.2 469.264C268.2 469.475 268.224 469.668 268.271 469.844C268.318 470.02 268.382 470.178 268.464 470.307C268.54 470.436 268.646 470.564 268.781 470.682C268.915 470.799 269.044 470.898 269.173 470.98C269.302 471.062 269.46 471.139 269.654 471.221C269.847 471.303 270.023 471.373 270.175 471.426C270.327 471.479 270.515 471.537 270.743 471.607C271.025 471.695 271.247 471.771 271.417 471.842C271.587 471.912 271.74 471.994 271.88 472.088C272.021 472.182 272.12 472.293 272.179 472.41C272.238 472.527 272.267 472.668 272.267 472.826C272.267 472.967 272.238 473.096 272.179 473.213C272.12 473.33 272.038 473.424 271.933 473.5C271.827 473.576 271.699 473.635 271.552 473.676C271.4 473.723 271.241 473.74 271.066 473.74C270.702 473.74 270.322 473.664 269.935 473.5C269.542 473.342 269.185 473.107 268.863 472.791L268.019 473.811C268.704 474.49 269.513 474.889 270.445 475.018V476.459H271.529V475.023C272.232 474.941 272.783 474.695 273.187 474.285C273.585 473.875 273.79 473.354 273.79 472.721ZM278.159 475H279.547V473.611H280.696V472.369H279.547V466.762H278.381L274.555 472.662V473.611H278.159V475ZM276.184 472.41L278.211 469.105V472.41H276.184ZM285.984 470.547V470.529C286.248 470.418 286.482 470.201 286.693 469.879C286.898 469.557 287.003 469.199 287.003 468.801C287.003 468.367 286.892 467.992 286.675 467.67C286.459 467.348 286.16 467.102 285.773 466.932C285.386 466.762 284.947 466.674 284.449 466.674C283.962 466.674 283.529 466.756 283.154 466.92C282.773 467.084 282.468 467.324 282.246 467.652C282.023 467.98 281.912 468.361 281.912 468.801C281.912 469.07 281.959 469.328 282.064 469.574C282.169 469.82 282.293 470.025 282.445 470.184C282.597 470.348 282.755 470.459 282.925 470.529V470.547C282.503 470.711 282.164 470.986 281.9 471.361C281.636 471.736 281.507 472.193 281.507 472.727C281.507 473.184 281.63 473.594 281.882 473.957C282.134 474.32 282.486 474.596 282.931 474.795C283.376 474.994 283.886 475.088 284.449 475.088C285 475.088 285.498 474.994 285.943 474.807C286.388 474.619 286.746 474.344 287.015 473.98C287.279 473.617 287.414 473.201 287.414 472.727C287.414 472.193 287.279 471.736 287.015 471.361C286.746 470.986 286.406 470.711 285.984 470.547ZM284.449 467.893C284.8 467.893 285.087 467.992 285.322 468.191C285.556 468.391 285.673 468.631 285.673 468.924C285.673 469.229 285.556 469.48 285.334 469.668C285.105 469.855 284.812 469.949 284.449 469.949C284.091 469.949 283.798 469.855 283.576 469.668C283.347 469.48 283.236 469.229 283.236 468.924C283.236 468.643 283.347 468.402 283.576 468.197C283.804 467.998 284.097 467.893 284.449 467.893ZM284.449 473.846C284.021 473.846 283.658 473.723 283.365 473.477C283.072 473.23 282.925 472.92 282.925 472.551C282.925 472.164 283.066 471.842 283.347 471.596C283.628 471.35 283.992 471.221 284.449 471.221C284.9 471.221 285.269 471.35 285.55 471.596C285.832 471.842 285.978 472.164 285.978 472.551C285.978 472.908 285.832 473.213 285.55 473.465C285.263 473.723 284.894 473.846 284.449 473.846ZM291.518 475.094C292.169 475.094 292.737 474.918 293.217 474.561C293.698 474.209 294.067 473.711 294.313 473.078C294.559 472.445 294.688 471.713 294.688 470.881C294.688 470.225 294.606 469.627 294.454 469.094C294.296 468.566 294.079 468.121 293.798 467.77C293.516 467.418 293.182 467.143 292.796 466.955C292.409 466.768 291.981 466.668 291.518 466.668C290.868 466.668 290.305 466.85 289.825 467.201C289.344 467.559 288.975 468.057 288.729 468.689C288.477 469.322 288.354 470.055 288.354 470.881C288.354 471.537 288.43 472.135 288.589 472.668C288.741 473.201 288.958 473.646 289.239 473.998C289.52 474.35 289.854 474.625 290.241 474.812C290.628 475 291.049 475.094 291.518 475.094ZM291.524 473.805C290.985 473.805 290.557 473.547 290.241 473.025C289.924 472.504 289.766 471.789 289.766 470.881C289.766 469.967 289.919 469.246 290.235 468.73C290.546 468.215 290.973 467.957 291.524 467.957C292.063 467.957 292.485 468.215 292.801 468.73C293.118 469.246 293.276 469.967 293.276 470.881C293.276 471.801 293.118 472.516 292.813 473.031C292.503 473.547 292.075 473.805 291.524 473.805ZM296.648 475.094C296.894 475.094 297.105 475.012 297.281 474.836C297.457 474.66 297.551 474.449 297.551 474.203C297.551 473.957 297.457 473.746 297.281 473.57C297.105 473.395 296.894 473.307 296.648 473.307C296.478 473.307 296.326 473.348 296.185 473.43C296.045 473.512 295.933 473.617 295.851 473.758C295.769 473.898 295.734 474.045 295.734 474.203C295.734 474.449 295.822 474.66 295.998 474.836C296.174 475.012 296.39 475.094 296.648 475.094ZM300.729 473.729V473.705L302.481 471.883C302.739 471.613 302.956 471.361 303.132 471.121C303.308 470.887 303.448 470.652 303.554 470.424C303.659 470.201 303.729 469.979 303.776 469.768C303.823 469.557 303.847 469.334 303.847 469.1C303.847 468.736 303.776 468.396 303.636 468.086C303.495 467.775 303.302 467.518 303.067 467.312C302.827 467.113 302.552 466.955 302.247 466.844C301.936 466.732 301.614 466.674 301.274 466.674C300.636 466.674 300.097 466.814 299.651 467.096C299.206 467.377 298.854 467.758 298.602 468.232L299.604 468.941C299.979 468.291 300.501 467.963 301.175 467.963C301.415 467.963 301.632 468.021 301.825 468.133C302.018 468.25 302.171 468.402 302.276 468.596C302.382 468.795 302.44 469.012 302.44 469.246C302.44 469.574 302.341 469.891 302.147 470.201C301.948 470.518 301.655 470.875 301.268 471.285L298.62 474.074L298.638 475H303.94V473.729H300.729ZM308.197 475.094C308.848 475.094 309.416 474.918 309.896 474.561C310.377 474.209 310.746 473.711 310.992 473.078C311.238 472.445 311.367 471.713 311.367 470.881C311.367 470.225 311.285 469.627 311.133 469.094C310.975 468.566 310.758 468.121 310.477 467.77C310.195 467.418 309.861 467.143 309.475 466.955C309.088 466.768 308.66 466.668 308.197 466.668C307.547 466.668 306.984 466.85 306.504 467.201C306.023 467.559 305.654 468.057 305.408 468.689C305.156 469.322 305.033 470.055 305.033 470.881C305.033 471.537 305.109 472.135 305.268 472.668C305.42 473.201 305.637 473.646 305.918 473.998C306.199 474.35 306.533 474.625 306.92 474.812C307.307 475 307.729 475.094 308.197 475.094ZM308.203 473.805C307.664 473.805 307.236 473.547 306.92 473.025C306.604 472.504 306.445 471.789 306.445 470.881C306.445 469.967 306.598 469.246 306.914 468.73C307.225 468.215 307.652 467.957 308.203 467.957C308.742 467.957 309.164 468.215 309.48 468.73C309.797 469.246 309.955 469.967 309.955 470.881C309.955 471.801 309.797 472.516 309.492 473.031C309.182 473.547 308.754 473.805 308.203 473.805Z" fill="#1C1C1C"/>
<path d="M99.957 491.064C100.666 491.064 101.299 490.924 101.85 490.631C102.4 490.344 102.881 489.951 103.279 489.453L102.5 488.797C101.809 489.646 100.965 490.068 99.957 490.068C99.5938 490.068 99.2539 490.021 98.9375 489.922C98.6152 489.828 98.3223 489.682 98.0645 489.494C97.8066 489.307 97.5781 489.078 97.3906 488.814C97.2031 488.551 97.0566 488.246 96.9512 487.895C96.8457 487.549 96.7988 487.174 96.7988 486.775C96.7988 486.119 96.9219 485.539 97.1797 485.029C97.4316 484.52 97.8008 484.121 98.2812 483.828C98.7617 483.541 99.3184 483.395 99.957 483.395C100.443 483.395 100.906 483.506 101.346 483.729C101.785 483.951 102.172 484.268 102.5 484.678L103.279 484.027C102.975 483.658 102.641 483.348 102.266 483.102C101.891 482.855 101.51 482.674 101.129 482.562C100.748 482.457 100.355 482.398 99.957 482.398C99.418 482.398 98.9258 482.475 98.4688 482.621C98.0117 482.773 97.6133 482.979 97.2793 483.242C96.9395 483.512 96.6523 483.822 96.418 484.186C96.1777 484.549 96.002 484.953 95.8848 485.393C95.7676 485.832 95.709 486.295 95.709 486.775C95.709 487.32 95.7793 487.824 95.9258 488.287C96.0723 488.756 96.2773 489.154 96.541 489.494C96.7988 489.834 97.1094 490.121 97.4668 490.355C97.8184 490.596 98.2109 490.771 98.6328 490.889C99.0547 491.006 99.4941 491.064 99.957 491.064ZM107.443 485.088C107.044 485.088 106.687 485.188 106.359 485.375C106.03 485.562 105.761 485.832 105.544 486.178H105.521V485.158H104.548V491H105.521V488.182C105.521 487.795 105.591 487.443 105.732 487.139C105.872 486.834 106.077 486.594 106.347 486.418C106.616 486.242 106.933 486.154 107.296 486.154C107.413 486.154 107.542 486.16 107.683 486.172V485.1C107.636 485.094 107.554 485.088 107.443 485.088ZM113.668 487.988C113.668 487.438 113.551 486.939 113.328 486.5C113.106 486.061 112.783 485.715 112.373 485.463C111.957 485.217 111.483 485.088 110.949 485.088C110.557 485.088 110.188 485.164 109.848 485.311C109.502 485.463 109.203 485.668 108.957 485.926C108.711 486.184 108.512 486.5 108.371 486.875C108.225 487.25 108.155 487.648 108.155 488.082C108.155 488.521 108.225 488.926 108.377 489.301C108.524 489.676 108.729 489.992 108.987 490.25C109.244 490.508 109.549 490.713 109.906 490.859C110.264 491.006 110.651 491.076 111.061 491.076C111.571 491.076 112.028 490.982 112.426 490.783C112.824 490.584 113.158 490.314 113.422 489.975L112.742 489.395C112.543 489.635 112.309 489.828 112.033 489.969C111.752 490.109 111.442 490.18 111.096 490.18C110.569 490.18 110.129 490.021 109.778 489.693C109.42 489.365 109.209 488.932 109.151 488.387H113.639C113.656 488.27 113.668 488.141 113.668 487.988ZM111.002 485.984C111.459 485.984 111.834 486.131 112.133 486.418C112.432 486.711 112.619 487.098 112.701 487.578H109.174C109.262 487.092 109.473 486.705 109.807 486.418C110.141 486.131 110.539 485.984 111.002 485.984ZM119.519 482.164V486.025H119.501C119.337 485.826 119.156 485.65 118.945 485.51C118.734 485.369 118.511 485.264 118.271 485.193C118.025 485.123 117.773 485.088 117.515 485.088C117.105 485.088 116.724 485.17 116.372 485.322C116.015 485.475 115.71 485.686 115.464 485.955C115.212 486.225 115.013 486.541 114.872 486.916C114.726 487.291 114.656 487.695 114.656 488.117C114.656 488.557 114.726 488.961 114.878 489.33C115.025 489.705 115.224 490.016 115.482 490.268C115.74 490.525 116.044 490.725 116.396 490.865C116.747 491.006 117.122 491.076 117.521 491.076C117.802 491.076 118.066 491.041 118.318 490.959C118.57 490.877 118.798 490.766 119.003 490.613C119.202 490.467 119.384 490.285 119.542 490.074H119.56V491H120.492V482.164H119.519ZM117.615 490.186C117.029 490.186 116.554 489.992 116.191 489.605C115.827 489.219 115.646 488.721 115.646 488.123C115.646 487.484 115.833 486.969 116.208 486.57C116.583 486.178 117.058 485.979 117.626 485.979C117.896 485.979 118.148 486.037 118.388 486.148C118.622 486.26 118.827 486.412 118.997 486.6C119.167 486.793 119.302 487.021 119.402 487.285C119.501 487.549 119.554 487.83 119.554 488.123C119.554 488.428 119.501 488.709 119.396 488.967C119.29 489.225 119.144 489.447 118.968 489.623C118.792 489.799 118.581 489.939 118.347 490.039C118.113 490.139 117.867 490.186 117.615 490.186ZM122.815 484.074C123.002 484.074 123.166 484.01 123.301 483.875C123.436 483.746 123.506 483.582 123.506 483.395C123.506 483.271 123.471 483.154 123.413 483.049C123.348 482.943 123.266 482.861 123.161 482.803C123.055 482.744 122.938 482.709 122.815 482.709C122.616 482.709 122.452 482.779 122.323 482.908C122.188 483.043 122.124 483.207 122.124 483.395C122.124 483.582 122.188 483.746 122.323 483.875C122.452 484.01 122.616 484.074 122.815 484.074ZM122.323 491H123.29V485.158H122.323V491ZM126.709 491.076C126.92 491.076 127.125 491.059 127.312 491.023C127.5 490.988 127.646 490.941 127.763 490.895C127.875 490.848 127.992 490.783 128.121 490.713L127.863 489.863C127.511 490.062 127.183 490.162 126.879 490.162C126.609 490.162 126.427 490.08 126.322 489.916C126.216 489.752 126.164 489.482 126.164 489.113V486.002H128.097V485.158H126.164V483.055L125.191 483.16V485.158H124.447V486.002H125.191V489.26C125.191 490.473 125.695 491.076 126.709 491.076ZM135.023 491.076C135.521 491.076 135.984 490.988 136.406 490.801C136.828 490.619 137.174 490.379 137.437 490.086L136.764 489.482C136.576 489.693 136.336 489.863 136.043 489.992C135.75 490.121 135.433 490.18 135.105 490.18C134.519 490.18 134.039 489.986 133.67 489.6C133.301 489.213 133.119 488.703 133.119 488.082C133.119 487.461 133.301 486.957 133.67 486.564C134.039 486.178 134.519 485.979 135.105 485.979C135.439 485.979 135.75 486.049 136.031 486.178C136.312 486.307 136.553 486.488 136.74 486.711L137.414 486.125C137.133 485.791 136.781 485.533 136.359 485.352C135.937 485.176 135.504 485.082 135.058 485.082C134.49 485.082 133.986 485.211 133.541 485.463C133.096 485.721 132.75 486.072 132.504 486.529C132.258 486.986 132.135 487.508 132.135 488.088C132.135 488.674 132.258 489.189 132.504 489.646C132.75 490.104 133.09 490.455 133.529 490.701C133.969 490.953 134.467 491.076 135.023 491.076ZM143.177 485.158V486.025H143.153C142.907 485.721 142.614 485.492 142.269 485.328C141.923 485.17 141.548 485.088 141.149 485.088C140.604 485.088 140.112 485.223 139.679 485.486C139.239 485.75 138.899 486.113 138.653 486.57C138.407 487.033 138.29 487.549 138.29 488.117C138.29 488.557 138.36 488.961 138.513 489.33C138.659 489.705 138.858 490.016 139.116 490.268C139.374 490.525 139.679 490.725 140.03 490.865C140.382 491.006 140.757 491.076 141.155 491.076C141.577 491.076 141.964 490.988 142.315 490.812C142.667 490.637 142.96 490.391 143.2 490.074H143.218V491H144.149V485.158H143.177ZM141.249 490.186C140.663 490.186 140.188 489.992 139.825 489.605C139.462 489.219 139.28 488.721 139.28 488.123C139.28 487.484 139.468 486.969 139.843 486.57C140.218 486.178 140.692 485.979 141.261 485.979C141.53 485.979 141.788 486.037 142.034 486.148C142.274 486.26 142.479 486.412 142.655 486.6C142.825 486.793 142.96 487.021 143.06 487.285C143.159 487.549 143.212 487.83 143.212 488.123C143.212 488.428 143.159 488.709 143.054 488.967C142.948 489.225 142.802 489.447 142.626 489.623C142.444 489.799 142.233 489.939 141.999 490.039C141.759 490.139 141.507 490.186 141.249 490.186ZM148.717 485.088C148.318 485.088 147.961 485.188 147.633 485.375C147.305 485.562 147.035 485.832 146.818 486.178H146.795V485.158H145.822V491H146.795V488.182C146.795 487.795 146.865 487.443 147.006 487.139C147.147 486.834 147.352 486.594 147.621 486.418C147.891 486.242 148.207 486.154 148.57 486.154C148.688 486.154 148.816 486.16 148.957 486.172V485.1C148.91 485.094 148.828 485.088 148.717 485.088ZM154.304 482.164V486.025H154.286C154.122 485.826 153.941 485.65 153.73 485.51C153.519 485.369 153.296 485.264 153.056 485.193C152.81 485.123 152.558 485.088 152.3 485.088C151.89 485.088 151.509 485.17 151.157 485.322C150.8 485.475 150.495 485.686 150.249 485.955C149.997 486.225 149.798 486.541 149.657 486.916C149.511 487.291 149.441 487.695 149.441 488.117C149.441 488.557 149.511 488.961 149.663 489.33C149.81 489.705 150.009 490.016 150.267 490.268C150.525 490.525 150.829 490.725 151.181 490.865C151.532 491.006 151.907 491.076 152.306 491.076C152.587 491.076 152.851 491.041 153.103 490.959C153.355 490.877 153.583 490.766 153.788 490.613C153.987 490.467 154.169 490.285 154.327 490.074H154.345V491H155.277V482.164H154.304ZM152.4 490.186C151.814 490.186 151.339 489.992 150.976 489.605C150.612 489.219 150.431 488.721 150.431 488.123C150.431 487.484 150.618 486.969 150.993 486.57C151.368 486.178 151.843 485.979 152.411 485.979C152.681 485.979 152.933 486.037 153.173 486.148C153.407 486.26 153.612 486.412 153.782 486.6C153.952 486.793 154.087 487.021 154.187 487.285C154.286 487.549 154.339 487.83 154.339 488.123C154.339 488.428 154.286 488.709 154.181 488.967C154.075 489.225 153.929 489.447 153.753 489.623C153.577 489.799 153.366 489.939 153.132 490.039C152.898 490.139 152.652 490.186 152.4 490.186Z" fill="#646466"/>
<path d="M272.847 486.518V486.5C273.292 486.348 273.626 486.096 273.861 485.744C274.089 485.393 274.206 485 274.206 484.555C274.206 484.203 274.142 483.893 274.013 483.623C273.884 483.354 273.697 483.137 273.456 482.973C273.21 482.809 272.923 482.68 272.589 482.598C272.255 482.516 271.88 482.475 271.458 482.475H268.675V491H271.781C272.249 491 272.671 490.947 273.034 490.83C273.398 490.719 273.697 490.561 273.931 490.355C274.159 490.15 274.335 489.91 274.452 489.629C274.57 489.348 274.628 489.037 274.628 488.691C274.628 488.387 274.581 488.111 274.488 487.859C274.394 487.607 274.265 487.391 274.101 487.215C273.937 487.039 273.749 486.887 273.538 486.77C273.327 486.652 273.093 486.57 272.847 486.518ZM269.718 483.436H271.241C271.57 483.436 271.857 483.471 272.103 483.529C272.349 483.594 272.542 483.682 272.695 483.799C272.841 483.916 272.952 484.057 273.023 484.215C273.093 484.373 273.134 484.555 273.134 484.76C273.134 484.959 273.099 485.135 273.034 485.293C272.97 485.457 272.882 485.586 272.777 485.686C272.665 485.791 272.536 485.873 272.39 485.943C272.243 486.014 272.091 486.066 271.933 486.096C271.775 486.125 271.611 486.137 271.447 486.137H269.718V483.436ZM271.488 490.039H269.718V487.074H271.534C271.962 487.074 272.325 487.139 272.63 487.262C272.929 487.385 273.152 487.561 273.304 487.783C273.456 488.012 273.533 488.281 273.533 488.598C273.533 489.072 273.345 489.43 272.982 489.676C272.613 489.922 272.115 490.039 271.488 490.039ZM280.608 485.158V486.025H280.584C280.338 485.721 280.045 485.492 279.7 485.328C279.354 485.17 278.979 485.088 278.58 485.088C278.036 485.088 277.543 485.223 277.11 485.486C276.67 485.75 276.33 486.113 276.084 486.57C275.838 487.033 275.721 487.549 275.721 488.117C275.721 488.557 275.791 488.961 275.944 489.33C276.09 489.705 276.289 490.016 276.547 490.268C276.805 490.525 277.11 490.725 277.461 490.865C277.813 491.006 278.188 491.076 278.586 491.076C279.008 491.076 279.395 490.988 279.746 490.812C280.098 490.637 280.391 490.391 280.631 490.074H280.649V491H281.58V485.158H280.608ZM278.68 490.186C278.094 490.186 277.62 489.992 277.256 489.605C276.893 489.219 276.711 488.721 276.711 488.123C276.711 487.484 276.899 486.969 277.274 486.57C277.649 486.178 278.123 485.979 278.692 485.979C278.961 485.979 279.219 486.037 279.465 486.148C279.705 486.26 279.911 486.412 280.086 486.6C280.256 486.793 280.391 487.021 280.491 487.285C280.59 487.549 280.643 487.83 280.643 488.123C280.643 488.428 280.59 488.709 280.485 488.967C280.379 489.225 280.233 489.447 280.057 489.623C279.875 489.799 279.664 489.939 279.43 490.039C279.19 490.139 278.938 490.186 278.68 490.186ZM283.341 491H284.308V482.164H283.341V491ZM290.669 485.158V486.025H290.645C290.399 485.721 290.106 485.492 289.76 485.328C289.415 485.17 289.04 485.088 288.641 485.088C288.096 485.088 287.604 485.223 287.171 485.486C286.731 485.75 286.391 486.113 286.145 486.57C285.899 487.033 285.782 487.549 285.782 488.117C285.782 488.557 285.852 488.961 286.005 489.33C286.151 489.705 286.35 490.016 286.608 490.268C286.866 490.525 287.171 490.725 287.522 490.865C287.874 491.006 288.249 491.076 288.647 491.076C289.069 491.076 289.456 490.988 289.807 490.812C290.159 490.637 290.452 490.391 290.692 490.074H290.71V491H291.641V485.158H290.669ZM288.741 490.186C288.155 490.186 287.68 489.992 287.317 489.605C286.954 489.219 286.772 488.721 286.772 488.123C286.772 487.484 286.96 486.969 287.335 486.57C287.71 486.178 288.184 485.979 288.753 485.979C289.022 485.979 289.28 486.037 289.526 486.148C289.766 486.26 289.971 486.412 290.147 486.6C290.317 486.793 290.452 487.021 290.551 487.285C290.651 487.549 290.704 487.83 290.704 488.123C290.704 488.428 290.651 488.709 290.546 488.967C290.44 489.225 290.294 489.447 290.118 489.623C289.936 489.799 289.725 489.939 289.491 490.039C289.251 490.139 288.999 490.186 288.741 490.186ZM296.426 485.088C295.986 485.088 295.582 485.182 295.219 485.369C294.849 485.557 294.545 485.82 294.304 486.166H294.287V485.158H293.314V491H294.287V488.082C294.287 487.438 294.451 486.922 294.785 486.547C295.119 486.172 295.564 485.979 296.121 485.979C296.344 485.979 296.537 486.014 296.707 486.072C296.871 486.137 297.023 486.236 297.152 486.377C297.281 486.518 297.375 486.711 297.445 486.945C297.515 487.186 297.551 487.473 297.551 487.807V491.006H298.523V487.537C298.523 486.729 298.336 486.113 297.961 485.703C297.586 485.293 297.076 485.088 296.426 485.088ZM302.686 491.076C303.184 491.076 303.647 490.988 304.069 490.801C304.491 490.619 304.837 490.379 305.1 490.086L304.427 489.482C304.239 489.693 303.999 489.863 303.706 489.992C303.413 490.121 303.097 490.18 302.768 490.18C302.183 490.18 301.702 489.986 301.333 489.6C300.964 489.213 300.782 488.703 300.782 488.082C300.782 487.461 300.964 486.957 301.333 486.564C301.702 486.178 302.183 485.979 302.768 485.979C303.102 485.979 303.413 486.049 303.694 486.178C303.975 486.307 304.216 486.488 304.403 486.711L305.077 486.125C304.796 485.791 304.444 485.533 304.022 485.352C303.6 485.176 303.167 485.082 302.722 485.082C302.153 485.082 301.649 485.211 301.204 485.463C300.759 485.721 300.413 486.072 300.167 486.529C299.921 486.986 299.798 487.508 299.798 488.088C299.798 488.674 299.921 489.189 300.167 489.646C300.413 490.104 300.753 490.455 301.192 490.701C301.632 490.953 302.13 491.076 302.686 491.076ZM311.455 487.988C311.455 487.438 311.338 486.939 311.115 486.5C310.893 486.061 310.57 485.715 310.16 485.463C309.744 485.217 309.27 485.088 308.736 485.088C308.344 485.088 307.975 485.164 307.635 485.311C307.289 485.463 306.99 485.668 306.744 485.926C306.498 486.184 306.299 486.5 306.158 486.875C306.012 487.25 305.941 487.648 305.941 488.082C305.941 488.521 306.012 488.926 306.164 489.301C306.311 489.676 306.516 489.992 306.773 490.25C307.031 490.508 307.336 490.713 307.693 490.859C308.051 491.006 308.438 491.076 308.848 491.076C309.357 491.076 309.814 490.982 310.213 490.783C310.611 490.584 310.945 490.314 311.209 489.975L310.529 489.395C310.33 489.635 310.096 489.828 309.82 489.969C309.539 490.109 309.229 490.18 308.883 490.18C308.355 490.18 307.916 490.021 307.564 489.693C307.207 489.365 306.996 488.932 306.938 488.387H311.426C311.443 488.27 311.455 488.141 311.455 487.988ZM308.789 485.984C309.246 485.984 309.621 486.131 309.92 486.418C310.219 486.711 310.406 487.098 310.488 487.578H306.961C307.049 487.092 307.26 486.705 307.594 486.418C307.928 486.131 308.326 485.984 308.789 485.984Z" fill="#646466"/>
<rect y="54" width="2" height="270" fill="#1342BA"/>
<defs>
<filter id="filter0_d" x="4.73438" y="72.4219" width="329.531" height="222.656" filterUnits="userSpaceOnUse" color-interpolation-filters="sRGB">
<feFlood flood-opacity="0" result="BackgroundImageFix"/>
<feColorMatrix in="SourceAlpha" type="matrix" values="0 0 0 0 0 0 0 0 0 0 0 0 0 0 0 0 0 0 127 0"/>
<feOffset dy="10.6875"/>
<feGaussianBlur stdDeviation="11.1328"/>
<feColorMatrix type="matrix" values="0 0 0 0 0.0604107 0 0 0 0 0.199302 0 0 0 0 0.419214 0 0 0 0.25 0"/>
<feBlend mode="normal" in2="BackgroundImageFix" result="effect1_dropShadow"/>
<feBlend mode="normal" in="SourceGraphic" in2="effect1_dropShadow" result="shape"/>
</filter>
<linearGradient id="paint0_linear" x1="312" y1="262.125" x2="193.371" y2="27.4468" gradientUnits="userSpaceOnUse">
<stop stop-color="#01ADEF"/>
<stop offset="1" stop-color="#0860BF"/>
</linearGradient>
<linearGradient id="paint1_linear" x1="319.288" y1="135.746" x2="170.595" y2="325.939" gradientUnits="userSpaceOnUse">
<stop stop-color="#EEEEEE"/>
<stop offset="1" stop-color="#D8D8D8" stop-opacity="0"/>
</linearGradient>
<linearGradient id="paint2_linear" x1="384.492" y1="135.52" x2="235.798" y2="325.713" gradientUnits="userSpaceOnUse">
<stop stop-color="#EEEEEE"/>
<stop offset="1" stop-color="#D8D8D8" stop-opacity="0"/>
</linearGradient>
<linearGradient id="paint3_linear" x1="333.691" y1="125.84" x2="172.774" y2="323.323" gradientUnits="userSpaceOnUse">
<stop stop-color="#EEEEEE"/>
<stop offset="1" stop-color="#D8D8D8" stop-opacity="0"/>
</linearGradient>
</defs>
</svg>

