<svg width="194" height="79" viewBox="0 0 194 79" fill="none" xmlns="http://www.w3.org/2000/svg">
<path d="M3.7 67V31.5H18.75C20.3833 31.5 21.8833 31.85 23.25 32.55C24.65 33.2167 25.85 34.1167 26.85 35.25C27.85 36.35 28.6333 37.6167 29.2 39.05C29.7667 40.45 30.05 41.8667 30.05 43.3C30.05 44.8 29.7833 46.2667 29.25 47.7C28.7167 49.1 27.9667 50.35 27 51.45C26.0333 52.55 24.8667 53.4333 23.5 54.1C22.1333 54.7667 20.6333 55.1 19 55.1H10.6V67H3.7ZM10.6 49.05H18.6C19.8667 49.05 20.9167 48.5333 21.75 47.5C22.6167 46.4667 23.05 45.0667 23.05 43.3C23.05 42.4 22.9167 41.6 22.65 40.9C22.3833 40.1667 22.0333 39.55 21.6 39.05C21.1667 38.55 20.65 38.1833 20.05 37.95C19.4833 37.6833 18.9 37.55 18.3 37.55H10.6V49.05ZM41.1082 67.5C39.8415 67.5 38.6582 67.3 37.5582 66.9C36.4582 66.4667 35.5082 65.8833 34.7082 65.15C33.9082 64.3833 33.2749 63.5 32.8082 62.5C32.3749 61.5 32.1582 60.4 32.1582 59.2C32.1582 57.9667 32.4249 56.8333 32.9582 55.8C33.5249 54.7333 34.2915 53.8333 35.2582 53.1C36.2582 52.3667 37.4415 51.8 38.8082 51.4C40.1749 50.9667 41.6749 50.75 43.3082 50.75C44.4749 50.75 45.6082 50.85 46.7082 51.05C47.8415 51.25 48.8415 51.5333 49.7082 51.9V50.4C49.7082 48.6667 49.2082 47.3333 48.2082 46.4C47.2415 45.4667 45.7915 45 43.8582 45C42.4582 45 41.0915 45.25 39.7582 45.75C38.4249 46.25 37.0582 46.9833 35.6582 47.95L33.6082 43.7C36.9749 41.4667 40.6082 40.35 44.5082 40.35C48.2749 40.35 51.1915 41.2833 53.2582 43.15C55.3582 44.9833 56.4082 47.65 56.4082 51.15V59.3C56.4082 60 56.5249 60.5 56.7582 60.8C57.0249 61.1 57.4415 61.2667 58.0082 61.3V67C56.8749 67.2333 55.8915 67.35 55.0582 67.35C53.7915 67.35 52.8082 67.0667 52.1082 66.5C51.4415 65.9333 51.0249 65.1833 50.8582 64.25L50.7082 62.8C49.5415 64.3333 48.1249 65.5 46.4582 66.3C44.7915 67.1 43.0082 67.5 41.1082 67.5ZM43.0082 62.6C44.1415 62.6 45.2082 62.4 46.2082 62C47.2415 61.6 48.0415 61.0667 48.6082 60.4C49.3415 59.8333 49.7082 59.2 49.7082 58.5V55.5C48.9082 55.2 48.0415 54.9667 47.1082 54.8C46.1749 54.6 45.2749 54.5 44.4082 54.5C42.6749 54.5 41.2582 54.9 40.1582 55.7C39.0582 56.4667 38.5082 57.45 38.5082 58.65C38.5082 59.7833 38.9415 60.7333 39.8082 61.5C40.6749 62.2333 41.7415 62.6 43.0082 62.6ZM62.5844 72.1C63.151 72.2667 63.701 72.3833 64.2344 72.45C64.7677 72.55 65.2177 72.6 65.5844 72.6C66.0177 72.6 66.4177 72.5167 66.7844 72.35C67.151 72.1833 67.4844 71.8833 67.7844 71.45C68.0844 71.05 68.3844 70.4833 68.6844 69.75C68.9844 69.0167 69.301 68.1 69.6344 67L59.2844 40.8H66.1844L73.2844 61.2L79.5844 40.8H85.8844L74.8844 72.2C74.251 74.0333 73.1677 75.5333 71.6344 76.7C70.101 77.8667 68.201 78.45 65.9344 78.45C65.401 78.45 64.851 78.4 64.2844 78.3C63.751 78.2333 63.1844 78.1 62.5844 77.9V72.1ZM90.1746 67V31.5H105.225C106.858 31.5 108.358 31.85 109.725 32.55C111.125 33.2167 112.325 34.1167 113.325 35.25C114.325 36.35 115.108 37.6167 115.675 39.05C116.241 40.45 116.525 41.8667 116.525 43.3C116.525 44.8 116.258 46.2667 115.725 47.7C115.191 49.1 114.441 50.35 113.475 51.45C112.508 52.55 111.341 53.4333 109.975 54.1C108.608 54.7667 107.108 55.1 105.475 55.1H97.0746V67H90.1746ZM97.0746 49.05H105.075C106.341 49.05 107.391 48.5333 108.225 47.5C109.091 46.4667 109.525 45.0667 109.525 43.3C109.525 42.4 109.391 41.6 109.125 40.9C108.858 40.1667 108.508 39.55 108.075 39.05C107.641 38.55 107.125 38.1833 106.525 37.95C105.958 37.6833 105.375 37.55 104.775 37.55H97.0746V49.05ZM127.583 67.5C126.316 67.5 125.133 67.3 124.033 66.9C122.933 66.4667 121.983 65.8833 121.183 65.15C120.383 64.3833 119.749 63.5 119.283 62.5C118.849 61.5 118.633 60.4 118.633 59.2C118.633 57.9667 118.899 56.8333 119.433 55.8C119.999 54.7333 120.766 53.8333 121.733 53.1C122.733 52.3667 123.916 51.8 125.283 51.4C126.649 50.9667 128.149 50.75 129.783 50.75C130.949 50.75 132.083 50.85 133.183 51.05C134.316 51.25 135.316 51.5333 136.183 51.9V50.4C136.183 48.6667 135.683 47.3333 134.683 46.4C133.716 45.4667 132.266 45 130.333 45C128.933 45 127.566 45.25 126.233 45.75C124.899 46.25 123.533 46.9833 122.133 47.95L120.083 43.7C123.449 41.4667 127.083 40.35 130.983 40.35C134.749 40.35 137.666 41.2833 139.733 43.15C141.833 44.9833 142.883 47.65 142.883 51.15V59.3C142.883 60 142.999 60.5 143.233 60.8C143.499 61.1 143.916 61.2667 144.483 61.3V67C143.349 67.2333 142.366 67.35 141.533 67.35C140.266 67.35 139.283 67.0667 138.583 66.5C137.916 65.9333 137.499 65.1833 137.333 64.25L137.183 62.8C136.016 64.3333 134.599 65.5 132.933 66.3C131.266 67.1 129.483 67.5 127.583 67.5ZM129.483 62.6C130.616 62.6 131.683 62.4 132.683 62C133.716 61.6 134.516 61.0667 135.083 60.4C135.816 59.8333 136.183 59.2 136.183 58.5V55.5C135.383 55.2 134.516 54.9667 133.583 54.8C132.649 54.6 131.749 54.5 130.883 54.5C129.149 54.5 127.733 54.9 126.633 55.7C125.533 56.4667 124.983 57.45 124.983 58.65C124.983 59.7833 125.416 60.7333 126.283 61.5C127.149 62.2333 128.216 62.6 129.483 62.6ZM157.144 67.5C154.444 67.5 152.394 66.6333 150.994 64.9C149.594 63.1667 148.894 60.6 148.894 57.2V40.8H155.594V55.75C155.594 59.7833 157.044 61.8 159.944 61.8C161.244 61.8 162.494 61.4167 163.694 60.65C164.927 59.85 165.927 58.65 166.694 57.05V40.8H173.394V59.3C173.394 60 173.51 60.5 173.744 60.8C174.01 61.1 174.427 61.2667 174.994 61.3V67C174.327 67.1333 173.76 67.2167 173.294 67.25C172.86 67.2833 172.46 67.3 172.094 67.3C170.894 67.3 169.91 67.0333 169.144 66.5C168.41 65.9333 167.977 65.1667 167.844 64.2L167.694 62.1C166.527 63.9 165.027 65.25 163.194 66.15C161.36 67.05 159.344 67.5 157.144 67.5ZM180.002 30.5H186.702V58.6C186.702 59.5667 186.935 60.3167 187.402 60.85C187.869 61.3833 188.535 61.65 189.402 61.65C189.802 61.65 190.235 61.5833 190.702 61.45C191.202 61.3167 191.669 61.15 192.102 60.95L193.002 66.05C192.102 66.4833 191.052 66.8167 189.852 67.05C188.652 67.2833 187.569 67.4 186.602 67.4C184.502 67.4 182.869 66.85 181.702 65.75C180.569 64.6167 180.002 63.0167 180.002 60.95V30.5Z" fill="white"/>
<path d="M11.5742 8.79102L8.43945 14.123H8.38086L6.49609 8.79102H3.49805L6.75977 16.75L5.97852 23H8.72266L9.50391 16.75L14.7773 8.79102H11.5742ZM17.8145 13.0684C17.1602 13.0684 16.5547 13.1758 15.9883 13.3809C15.4219 13.5957 14.9336 13.8789 14.5234 14.25C14.1035 14.6211 13.7422 15.0605 13.4395 15.5586C13.1367 16.0566 12.9121 16.6035 12.7656 17.1895C12.6094 17.7754 12.541 18.3906 12.541 19.0156C12.541 19.8848 12.707 20.6367 13.0488 21.2617C13.3809 21.8867 13.8594 22.3652 14.4746 22.6875C15.0898 23.0098 15.8125 23.166 16.6523 23.166C17.3359 23.166 17.9707 23.0684 18.5566 22.8633C19.1426 22.6582 19.6406 22.375 20.0508 22.0039C20.4609 21.6328 20.8223 21.2031 21.1152 20.6953C21.4082 20.1875 21.623 19.6406 21.7598 19.0449C21.8965 18.459 21.9746 17.8242 21.9746 17.1602C21.9746 15.8711 21.5938 14.8652 20.8418 14.1426C20.0898 13.4297 19.084 13.0684 17.8145 13.0684ZM17.6387 15.3535C17.7949 15.3535 17.9414 15.373 18.0879 15.4023C18.2344 15.4316 18.3906 15.4902 18.5566 15.5781C18.7129 15.6758 18.8594 15.793 18.9766 15.9297C19.0938 16.0664 19.2012 16.2617 19.2793 16.5059C19.3574 16.7598 19.3965 17.043 19.3965 17.3555C19.3965 18 19.2891 18.5859 19.0742 19.1133C18.8594 19.6504 18.5566 20.0801 18.1562 20.4023C17.7461 20.7246 17.2871 20.8809 16.7793 20.8809C16.2715 20.8809 15.8711 20.6953 15.5586 20.3242C15.2461 19.9531 15.0996 19.4355 15.0996 18.791C15.0996 18.2148 15.1973 17.668 15.4023 17.1504C15.5977 16.6328 15.9004 16.2031 16.291 15.8613C16.6816 15.5293 17.1309 15.3535 17.6387 15.3535ZM30.3242 13.2344L29.8066 17.4043C29.748 17.8633 29.6113 18.3125 29.416 18.7422C29.2207 19.1816 28.9863 19.5527 28.7324 19.8555C28.4688 20.168 28.1953 20.4121 27.9023 20.5977C27.6094 20.7832 27.3457 20.8711 27.1016 20.8711C26.6914 20.8711 26.4277 20.7246 26.291 20.4121C26.1543 20.0996 26.1445 19.5527 26.2422 18.7715L26.9062 13.2344H24.3867L23.6445 19.2598C23.4785 20.6367 23.6152 21.6328 24.0449 22.248C24.4746 22.8633 25.1875 23.166 26.1934 23.166C27.4531 23.166 28.498 22.5605 29.3184 21.3301H29.3281L29.123 23H31.6523L32.8535 13.2344H30.3242ZM44.8457 13.0586C43.6641 13.0586 42.6387 13.6543 41.7793 14.8262H41.7402L42.541 8.27344H40.002L38.3027 22.0918C39.5039 22.8145 40.8906 23.1758 42.4629 23.1758C43.2051 23.1758 43.8789 23.0684 44.5039 22.8535C45.1289 22.6387 45.6562 22.3457 46.0957 21.9746C46.5254 21.6035 46.8965 21.1641 47.209 20.6562C47.5117 20.1484 47.7363 19.6113 47.8828 19.0254C48.0195 18.4395 48.0977 17.834 48.0977 17.1895C48.0977 16.6133 48.0293 16.0762 47.8926 15.5781C47.7559 15.0898 47.5508 14.6504 47.2969 14.2695C47.0332 13.8984 46.6914 13.5957 46.2715 13.3809C45.8516 13.166 45.373 13.0586 44.8457 13.0586ZM42.3066 20.8906C41.8477 20.8906 41.3984 20.832 40.9688 20.7148L41.0762 19.8359C41.2324 18.4688 41.6133 17.3848 42.1992 16.5742C42.7852 15.7637 43.4395 15.3535 44.1523 15.3535C44.5723 15.3535 44.9043 15.5293 45.1582 15.8613C45.4121 16.2031 45.5391 16.623 45.5391 17.1113C45.5391 17.4043 45.5098 17.6777 45.4707 17.9512C45.4219 18.2246 45.3535 18.4883 45.2656 18.7422C45.168 18.9961 45.0605 19.2305 44.9238 19.4453C44.7871 19.6602 44.6309 19.8652 44.4551 20.041C44.2695 20.2168 44.0742 20.373 43.8594 20.5C43.6445 20.627 43.4004 20.7246 43.1367 20.793C42.873 20.8613 42.5996 20.8906 42.3066 20.8906ZM53.7422 20.959C53.5078 20.959 53.2832 20.9199 53.0684 20.832C52.8535 20.7441 52.668 20.6074 52.4922 20.4121C52.3164 20.2168 52.1992 19.9824 52.1211 19.6992L52.1504 19.6797C52.668 19.6113 53.166 19.5234 53.6348 19.416C54.1035 19.3086 54.5527 19.1816 55.002 19.0254C55.4512 18.8691 55.8516 18.6836 56.2129 18.4688C56.5645 18.2539 56.8867 18.0195 57.1602 17.7559C57.4336 17.502 57.6387 17.1992 57.7949 16.8574C57.9414 16.5254 58.0195 16.1641 58.0195 15.7734C58.0195 15.3438 57.9219 14.9531 57.7461 14.6016C57.5703 14.25 57.3262 13.9668 57.0234 13.752C56.7109 13.5371 56.3691 13.3613 55.998 13.2441C55.6172 13.127 55.2168 13.0684 54.8066 13.0684C54.1621 13.0684 53.5566 13.1758 52.9902 13.3906C52.4238 13.6055 51.9355 13.8984 51.5254 14.2695C51.1152 14.6406 50.7539 15.0801 50.4609 15.5781C50.168 16.0762 49.9434 16.623 49.7969 17.209C49.6406 17.8047 49.5723 18.4199 49.5723 19.0449C49.5723 20.334 49.9238 21.3496 50.6465 22.0723C51.3594 22.7949 52.3457 23.1562 53.5957 23.1562C54.4941 23.1562 55.2656 23 55.9102 22.6777C56.5449 22.3652 57.1504 21.8672 57.7168 21.2031L55.7734 19.9336C55.5586 20.1777 55.3438 20.373 55.1289 20.5195C54.9141 20.6758 54.6992 20.7832 54.4746 20.8516C54.2402 20.9297 53.9961 20.959 53.7422 20.959ZM54.6504 15.2852C54.9238 15.2852 55.1387 15.3535 55.2949 15.4707C55.4512 15.5879 55.5293 15.7539 55.5293 15.959C55.5293 16.8574 54.416 17.4629 52.1895 17.7852L52.1699 17.7656C52.3457 16.9746 52.668 16.3594 53.1367 15.9297C53.6055 15.5 54.1133 15.2852 54.6504 15.2852ZM64.0352 20.3926C63.5371 20.666 63.127 20.8027 62.8145 20.8027C62.3555 20.8027 62.1699 20.4707 62.2578 19.7969L62.7949 15.3438H65.0312L65.2852 13.2344H63.0488L63.4785 9.75781L60.8906 10.2656L60.5195 13.2344H59.4941L59.2402 15.3438H60.2461L59.6602 20.1973C59.543 21.1543 59.6797 21.8965 60.0703 22.4043C60.4609 22.9121 61.0664 23.166 61.8867 23.166C62.8047 23.166 63.6445 22.9414 64.4258 22.4824L64.0352 20.3926ZM71.125 20.3926C70.627 20.666 70.2168 20.8027 69.9043 20.8027C69.4453 20.8027 69.2598 20.4707 69.3477 19.7969L69.8848 15.3438H72.1211L72.375 13.2344H70.1387L70.5684 9.75781L67.9805 10.2656L67.6094 13.2344H66.584L66.3301 15.3438H67.3359L66.75 20.1973C66.6328 21.1543 66.7695 21.8965 67.1602 22.4043C67.5508 22.9121 68.1562 23.166 68.9766 23.166C69.8945 23.166 70.7344 22.9414 71.5156 22.4824L71.125 20.3926ZM76.9844 20.959C76.75 20.959 76.5254 20.9199 76.3105 20.832C76.0957 20.7441 75.9102 20.6074 75.7344 20.4121C75.5586 20.2168 75.4414 19.9824 75.3633 19.6992L75.3926 19.6797C75.9102 19.6113 76.4082 19.5234 76.877 19.416C77.3457 19.3086 77.7949 19.1816 78.2441 19.0254C78.6934 18.8691 79.0938 18.6836 79.4551 18.4688C79.8066 18.2539 80.1289 18.0195 80.4023 17.7559C80.6758 17.502 80.8809 17.1992 81.0371 16.8574C81.1836 16.5254 81.2617 16.1641 81.2617 15.7734C81.2617 15.3438 81.1641 14.9531 80.9883 14.6016C80.8125 14.25 80.5684 13.9668 80.2656 13.752C79.9531 13.5371 79.6113 13.3613 79.2402 13.2441C78.8594 13.127 78.459 13.0684 78.0488 13.0684C77.4043 13.0684 76.7988 13.1758 76.2324 13.3906C75.666 13.6055 75.1777 13.8984 74.7676 14.2695C74.3574 14.6406 73.9961 15.0801 73.7031 15.5781C73.4102 16.0762 73.1855 16.623 73.0391 17.209C72.8828 17.8047 72.8145 18.4199 72.8145 19.0449C72.8145 20.334 73.166 21.3496 73.8887 22.0723C74.6016 22.7949 75.5879 23.1562 76.8379 23.1562C77.7363 23.1562 78.5078 23 79.1523 22.6777C79.7871 22.3652 80.3926 21.8672 80.959 21.2031L79.0156 19.9336C78.8008 20.1777 78.5859 20.373 78.3711 20.5195C78.1562 20.6758 77.9414 20.7832 77.7168 20.8516C77.4824 20.9297 77.2383 20.959 76.9844 20.959ZM77.8926 15.2852C78.166 15.2852 78.3809 15.3535 78.5371 15.4707C78.6934 15.5879 78.7715 15.7539 78.7715 15.959C78.7715 16.8574 77.6582 17.4629 75.4316 17.7852L75.4121 17.7656C75.5879 16.9746 75.9102 16.3594 76.3789 15.9297C76.8477 15.5 77.3555 15.2852 77.8926 15.2852ZM86.0078 14.8652H85.9883L86.1934 13.2344H83.6543L82.4531 23H84.9922L85.4316 19.4453C85.5879 18.1758 85.9492 17.2188 86.5352 16.5742C87.1113 15.9297 87.8438 15.7148 88.7227 15.9199L89.0742 13.0684C87.9023 13.0879 86.877 13.6836 86.0078 14.8652Z" fill="white"/>
</svg>

